<?xml version="1.0" encoding="UTF-8" standalone="no"?>
<!-- Created with Inkscape (http://www.inkscape.org/) -->

<svg
   xmlns:dc="http://purl.org/dc/elements/1.1/"
   xmlns:cc="http://creativecommons.org/ns#"
   xmlns:rdf="http://www.w3.org/1999/02/22-rdf-syntax-ns#"
   xmlns:svg="http://www.w3.org/2000/svg"
   xmlns="http://www.w3.org/2000/svg"
   xmlns:xlink="http://www.w3.org/1999/xlink"
   xmlns:sodipodi="http://sodipodi.sourceforge.net/DTD/sodipodi-0.dtd"
   xmlns:inkscape="http://www.inkscape.org/namespaces/inkscape"
   width="32"
   height="32"
   viewBox="0 0 8.4666667 8.4666667"
   version="1.1"
   id="svg9491"
   inkscape:version="0.92.4 (5da689c313, 2019-01-14)"
   sodipodi:docname="SLo_negativeaaa.svg"
   inkscape:export-filename="C:\Users\Martin\Desktop\ansuz\SLo.png"
   inkscape:export-xdpi="121.52394"
   inkscape:export-ydpi="121.52394"
   enable-background="new">
  <defs
     id="defs9485">
    <linearGradient
       inkscape:collect="always"
       id="linearGradient1545">
      <stop
         style="stop-color:#c7b94f;stop-opacity:1;"
         offset="0"
         id="stop1541" />
      <stop
         style="stop-color:#c7b94f;stop-opacity:0;"
         offset="1"
         id="stop1543" />
    </linearGradient>
    <marker
       inkscape:isstock="true"
       style="overflow:visible"
       id="marker16138"
       refX="0"
       refY="0"
       orient="auto"
       inkscape:stockid="DotL">
      <path
         transform="matrix(0.8,0,0,0.8,5.92,0.8)"
         style="fill:#000000;fill-opacity:1;fill-rule:evenodd;stroke:#000000;stroke-width:1.00000003pt;stroke-opacity:1"
         d="m -2.5,-1 c 0,2.76 -2.24,5 -5,5 -2.76,0 -5,-2.24 -5,-5 0,-2.76 2.24,-5 5,-5 2.76,0 5,2.24 5,5 z"
         id="path16136"
         inkscape:connector-curvature="0" />
    </marker>
    <marker
       inkscape:stockid="DotL"
       orient="auto"
       refY="0"
       refX="0"
       id="DotL-8"
       style="overflow:visible"
       inkscape:isstock="true">
      <path
         inkscape:connector-curvature="0"
         id="path4623-5"
         d="m -2.5,-1 c 0,2.76 -2.24,5 -5,5 -2.76,0 -5,-2.24 -5,-5 0,-2.76 2.24,-5 5,-5 2.76,0 5,2.24 5,5 z"
         style="fill:#000000;fill-opacity:1;fill-rule:evenodd;stroke:#000000;stroke-width:1.00000003pt;stroke-opacity:1"
         transform="matrix(0.8,0,0,0.8,5.92,0.8)" />
    </marker>
    <linearGradient
       inkscape:collect="always"
       xlink:href="#linearGradient1545"
       id="linearGradient1547"
       x1="41.275002"
       y1="145.12917"
       x2="41.275002"
       y2="153.06667"
       gradientUnits="userSpaceOnUse" />
  </defs>
  <sodipodi:namedview
     id="base"
     pagecolor="#ffffff"
     bordercolor="#666666"
     borderopacity="1.0"
     inkscape:pageopacity="0.0"
     inkscape:pageshadow="2"
     inkscape:zoom="8"
     inkscape:cx="21.01563"
     inkscape:cy="15.519629"
     inkscape:document-units="mm"
     inkscape:current-layer="layer1"
     showgrid="true"
     showguides="true"
     inkscape:snap-object-midpoints="true"
     inkscape:snap-center="true"
     inkscape:snap-text-baseline="false"
     inkscape:snap-grids="true"
     inkscape:snap-bbox="false"
     inkscape:snap-bbox-midpoints="true"
     inkscape:bbox-paths="true"
     inkscape:snap-bbox-edge-midpoints="true"
     inkscape:bbox-nodes="true"
     inkscape:object-paths="true"
     inkscape:snap-intersection-paths="true"
     inkscape:snap-midpoints="true"
     inkscape:snap-smooth-nodes="true"
     fit-margin-top="0"
     fit-margin-left="0"
     fit-margin-right="0"
     fit-margin-bottom="0"
     inkscape:window-width="1366"
     inkscape:window-height="705"
     inkscape:window-x="-8"
     inkscape:window-y="-8"
     inkscape:window-maximized="1"
     inkscape:snap-others="true"
     inkscape:snap-nodes="true"
     units="px">
    <inkscape:grid
       type="xygrid"
       id="grid10062"
       originx="-36.954236"
       originy="-143.5008" />
  </sodipodi:namedview>
  <metadata
     id="metadata9488">
    <rdf:RDF>
      <cc:Work
         rdf:about="">
        <dc:format>image/svg+xml</dc:format>
        <dc:type
           rdf:resource="http://purl.org/dc/dcmitype/StillImage" />
        <dc:title></dc:title>
      </cc:Work>
    </rdf:RDF>
  </metadata>
  <g
     inkscape:label="Capa 1"
     inkscape:groupmode="layer"
     id="layer1"
     transform="translate(-36.954238,-145.03253)">
    <ellipse
       ry="4.1482553"
       rx="3.7025323"
       cy="149.27853"
       cx="41.221416"
       id="ellipse1469"
       style="opacity:1;fill:#ffffff;fill-opacity:1;fill-rule:nonzero;stroke:#000000;stroke-width:0.14481398;stroke-miterlimit:4;stroke-dasharray:none;stroke-dashoffset:0;stroke-opacity:1;paint-order:normal" />
    <path
       sodipodi:nodetypes="ccccccccccccccccccscccccscccccccccscccscscccccsscccsccsccccssccscscsscsccsccsccccscccc"
       inkscape:connector-curvature="0"
       id="path1681"
       transform="matrix(0.26458333,0,0,0.26458333,36.954238,145.03253)"
       d="M 10.304688,7.7109375 C 5.9334917,7.7104944 2.1573575,11.38438 2.1580719,15.916016 c 3.264e-4,4.530873 3.7761558,8.203568 8.1466161,8.203125 2.313799,-0.003 4.510443,-1.055599 6.011718,-2.88086 0,-1.873052 0.01493,-3.371058 0.01404,-5.322265 0.0026,-1.952907 -0.0062,-3.550787 -0.0062,-5.324219 C 14.821172,8.7643852 12.621217,7.7115191 10.304688,7.7109375 Z m 6.019531,2.8808595 c 0,1.98874 0.0058,3.821553 0.0062,5.773432 -0.0031,1.952234 -0.01404,3.168461 -0.01404,4.873052 1.503048,1.827413 3.703002,2.880279 6.019532,2.88086 4.369695,-6.76e-4 7.911779,-3.673042 7.912109,-8.203125 7.11e-4,-4.530846 -3.541679,-8.2044028 -7.912109,-8.2050785 -2.313799,0.00295 -4.510443,1.0555979 -6.011719,2.8808595 z m 5.857422,0.833984 c 0.0498,0 0.08873,0.02587 0.117187,0.07617 0.02846,0.04191 0.05022,0.112265 0.06445,0.212891 0.07115,0.285058 0.124583,0.809302 0.160157,1.572265 0.04269,0.762956 0.06445,1.558641 0.06445,2.388672 0,0.704269 -0.0046,1.359232 -0.01172,1.962891 -0.0071,0.603659 -0.0098,1.011102 -0.0098,1.220703 0.09249,-0.0084 0.269957,-0.02235 0.533203,-0.03906 0.263246,-0.02519 0.533072,-0.04911 0.810547,-0.07422 0.412655,-0.0587 0.879061,-0.14826 1.398438,-0.265625 0.419769,-0.09222 0.672435,-0.136719 0.757812,-0.136719 0.07826,0 0.129047,0.04116 0.150391,0.125 0.02121,0.0833 0.03111,0.184363 0.03125,0.300781 v 0.002 c -5.35e-4,0.108043 -0.02351,0.505344 -0.108351,0.571997 -0.07826,0.0671 -0.173274,0.104884 -0.28711,0.113282 l -1.835896,0.162063 -1.269532,0.126953 -1.592321,0.193311 c -0.05692,0 -0.13091,-0.349485 -0.180711,-0.433325 -0.04269,-0.08384 -0.06445,-0.164777 -0.06445,-0.240234 0,-0.0587 0.01451,-0.09986 0.04297,-0.125 0.03558,-0.03351 0.07185,-0.0541 0.107422,-0.0625 0.04269,-0.01679 0.406005,-0.176016 0.420235,-0.184406 0.0071,-0.452744 0.126076,-1.486104 0.126076,-3.146167 0,-1.224089 -0.04353,-2.173015 -0.128907,-2.84375 -0.07826,-0.679116 -0.117187,-1.043445 -0.117187,-1.09375 0,-0.117372 0.0637,-0.277246 0.134853,-0.344322 0.07826,-0.0671 0.41305,-0.122118 0.491313,-0.122118 z m -12.082032,0.08789 c 0.284589,0 0.43764,0.06713 0.458985,0.201172 0.02142,0.134047 0.0332,0.285339 0.0332,0.453125 0,0.125732 -0.0077,0.25022 -0.086,0.25022 -0.03558,0 -0.110306,0.0085 -0.160099,-0.01696 -0.04268,-0.03351 -0.08158,-0.05929 -0.117187,-0.07617 -0.04268,-0.01764 -0.09345,-0.03296 -0.150391,-0.04883 -0.05692,-0.01764 -0.137432,-0.02734 -0.2441406,-0.02734 -0.3699629,0 -0.7372644,0.163043 -1.2566446,0.389562 -0.5193726,0.22652 -0.927078,0.451335 -1.3112746,0.786554 -0.3770808,0.33537 -0.5774548,0.581187 -0.5774548,0.89141 0,0.251465 0.05198,0.480855 0.2227138,0.665346 0.1778645,0.184189 0.4575633,0.266751 0.7492723,0.401176 0.2917065,0.125732 0.6825804,0.305803 1.2161842,0.498659 0.7826241,0.268322 1.3806503,0.581953 1.7506123,0.917298 0.377084,0.33537 0.552294,0.787107 0.552294,1.273381 v 0.002 c 0,0.4192 -0.170194,0.864556 -0.412109,1.275391 -0.234784,0.402469 -0.562208,0.780257 -0.9962086,1.031747 -0.4268825,0.259956 -1.01449,0.377624 -1.5623275,0.377624 -0.462458,0 -0.8604448,-0.04645 -1.130802,-0.138672 -0.2703621,-0.08365 -0.3399587,-0.281378 -0.3399587,-0.440621 0,-0.08365 0.048809,-0.222958 0.1484376,-0.416016 0.1067337,-0.201071 0.1891992,-0.300781 0.2460937,-0.300781 0.085392,0 0.1289063,0.02067 0.1289063,0.0625 0,0.02545 -0.014496,0.05463 -0.042969,0.08789 -0.021417,0.03351 -0.033203,0.06805 -0.033203,0.101563 0,0.02545 0.043514,0.06339 0.1289062,0.113281 0.092498,0.05014 0.2310431,0.01652 0.4160157,0.05859 0.1849951,0.04183 0.3461384,0.0625 0.609375,0.0625 0.4197693,0 0.7709361,-0.08068 1.0839843,-0.273438 0.3201638,-0.192756 0.518697,-0.388097 0.689453,-0.68164 0.170734,-0.293393 0.28711,-0.563132 0.28711,-0.839844 0,-0.360517 -0.179699,-0.669782 -0.478516,-0.929688 C 9.6301741,16.964651 9.1721343,16.764056 8.5175781,16.529297 7.8843662,16.286399 7.3622955,16.054078 7.0136719,15.894531 6.6721638,15.726972 6.4263306,15.525901 6.2128906,15.291016 5.9994481,15.048118 5.8925781,14.754144 5.8925781,14.410156 c 0,-0.461127 0.2366182,-0.993128 0.6777344,-1.4375 0.4411137,-0.452737 1.0478694,-0.832713 1.6953125,-1.109375 0.6474406,-0.285077 1.2790367,-0.349609 1.833984,-0.349609 z"
       style="opacity:1;fill:#ffffff;fill-opacity:1;fill-rule:nonzero;stroke:none;stroke-width:0.92594403;stroke-miterlimit:4;stroke-dasharray:none;stroke-dashoffset:0;stroke-opacity:1;paint-order:normal" />
    <ellipse
       style="opacity:1;fill:url(#linearGradient1547);fill-opacity:1;fill-rule:nonzero;stroke:#0e0000;stroke-width:0.14481398;stroke-miterlimit:4;stroke-dasharray:none;stroke-dashoffset:0;stroke-opacity:1;paint-order:normal"
       id="path815-4"
       cx="41.221416"
       cy="149.27853"
       rx="3.7025323"
       ry="4.1482553" />
    <path
       style="opacity:1;fill:#1b889f;fill-opacity:1;fill-rule:nonzero;stroke:none;stroke-width:0.92594403;stroke-miterlimit:4;stroke-dasharray:none;stroke-dashoffset:0;stroke-opacity:1;paint-order:normal"
       d="M 10.304688,7.7109375 C 5.9334917,7.7104944 2.1573575,11.38438 2.1580719,15.916016 c 3.264e-4,4.530873 3.7761558,8.203568 8.1466161,8.203125 2.313799,-0.003 4.510443,-1.055599 6.011718,-2.88086 0,-1.873052 0.01493,-3.371058 0.01404,-5.322265 0.0026,-1.952907 -0.0062,-3.550787 -0.0062,-5.324219 C 14.821172,8.7643852 12.621217,7.7115191 10.304688,7.7109375 Z m 6.019531,2.8808595 c 0,1.98874 0.0058,3.821553 0.0062,5.773432 -0.0031,1.952234 -0.01404,3.168461 -0.01404,4.873052 1.503048,1.827413 3.703002,2.880279 6.019532,2.88086 4.369695,-6.76e-4 7.911779,-3.673042 7.912109,-8.203125 7.11e-4,-4.530846 -3.541679,-8.2044028 -7.912109,-8.2050785 -2.313799,0.00295 -4.510443,1.0555979 -6.011719,2.8808595 z m 5.857422,0.833984 c 0.0498,0 0.08873,0.02587 0.117187,0.07617 0.02846,0.04191 0.05022,0.112265 0.06445,0.212891 0.07115,0.285058 0.124583,0.809302 0.160157,1.572265 0.04269,0.762956 0.06445,1.558641 0.06445,2.388672 0,0.704269 -0.0046,1.359232 -0.01172,1.962891 -0.0071,0.603659 -0.0098,1.011102 -0.0098,1.220703 0.09249,-0.0084 0.269957,-0.02235 0.533203,-0.03906 0.263246,-0.02519 0.533072,-0.04911 0.810547,-0.07422 0.412655,-0.0587 0.879061,-0.14826 1.398438,-0.265625 0.419769,-0.09222 0.672435,-0.136719 0.757812,-0.136719 0.07826,0 0.129047,0.04116 0.150391,0.125 0.02121,0.0833 0.03111,0.184363 0.03125,0.300781 v 0.002 c -5.35e-4,0.108043 -0.02351,0.505344 -0.108351,0.571997 -0.07826,0.0671 -0.173274,0.104884 -0.28711,0.113282 l -1.835896,0.162063 -1.269532,0.126953 -1.592321,0.193311 c -0.05692,0 -0.13091,-0.349485 -0.180711,-0.433325 -0.04269,-0.08384 -0.06445,-0.164777 -0.06445,-0.240234 0,-0.0587 0.01451,-0.09986 0.04297,-0.125 0.03558,-0.03351 0.07185,-0.0541 0.107422,-0.0625 0.04269,-0.01679 0.406005,-0.176016 0.420235,-0.184406 0.0071,-0.452744 0.126076,-1.486104 0.126076,-3.146167 0,-1.224089 -0.04353,-2.173015 -0.128907,-2.84375 -0.07826,-0.679116 -0.117187,-1.043445 -0.117187,-1.09375 0,-0.117372 0.0637,-0.277246 0.134853,-0.344322 0.07826,-0.0671 0.41305,-0.122118 0.491313,-0.122118 z m -12.082032,0.08789 c 0.284589,0 0.43764,0.06713 0.458985,0.201172 0.02142,0.134047 0.0332,0.285339 0.0332,0.453125 0,0.125732 -0.0077,0.25022 -0.086,0.25022 -0.03558,0 -0.110306,0.0085 -0.160099,-0.01696 -0.04268,-0.03351 -0.08158,-0.05929 -0.117187,-0.07617 -0.04268,-0.01764 -0.09345,-0.03296 -0.150391,-0.04883 -0.05692,-0.01764 -0.137432,-0.02734 -0.2441406,-0.02734 -0.3699629,0 -0.7372644,0.163043 -1.2566446,0.389562 -0.5193726,0.22652 -0.927078,0.451335 -1.3112746,0.786554 -0.3770808,0.33537 -0.5774548,0.581187 -0.5774548,0.89141 0,0.251465 0.05198,0.480855 0.2227138,0.665346 0.1778645,0.184189 0.4575633,0.266751 0.7492723,0.401176 0.2917065,0.125732 0.6825804,0.305803 1.2161842,0.498659 0.7826241,0.268322 1.3806503,0.581953 1.7506123,0.917298 0.377084,0.33537 0.552294,0.787107 0.552294,1.273381 v 0.002 c 0,0.4192 -0.170194,0.864556 -0.412109,1.275391 -0.234784,0.402469 -0.562208,0.780257 -0.9962086,1.031747 -0.4268825,0.259956 -1.01449,0.377624 -1.5623275,0.377624 -0.462458,0 -0.8604448,-0.04645 -1.130802,-0.138672 -0.2703621,-0.08365 -0.3399587,-0.281378 -0.3399587,-0.440621 0,-0.08365 0.048809,-0.222958 0.1484376,-0.416016 0.1067337,-0.201071 0.1891992,-0.300781 0.2460937,-0.300781 0.085392,0 0.1289063,0.02067 0.1289063,0.0625 0,0.02545 -0.014496,0.05463 -0.042969,0.08789 -0.021417,0.03351 -0.033203,0.06805 -0.033203,0.101563 0,0.02545 0.043514,0.06339 0.1289062,0.113281 0.092498,0.05014 0.2310431,0.01652 0.4160157,0.05859 0.1849951,0.04183 0.3461384,0.0625 0.609375,0.0625 0.4197693,0 0.7709361,-0.08068 1.0839843,-0.273438 0.3201638,-0.192756 0.518697,-0.388097 0.689453,-0.68164 0.170734,-0.293393 0.28711,-0.563132 0.28711,-0.839844 0,-0.360517 -0.179699,-0.669782 -0.478516,-0.929688 C 9.6301741,16.964651 9.1721343,16.764056 8.5175781,16.529297 7.8843662,16.286399 7.3622955,16.054078 7.0136719,15.894531 6.6721638,15.726972 6.4263306,15.525901 6.2128906,15.291016 5.9994481,15.048118 5.8925781,14.754144 5.8925781,14.410156 c 0,-0.461127 0.2366182,-0.993128 0.6777344,-1.4375 0.4411137,-0.452737 1.0478694,-0.832713 1.6953125,-1.109375 0.6474406,-0.285077 1.2790367,-0.349609 1.833984,-0.349609 z"
       transform="matrix(0.26458333,0,0,0.26458333,36.954238,145.03253)"
       id="path815"
       inkscape:connector-curvature="0"
       sodipodi:nodetypes="ccccccccccccccccccscccccscccccccccscccscscccccsscccsccsccccssccscscsscsccsccsccccscccc" />
    <g
       aria-label="L"
       style="font-style:normal;font-variant:normal;font-weight:normal;font-stretch:normal;font-size:10.58333302px;line-height:1.25;font-family:'Ink Free';-inkscape-font-specification:'Ink Free, Normal';font-variant-ligatures:normal;font-variant-caps:normal;font-variant-numeric:normal;font-feature-settings:normal;text-align:start;letter-spacing:0px;word-spacing:0px;writing-mode:lr-tb;text-anchor:start;fill:none;fill-opacity:1;stroke:#000000;stroke-width:0.5;stroke-miterlimit:4;stroke-dasharray:none;stroke-opacity:1"
       id="text10070"
       transform="matrix(0.26680286,0,0,0.31440574,27.432848,105.24124)" />
    <ellipse
       style="opacity:1;fill:#0e0000;fill-opacity:1;fill-rule:nonzero;stroke:#000000;stroke-width:0.14481398;stroke-linecap:butt;stroke-linejoin:round;stroke-miterlimit:4;stroke-dasharray:none;stroke-dashoffset:0;stroke-opacity:1;paint-order:normal"
       id="path16575"
       cx="44.886261"
       cy="149.22997"
       rx="0.4924888"
       ry="0.541668" />
    <ellipse
       ry="0.541668"
       rx="0.4924888"
       cy="149.22997"
       cx="37.519135"
       id="ellipse16577"
       style="opacity:1;fill:#0e0000;fill-opacity:1;fill-rule:nonzero;stroke:#000000;stroke-width:0.14481398;stroke-linecap:butt;stroke-linejoin:round;stroke-miterlimit:4;stroke-dasharray:none;stroke-dashoffset:0;stroke-opacity:1;paint-order:normal" />
    <ellipse
       style="opacity:1;fill:#0e0000;fill-opacity:1;fill-rule:nonzero;stroke:#000000;stroke-width:0.07045756;stroke-linecap:butt;stroke-linejoin:round;stroke-miterlimit:4;stroke-dasharray:none;stroke-dashoffset:0;stroke-opacity:1;paint-order:normal"
       id="path16575-2"
       cx="41.275002"
       cy="147.77499"
       rx="0.22790594"
       ry="0.27708191" />
    <ellipse
       style="opacity:1;fill:#0e0000;fill-opacity:1;fill-rule:nonzero;stroke:#000000;stroke-width:0.07045744;stroke-linecap:butt;stroke-linejoin:round;stroke-miterlimit:4;stroke-dasharray:none;stroke-dashoffset:0;stroke-opacity:1;paint-order:normal"
       id="path16575-23"
       cx="41.275002"
       cy="150.68541"
       rx="0.22790594"
       ry="0.27708086" />
    <text
       xml:space="preserve"
       style="font-style:normal;font-variant:normal;font-weight:normal;font-stretch:normal;font-size:10.58333302px;line-height:1.25;font-family:'Ink Free';-inkscape-font-specification:'Ink Free, Normal';font-variant-ligatures:normal;font-variant-caps:normal;font-variant-numeric:normal;font-feature-settings:normal;text-align:start;letter-spacing:0px;word-spacing:0px;writing-mode:lr-tb;text-anchor:start;fill:#000000;fill-opacity:1;stroke:none;stroke-width:0.26458332"
       x="34.685787"
       y="150.08482"
       id="text1473"><tspan
         sodipodi:role="line"
         id="tspan1471"
         x="34.685787"
         y="159.55348"
         style="stroke-width:0.26458332" /></text>
  </g>
</svg>
