<?xml version="1.0" encoding="UTF-8"?>
<!-- Created with Inkscape (http://www.inkscape.org/) -->
<svg width="152.72mm" height="51.627mm" version="1.1" viewBox="0 0 152.72 51.627" xmlns="http://www.w3.org/2000/svg" xmlns:cc="http://creativecommons.org/ns#" xmlns:dc="http://purl.org/dc/elements/1.1/" xmlns:rdf="http://www.w3.org/1999/02/22-rdf-syntax-ns#">
 <metadata>
  <rdf:RDF>
   <cc:Work rdf:about="">
    <dc:format>image/svg+xml</dc:format>
    <dc:type rdf:resource="http://purl.org/dc/dcmitype/StillImage"/>
    <dc:title/>
   </cc:Work>
  </rdf:RDF>
 </metadata>
 <g transform="translate(-10.636 -34.695)">
  <g>
   <ellipse cx="127.77" cy="59.4" rx="30.824" ry="15.392" fill="#ff6567" stroke="#ff6567" stroke-linecap="square" stroke-linejoin="round" stroke-width="2.3401" style="paint-order:normal"/>
   <path transform="matrix(.26458 0 0 .26458 11.166 34.695)" d="m287.6 0c-158.84-3.5597e-5 -289.6 44.094-289.6 97.977 5.421e-4 53.882 130.76 97.148 289.6 97.148 158.84 3e-5 287.6-43.68 287.6-97.562-5.4e-4 -53.882-128.76-97.563-287.6-97.562zm108.47 58.713c1.5833 0 2.0453 1.6046 2.9064 2.049 0.86111 0.41667 1.0858 1.2359 1.0858 2.597 0 1.8056-0.61163 2.3114-1.5561 3.5892-0.91667 1.2778-2.1942 2.3303-3.972 2.3303-1.1111 0-2.4169 0.31671-3.778-0.01663-1.3333-0.33333-3.5882-1.9108-3.5882-2.6608 0-1.3611-0.20482-3.4814 0.62852-4.7036 0.86111-1.25 2.511-2.4704 3.7055-3.2482 0.97222-0.55556 4.2903 0.06371 4.5681 0.06371zm103.58 0.41797c0.47222 0 0.88889 0.09657 1.25 0.29102 0.36111 0.19444 0.65277 0.43121 0.875 0.70898 0.25 0.27778 0.4299 0.58268 0.54101 0.91602s0.16602 0.625 0.16602 0.875c0 0.38889-0.0681 1.0972-0.20703 2.125-0.13889 1.0278-0.33399 2.2645-0.58399 3.709-0.25 1.4444-0.52843 3.0278-0.83398 4.75-0.30556 1.7222-0.6237 3.4722-0.95703 5.25-0.30556 1.75-0.61242 3.4716-0.91797 5.166-0.30556 1.6667-0.58203 3.1799-0.83203 4.541l-0.625 3.334c-0.16667 0.88889-0.26519 1.4306-0.29297 1.625-0.41667 3.3611-0.77648 6.2229-1.082 8.584-0.30556 2.3611-0.57075 4.2209-0.79297 5.582 0.27778-0.30555 0.77778-0.86046 1.5-1.666 0.75-0.83334 1.6118-1.7784 2.584-2.834 0.97222-1.0833 2.0006-2.2216 3.084-3.416 1.0833-1.1944 2.0966-2.3194 3.041-3.375 0.94445-1.0833 1.7645-2.0132 2.459-2.791 0.72222-0.80556 1.1938-1.3472 1.416-1.625 1.1389-1.4722 2.3056-2.959 3.5-4.459 1.2222-1.5278 2.0162-3.1099 3.2107-4.3322 1.2222-1.2222 2.4306-2.6233 3.625-3.3733 1.1944-0.77778 3.8112-1.9947 4.9501-1.9947 1.7778 0 3.0113 0.48676 3.0113 1.459 0 0.44444 0.12473 2.0219-0.18082 2.6608-0.27778 0.61111-1.3168 1.7195-1.7335 2.3584-0.41667 0.63889-1.4813 1.5401-1.9535 2.1512-0.44445 0.58333-0.98599 0.86098-1.3471 1.2499-0.44444 0.5-1.2217 0.96042-1.9161 1.6549-0.66667 0.66667-1.4015 1.3882-2.207 2.166-0.77778 0.77778-1.5979 1.5827-2.459 2.416-0.86111 0.80556-1.6944 1.584-2.5 2.334-0.77778 0.75-1.4994 1.4451-2.166 2.084-0.63889 0.61111-1.1541 1.1111-1.543 1.5-0.33334 0.33333-0.65148 0.63824-0.95703 0.91602l-0.91797 0.83398c-0.27778 0.27778-0.55426 0.59592-0.83203 0.95703-0.27778 0.33333-0.58464 0.73676-0.91797 1.209 2.6944 1.6389 5.4028 3.2355 8.125 4.791 2.75 1.5278 5.4735 2.918 8.168 4.168 2.7222 1.25 5.5402 1.5047 8.1791 2.4214 2.6667 0.88889 9.2761 2.5683 11.804 2.9572 1 0.16666 1.875 0.24999 2.625 0.25 0.77778-0.0278 1.418-0.0278 1.918 0 0.52777 0 0.91601 0.0549 1.166 0.16601 0.27778 0.0833 0.41602 0.30686 0.41602 0.66797 0 0.58333-0.33334 1.1515-1 1.707-0.63889 0.52778-1.4154 0.98611-2.332 1.375-0.91667 0.38889-1.8618 0.70898-2.834 0.95899-0.94444 0.22222-3.8713 1.2435-4.4824 1.2435-2.5 0-7.1121-0.55866-9.2788-1.0864-2.1389-0.52778-4.0426-2.078-6.2648-2.9946-1.8333-0.75001-3.5833-1.6118-5.25-2.584-1.6667-0.97222-3.3333-1.9855-5-3.041-1.6389-1.0556-3.3056-2.1257-5-3.209-1.6944-1.1111-3.4861-2.1944-5.375-3.25l-0.41601 0.41797c-0.19445 0.19444-0.43121 0.41601-0.70899 0.66602-0.25 0.25-0.52843 0.51323-0.83398 0.79101-0.27778 0.25-0.51259 0.45833-0.70703 0.625-0.72223 0.63889-1.2923 1.1958-1.709 1.668-0.38889 0.47222-0.72222 0.93055-1 1.375-0.25 0.41667-0.45833 0.83333-0.625 1.25-0.16666 0.41667-0.36176 0.875-0.58398 1.375 0.11111 0.52778 0.0846 1.166-0.082 1.916-0.13889 0.72222-0.20899 1.3889-0.20899 2 0 1.8056-0.90084 3.2014-1.753 4.0494-1.2334 1.2274-1.8415 1.962-3.4804 1.962-1.021 0.084-3.2992-0.1247-3.8495-0.88811-0.56603-0.7853-1.4473-2.0933 2.0419-2.7483 0-0.33334 0.0549-1.0417 0.16601-2.125 0.13889-1.1111 0.30556-2.4577 0.5-4.041 0.19445-1.6111 0.41602-3.3895 0.66602-5.334 0.27778-1.9722 0.5562-3.9722 0.83398-6 0.30241-2.0344 1.4877-7.8394 1.7629-9.8194-0.96535 1.3875-2.9104 6.6211-4.0539 8.1104-1.1944 1.5278-2.5013 3.0278-3.918 4.5-1.3889 1.4722-2.8605 2.8756-4.416 4.209-1.5556 1.3333-3.1806 2.5-4.875 3.5-1.6667 0.97222-3.4034 1.7506-5.209 2.334-1.7778 0.58333-3.5959 0.875-5.457 0.875-1.3611 0-2.5846-0.23676-3.668-0.70898-1.0833-0.47223-2-1.1257-2.75-1.959s-1.3181-1.8181-1.707-2.957c-0.38889-1.1667-0.58399-2.4319-0.58399-3.793 0-0.63889 0.0284-1.4722 0.084-2.5 0.0833-1.0278-0.1938-2.1111-0.13824-3.25 0.0833-1.1389 0.14019-2.2771 0.16797-3.416 0.0278-1.1667 0.17199-1.8285 0.0886-2.7452-0.0833-0.91667-0.16771-1.6667-0.38993-2.25-0.19445-0.58333-0.61617-0.84047-1.0606-0.84047-0.47223 0-0.98651 0.2439-1.681 0.79946-0.69445 0.55556-1.3215 0.8841-2.1549 1.7452-0.80556 0.86111-1.6521 1.8327-2.541 2.916-0.86111 1.0833-1.7077 2.1667-2.541 3.25-0.80556 1.0556-1.5556 2.0556-2.25 3-0.69445 0.91666-1.2645 1.6667-1.709 2.25-1.1667 1.5-2.1799 2.7784-3.041 3.834-0.83334 1.0278-1.5701 1.9577-2.209 2.791-0.63889 0.80555-1.2222 1.5556-1.75 2.25-0.5 0.69444-1 1.4444-1.5 2.25-0.63889 0.97222-1.2222 1.6521-1.75 2.041-0.5 0.38889-0.86176 0.58398-1.084 0.58399-0.69445-1e-5 -1.3327-0.0417-1.916-0.125-0.58333-0.0833-1.0966-0.25-1.541-0.5-0.41667-0.25001-0.75-0.61177-1-1.084-0.22223-0.47222-0.33399-1.1105-0.33399-1.916 0-0.94445 0.0701-1.9729 0.20899-3.084s0.30555-2.2778 0.5-3.5c0.19444-1.2222 0.40277-2.4987 0.625-3.832 0.22222-1.3611 0.41536-2.7513 0.58203-4.168 0.17723-1.4938 0.324-2.8226 0.45508-4.0625-0.52173 0.88164-1.1526 1.8343-1.9551 2.8965-0.91667 1.25-1.9848 2.5833-3.207 4-1.2222 1.4167-2.5006 2.8466-3.834 4.291-1.5833 1.6667-3.2368 3.2784-4.959 4.834-1.6944 1.5278-3.541 3.0145-5.541 4.459-3.8889 2.8889-7.3605 4.332-10.416 4.332-3.3611 0-5.9729-1.125-7.834-3.375-1.8611-2.2778-3.1244-5.0278-3.791-8.25-0.66667-3.1944-1-6.4861-1-9.875 0-1.4167 0.16666-3.625 0.5-6.625 0.16666-1.5 0.33333-2.7917 0.5-3.875 0.16666-1.0833-0.27491-2.6489-0.0805-3.3155 0.38889-1.3056 0.72562-2.5128 1.9756-3.4851 1.2778-1.0278 3.716-1.1957 5.1048-1.1957 0.75 0 1.6774 1.1227 1.6774 2.5393 0 0.94444 0.0396 2.1507-0.15487 3.3451-0.16667 1.1944-1.0371 2.2382-1.2316 3.4049-0.36111 2.1944-0.62435 4.166-0.79101 5.916-0.16667 1.7222-0.25 3.2222-0.25 4.5 0 2.8333 0.38823 5.6667 1.166 8.5 0.77778 2.9167 2.1812 4.375 4.209 4.375 2.0556 0 4.4438-0.75 7.166-2.25 1.3611-0.77778 2.7229-1.6395 4.084-2.584 1.3611-0.94444 2.7209-1.9994 4.082-3.166 1.4167-1.1667 2.75-2.3333 4-3.5 1.25-1.1944 2.5-2.416 3.75-3.666 1.25-1.25 2.3485-2.4167 3.293-3.5 0.77691-1.474 1.2328-2.0833 1.3691-3.1953 0.0556-0.11111 0.1185-0.71007 0.28517-1.0156 0.16666-0.30556 0.47449-0.64911 0.9331-0.71533 0.45849-0.0662 0.66872-0.12747 0.9507 0.05323 0.21001 0.1709 0.4011 0.70589 0.46338 1.0435 0.0965 0.31897 0.0868 0.72236 0.0981 0.7378 0.0549-0.9067 0.0213-2.45-0.0866-3.2832-0.14484-1.1179-0.37132-2.1819-0.37132-3.293 0-0.44444 0.48962-3.1542 0.71182-3.7097 0.25-0.55556 0.36902-1.2414 0.70236-1.7136 0.36111-0.5 0.92394-0.74403 1.3406-1.0774 0.44444-0.33333 0.86111-0.5 1.25-0.5 0.83333 0 1.4848 0.13824 1.957 0.41602 0.5 0.27778 0.875 0.68121 1.125 1.209s0.40343 1.1528 0.45898 1.875c0.0833 0.72222 0.47026 2.8391 0.47026 3.728 0 1.5556-0.42158 4.1616-0.78269 6.0227-0.33334 1.8611-0.70834 3.7229-1.125 5.584-0.38889 1.8611-0.75065 3.666-1.084 5.416-0.33333 1.7222-0.48676 3.2222-0.45898 4.5 0.86111-0.52778 1.8062-1.4028 2.834-2.625 1.0556-1.2222 2.1389-2.5688 3.25-4.041 1.1111-1.4722 2.2229-2.9722 3.334-4.5 1.1111-1.5278 2.1528-2.8743 3.125-4.041 1.1667-1.3611 2.1931-2.5013 3.082-3.418 0.91666-0.91667 1.7652-1.7083 2.543-2.375 0.80555-0.66667 1.5556-1.25 2.25-1.75 0.72222-0.5 1.457-0.98481 2.207-1.457 0.27778-0.19444 0.65278-0.3763 1.125-0.54297 0.5-0.16667 1-0.3049 1.5-0.41602 0.52778-0.13889 1.0145-0.25065 1.459-0.33398 0.44445-0.08333 0.77778-0.125 1-0.125 0.30556 0 0.63889 0.125 1 0.375s0.69445 0.55686 1 0.91797c0.33334 0.36111 0.61176 0.74935 0.83399 1.166 0.22222 0.41667 0.33203 0.77843 0.33203 1.084 0 1.1667-0.0833 2.6382-0.25 4.416-0.13889 1.7778-0.30556 3.6243-0.5 5.541-0.16667 1.8889-0.33334 3.7374-0.5 5.543-0.13889 1.7778-0.20703 3.2626-0.20703 4.457 0 0.38889 0.0549 0.82075 0.16601 1.293 0.13889 0.47222 0.3188 0.93055 0.54102 1.375 0.25 0.41667 0.55686 0.77648 0.91797 1.082 0.36111 0.27778 0.79101 0.41797 1.291 0.41797 1.8333 0 3.6799-0.36176 5.541-1.084 1.8889-0.75001 3.7374-1.75 5.543-3 1.8056-1.2778 3.5556-2.7494 5.25-4.416 1.7222-1.6667 3.3188-3.4319 4.791-5.293 0.94445-1.1667 1.8194-2.3466 2.625-3.541 0.83334-1.2222 1.5833-2.3605 2.25-3.416 0.66667-1.0833 1.0986-1.4354 1.5709-2.2965 0.21041-0.36238 0.43196-1.1698 0.59319-1.4633 0.11383-0.73594 0.23621-1.5169 0.29492-1.9082 0.0556-0.5 0.12369-1.25 0.20703-2.25 0.0833-1 0.16666-2.125 0.25-3.375 0.11111-1.25 0.22287-2.5549 0.33398-3.916 0.11111-1.3889 0.20768-2.6938 0.29102-3.916 0.11111-1.2222 0.19444-2.3056 0.25-3.25 0.0833-0.94444 0.14019-1.6111 0.16797-2l0.33203-4.084c0.0278-0.47222 0.22287-0.91732 0.58398-1.334 0.36111-0.41667 0.79102-0.77648 1.291-1.082 0.52778-0.30556 1.0846-0.54232 1.668-0.70898 0.58333-0.19444 1.125-0.29102 1.625-0.29102z" fill="#314455" style="paint-order:normal"/>
   <path transform="scale(.26458)" d="m245 162.52h-45c-4.204 0-23.92 2.0834-28.562 3.3867s-10.809 3.164-16.299 5.0941c-4.9046 1.7786-6.6577 2.665-10.146 4.4723-5.2913 2.933-7.3542 4.6951-10.535 7.6465-3.4658 3.2157-7.2646 6.5971-9.1662 10.824-0.78515 1.745-2.4112 6.4802-2.5088 8.3286-0.23219 2.5207 0.32865 6.2447 1.0057 8.6304 0.67709 2.3858 0.97721 3.5807 2.6205 5.6092 1.6433 2.0285 5.5615 4.5988 7.5631 5.7032 2.1018 1.2937 8.6347 3.9324 11.239 4.9672 5.2648 2.0915 7.2717 2.5346 16.865 5.6607 4.9585 1.5091 9.783 2.6443 13.367 4.2341 3.332 0.87186 6.3448 1.9281 9.1728 3.9929 2.5446 1.0378 4.1756 3.1762 5.5081 5.498 2.0696 3.5258 1.7872 7.4562 0.58846 10.916-0.64684 1.8323-0.788 2.1726-2.0815 4.059-1.2935 1.8864-2.8692 3.6106-4.7285 5.1738s-4.0473 2.3809-6.4727 3.6206c-1.381 0.52215-2.4206 0.93499-3.578 1.1875-1.3504 0.46485-3.6426 0.80428-5.0304 0.9552-2.8274 0.30746-4.5846 0.52504-7.7645 0.52504-3.9884 0-7.293-0.35955-10.096-0.89852-2.8026-0.53897-3.108-0.59616-4.5093-1.2429-1.2947-0.67553-2.0515-1.2312-1.9985-0.2827 0.024 0.43051 0.55163-0.8618 0.87501-1.293 0.43117-0.43118 0.30468-1.1493 0.30468-1.4727 0-0.26949-0.84479-0.91014-1.168-1.0449-0.32318-0.13478-0.85715-0.10547-1.5039-0.10547-0.43118 1e-5 -1.933 0.32387-2.5527 0.9707s-1.7736 2.2026-2.582 3.4961c-1.2128 2.2446-1.6047 3.8261-2.0684 6.1172-0.16373 1.321 0.37958 2.4531 1.291 3.9277 1.0236 0.78112 3.3894 2.3692 5.4375 2.9082 1.024 0.29643 18.094 3.1453 37.514 3.4356 28.336 0.42351 36.155-0.0276 70 0 33.845 0.0276 85.285-0.55243 111.48-0.55243s26.85 0.21596 42.348-6.4499 12.583-29.68-2.6127-35.768c-7.3375-2.9399-16.348-6.5533-26.749-12.8-20.962-12.59-19.943-28.902-6.3666-41.388 9.3562-8.6045 29.728-11.776 44.013-16.792 6.7907-2.3842 2.0828-11.648-12.111-11.25-72.048-0.75016-82.953-0.37317-155 0z" fill="#ff6567" style="paint-order:normal"/>
  </g>
  <g fill="#314455" stroke-width=".26458" style="font-feature-settings:normal;font-variant-caps:normal;font-variant-ligatures:normal;font-variant-numeric:normal" aria-label="tory">
   <path d="m62.979 56.428c0 0.28787-0.11641 0.86592-0.36808 1.0221-0.23945 0.14862-0.68009 0.2521-1.3208 0.3556-1.561 0.25216-2.4299 0.42333-2.6162 0.4572l-1.4318 0.31594c0 0.88053-0.0044 1.4417 0.01248 2.4069 0.03387 0.9652 0.0762 1.8119 0.127 2.54 0.06773 0.98213 0.18627 1.7357 0.3556 2.2606s0.04322 0.78473 0.06016 0.85246c0 0.16933-0.11007 0.32173-0.3302 0.4572-0.2032 0.1524-0.39793 0.2286-0.5842 0.2286-0.1016 0-0.51513 0.03921-0.58287-0.02852-0.06773-0.0508-0.127-0.14393-0.1778-0.2794-0.1016-0.23707-0.2032-0.67733-0.3048-1.3208-0.08467-0.64347-0.1524-1.3547-0.2032-2.1336-0.0508-0.69427-0.09313-1.4986-0.127-2.413-0.01693-0.93133-0.01248-1.6479-0.01248-2.5115-0.94827 0.1524-1.5931 0.26558-2.5921 0.48572-0.89747 0.18627-1.4309 0.2794-1.6002 0.2794-0.2032 0-0.43669-0.16262-0.62296-0.28115-0.16933-0.11853-0.22816-0.35692-0.22816-0.56012 0-0.22013 0.0762-0.36407 0.2286-0.4318 0.1524-0.06773 0.4064-0.1016 0.762-0.1016 0.254 0 0.62653-0.04233 1.1176-0.127 0.49107-0.1016 0.80433-0.16933 0.9398-0.2032 1.1345-0.22013 1.6127-0.36407 2.0191-0.4318 0-0.3556-0.01693-0.82127-0.0508-1.397-0.03387-0.77893-0.0508-1.3716-0.0508-1.778 0-0.6604 0.01693-1.1684 0.0508-1.524 0.0508-0.37253 0.13547-0.70273 0.254-0.9906 0.13547-0.33867 0.68179-0.508 1.0543-0.508 0.1524 0 0.254 0.0254 0.3048 0.0762s0.0762 0.14393 0.0762 0.2794c0 0.1016-0.04233 0.39793-0.127 0.889s-0.127 1.143-0.127 1.9558c0 0.62653 0.01693 1.3293 0.0508 2.1082l0.0254 0.6858c0.762-0.11853 2.2691-0.4318 4.5212-0.9398 0.13547-0.03387 0.24553-0.1524 0.3302-0.3556 0.1016-0.2032 0.2032-0.3048 0.3048-0.3048 0.18627 0 0.37253 0.11007 0.5588 0.3302 0.2032 0.2032 0.3048 0.41487 0.3048 0.635z"/>
   <path d="m73.092 61.686c0 0.6604-0.24553 1.4224-0.7366 2.286-0.49107 0.8636-1.1853 1.6087-2.0828 2.2352-0.89747 0.6096-1.9219 0.9144-3.0734 0.9144-1.1345 0-1.9727-0.31327-2.5146-0.9398-0.54187-0.62653-1.032-1.442-1.032-2.3733 0-0.8128 0.18047-1.8203 0.46834-3.0226 0.3048-1.2023 0.78294-2.2775 1.3248-3.2258 0.03387-0.06773 0.1876-0.38635 0.42467-0.80968 0.254-0.44027 0.56994-0.7522 0.87474-0.97233 0.3048-0.23707 0.69962-0.26425 1.0383-0.26425 0.1524 0 0.28787 0.04233 0.4064 0.127 0.13547 0.06773 0.2032 0.16087 0.2032 0.2794 0 0.03387-0.0508 0.11853-0.1524 0.254-0.08467 0.11853-0.1524 0.21167-0.2032 0.2794-0.57573 0.69427-0.84043 1.3801-1.196 2.0574-0.47413 0.8636-0.86494 1.737-1.1359 2.5837-0.254 0.84667-0.34446 1.6051-0.34446 2.6042 0 1.3377 0.41085 1.8604 2.0365 1.8604 0.762 0 1.4647-0.22013 2.1082-0.6604 0.6604-0.44027 0.96609-0.75442 1.3556-1.381 0.38947-0.64347 0.73036-1.1546 0.73036-1.6795 0-0.59267-0.23127-1.1091-0.62074-1.5494s-0.84978-0.72323-1.5271-1.2143c-0.44027-0.32173-0.74373-0.63901-0.94693-0.84221s-0.10383-0.50043-0.10383-0.63589c0-0.2032 0.14393-0.36407 0.4318-0.4826 0.28787-0.13547 0.62653-0.2032 1.016-0.2032 0.22013 0 0.36407 0.01693 0.4318 0.0508 0.06773 0.01693 0.1016 0.05927 0.1016 0.127 0 0.03387-0.03387 0.09313-0.1016 0.1778-0.0508 0.06773-0.0762 0.127-0.0762 0.1778s0.16933 0.22013 0.508 0.508c0.67733 0.5588 1.2446 1.1261 1.7018 1.7018s0.6858 1.2531 0.6858 2.032z"/>
   <path d="m83.855 56.25c0 0.1524 0.10956 0.52399-0.11058 0.72719-0.2032 0.18627-0.53603 0.33108-0.68843 0.33108-0.11853 0-0.30166-0.03788-0.4202-0.13948-0.1016-0.1016-0.22013-0.2197-0.3556-0.40596-0.11853-0.16933-0.25356-0.3391-0.45676-0.45764-0.18627-0.11853-0.40684-0.15196-0.61004-0.15196-0.49107 0-0.78973 0.57442-1.6195 1.8783-0.82973 1.2869-1.3325 2.8867-2.1283 4.851 0.01693 0.38947-0.3194 0.67383-0.28554 1.2665 0.0508 0.59267 0.08467 1.0329 0.1016 1.3208l0.0762 1.016c0 0.23707-0.10248 0.49194-0.20408 0.66128-0.1016 0.18627-0.54625 0.25356-0.81718 0.25356-0.28787 0-0.75835-0.43268-0.84302-1.1947-0.08467-0.77893-0.13547-1.905-0.1524-3.3782-0.01693-0.37253-0.03387-0.90593-0.0508-1.6002 0-0.69427-0.01693-1.524-0.0508-2.4892-0.0508-1.4563-0.0762-2.4977-0.0762-3.1242 0-0.38947 0.52129-0.53252 0.99542-0.53252 0.28787 0 0.4572 0.127 0.508 0.381 0.06773 0.23707 0.1016 0.70273 0.1016 1.397l-1e-6 4.0386c0.508-1.3039 1.0583-2.4299 1.651-3.3782s1.1684-1.6679 1.7272-2.159c0.57573-0.508 1.0837-0.762 1.524-0.762 0.37253 0 0.72813 0.08467 1.0668 0.254 0.33867 0.16933 0.6096 0.38947 0.8128 0.6604 0.2032 0.254 0.3048 0.49953 0.3048 0.7366z"/>
   <path d="m94.068 55.717c0 0.38947 0.16266 1.2361-0.02362 2.54-0.2032 1.4901-0.31327 2.3283-0.3302 2.5146-0.22013 2.0828-0.381 3.6745-0.4826 4.7752-0.08467 1.0837-0.127 2.0659-0.127 2.9464 0 0.72813 0.16042 1.1942 0.26202 1.6176 0.11853 0.42333 0.16398 0.79007 0.28252 1.0271 0.13547 0.254-0.08913 0.47948-0.08913 0.53028 0 0.1524-0.13547 0.28787-0.4064 0.4064s-0.55033 0.1778-0.8382 0.1778c-0.22013 0-0.39793-0.29633-0.5334-0.889-0.11853-0.59267-0.1778-1.5155-0.1778-2.7686 0-0.94827 0.09313-2.2267 0.2794-3.8354l0.381-3.5052c-0.4572 0.88053-1.0245 1.7272-1.7018 2.54-0.6604 0.79587-1.3462 1.1938-2.0574 1.1938-0.6604 0-1.2531-0.57573-1.778-1.7272s-0.9398-2.4553-1.2446-3.9116c-0.28787-1.4563-0.4318-2.5231-0.4318-3.2004 0-0.42333 0.127-0.635 0.381-0.635 0.37253 0 1.1212 0.12789 1.2228 0.82216 0.64347 4.7075 0.95628 6.7323 2.1077 6.7323 0.4572 0 0.74551 0.0049 1.0842-0.3507 0.3556-0.37253 0.40506-0.83018 0.87919-1.5922 0.22013-0.3556 0.4572-0.75665 0.7112-1.3493 0.254-0.59267 0.33911-1.0107 0.47458-1.4001l0.83554-2.4558c0.03387-0.38947 0.08467-0.6604 0.1524-0.8128 0.06773-0.16933 0.2032-0.254 0.4064-0.254 0.16933 0 0.33867 0.1016 0.508 0.3048 0.16933 0.18627 0.254 0.37253 0.254 0.5588z"/>
  </g>
  <path transform="scale(.26458)" d="m396.07 178.58c1.4913-0.41743 2.975-0.86493 4.4492-1.2773 0.96261-0.26928 1.7978-0.56498 2.7441-0.83594 0.0831-0.81565 0.29494-2.0153 0.35742-2.7695-0.34375-0.99415-0.79688-1.9246-1.3594-2.7891-0.53124-0.90771-1.1719-1.3613-1.9219-1.3613-0.625 0-1.2812 0.69105-1.9688 2.0742-0.65625 1.3832-1.3281 3.2865-2.0156 5.707-0.0975 0.35313-0.18837 0.87974-0.28516 1.252z" fill="#314455" style="font-feature-settings:normal;font-variant-caps:normal;font-variant-ligatures:normal;font-variant-numeric:normal"/>
  <path transform="scale(.26458)" d="m396.33 242.69c-0.055-1.3585-0.20898-2.4715-0.20898-3.9668 0-2.118 0.0469-4.3649 0.14062-6.7422 0.0937-2.4205 0.21876-4.8624 0.375-7.3262 0.1875-2.4638 0.40626-4.9056 0.65626-7.3262 0.28124-2.4638 0.60937-4.8419 0.98437-7.1328 1.3125-8.1693 2.4375-15.258 3.375-21.266 0.79266-4.916 1.2371-8.7951 1.6113-12.467-0.94637 0.27096-1.7815 0.56666-2.7441 0.83594-1.4742 0.41241-2.9579 0.85991-4.4492 1.2773-0.55482 2.1335-1.1046 4.4155-1.6367 7.1758-0.625 3.1986-1.2188 6.6558-1.7812 10.373s-1.0781 7.5876-1.5469 11.607c-0.46875 4.0198-0.87501 8.0175-1.2188 11.994-0.34374 3.9334-0.60937 7.7574-0.79687 11.475-0.1534 3.0058-0.20257 5.6984-0.23047 8.3281 0.04 0.0184 0.0851 0.0422 0.125 0.0605 2.6855 1.2326 4.9443 2.1123 7.3457 3.0996z" fill="#ff6567" style="font-feature-settings:normal;font-variant-caps:normal;font-variant-ligatures:normal;font-variant-numeric:normal"/>
  <path transform="scale(.26458)" d="m413.84 267.39c0.0326-0.0298 0.067-0.0422 0.0996-0.0723 1.7812-1.6425 3.4844-3.5014 5.1094-5.5762 1.6562-2.118 3.1094-4.3012 4.3594-6.5488 0.375-0.69159 0.79688-1.5564 1.2656-2.5938 0.49999-1.0374 0.96875-2.074 1.4062-3.1113 0.46875-1.0806 1.2063-1.9233 1.4875-2.8742 0.3125-0.99415 0.2616-1.2329 0.2616-1.7516-1e-5 -1.2535-0.23275-3.331-0.73274-3.331-0.125 0-1.573 0.0905-1.948 0.60921-0.375 0.47546 0.0559 1.9363-0.41287 2.6279-0.4375 0.64836-0.73362 1.3912-1.2336 2.126-0.46875 0.7348-0.875 1.339-1.2188 1.8144-1.0938 1.5128-2.2812 3.0687-3.5625 4.668-1.2812 1.5561-2.6406 3.0058-4.0781 4.3457-0.45268 0.41743-0.96471 0.67033-1.4336 1.043 0.32935 1.2113 0.70806 2.4172 0.82422 3.6524 0.1573 1.6727 0.056 3.3416-0.19336 4.9726z" fill="#ff6567" style="font-feature-settings:normal;font-variant-caps:normal;font-variant-ligatures:normal;font-variant-numeric:normal"/>
  <path transform="scale(.26458)" d="m413.84 267.39c0.2494-1.6311 0.35066-3.3 0.19336-4.9726-0.11616-1.2352-0.49487-2.441-0.82422-3.6524-0.98767 0.78494-1.96 1.6111-3.0195 2.1973-1.5625 0.82125-3.1406 1.2324-4.7344 1.2324-3.375 0-5.7812-2.0095-7.2187-6.0293-1.1283-3.2598-1.6774-7.961-1.9004-13.475-2.4014-0.98734-4.6602-1.867-7.3457-3.0996-0.0399-0.0183-0.085-0.0422-0.125-0.0605-6e-3 0.58464-0.0508 1.2855-0.0508 1.8516 0 5.014 0.28125 9.4885 0.84375 13.422 0.5625 3.8902 1.4219 7.1756 2.5781 9.8555 1.1875 2.6367 2.6875 4.6461 4.5 6.0293 1.8437 1.3832 4.0312 2.0742 6.5625 2.0742 1.6562 0 3.3906-0.49609 5.2031-1.4902 1.81-0.97595 3.5881-2.282 5.3379-3.8828z" fill="#314455" style="font-feature-settings:normal;font-variant-caps:normal;font-variant-ligatures:normal;font-variant-numeric:normal"/>
  <g transform="scale(1.0241 .97646)" fill="#314455" style="font-feature-settings:normal;font-variant-caps:normal;font-variant-ligatures:normal;font-variant-numeric:normal" aria-label="S">
   <path d="m53.45 67.805c0 1.4289-0.48584 2.8436-1.4575 4.2439-0.94309 1.3718-2.2863 2.4863-4.0296 3.3437-1.7147 0.88594-3.6723 1.3289-5.8729 1.3289-1.8576 0-3.3294-0.15718-4.4154-0.47155-1.086-0.28579-1.9317-0.48849-1.9317-1.0315 0-0.28579 0.0739-0.75733 0.474-1.4146 0.42868-0.68589 0.50503-0.92298 0.73366-0.92298 0.34294 0-0.1194 0.60869-0.1194 0.75158 0 0.08574 0.36468 0.27046 0.56632 0.3685 0.20164 0.09803 0.36821 0.16993 0.6018 0.22293 0.23359 0.053 0.44415 0.12646 0.79015 0.19123 0.346 0.06477 0.63003 0.12494 1.2875 0.17167 0.6575 0.04673 1.5987 0.02469 2.6561 0.02469 1.6861 0 3.1579-0.44773 4.4154-1.105 1.286-0.65731 2.272-1.4861 2.9579-2.4863 0.68589-1.0002 1.0288-1.9719 1.0288-2.915 0-1.2289-0.60015-2.2863-1.8005-3.1722-1.1717-0.88594-3.0365-1.9161-5.6657-2.7163-2.5435-0.82878-4.4441-1.5521-5.8444-2.0951-1.3718-0.57157-2.4863-1.1078-3.3437-1.908-0.85736-0.82878-1.3931-1.7542-1.3931-2.9259 0-1.5718 0.88594-3.1151 2.6578-4.6297 1.7719-1.5432 3.9581-2.7864 6.5588-3.7295 2.6007-0.97167 5.0155-1.4575 7.2447-1.4575 1.1431 0 1.7576 0.22863 1.8433 0.68589 0.08573 0.45726 0.1286 0.97167 0.1286 1.5432 0 0.42868-0.15718 0.64302-0.47155 0.64302-0.14289 0-0.31436-0.04287-0.51442-0.1286-0.17147-0.11431-0.32865-0.20005-0.47155-0.25721-0.17147-0.05716-0.37152-0.11432-0.60015-0.17147-0.22863-0.05715-0.55728-0.08573-0.98596-0.08573-1.4861 0-3.2722 0.38581-5.3585 1.1574-2.0862 0.77162-3.901 1.729-5.4442 2.8721-1.5147 1.1431-2.272 2.2434-2.272 3.3008 0 0.85736 0.34294 1.6004 1.0288 2.2291 0.71446 0.62873 1.6576 1.1717 2.8293 1.629 1.1717 0.42868 2.8293 0.97167 4.9727 1.629 3.1436 0.91452 5.4585 1.9433 6.9446 3.0865 1.5147 1.1431 2.272 2.5435 2.272 4.2011z" fill="#314455" stroke-width=".50236"/>
  </g>
 </g>
</svg>
