<?xml version="1.0" encoding="UTF-8" standalone="no"?>
<!-- Created with Inkscape (http://www.inkscape.org/) -->

<svg
   xmlns:dc="http://purl.org/dc/elements/1.1/"
   xmlns:cc="http://creativecommons.org/ns#"
   xmlns:rdf="http://www.w3.org/1999/02/22-rdf-syntax-ns#"
   xmlns:svg="http://www.w3.org/2000/svg"
   xmlns="http://www.w3.org/2000/svg"
   xmlns:sodipodi="http://sodipodi.sourceforge.net/DTD/sodipodi-0.dtd"
   xmlns:inkscape="http://www.inkscape.org/namespaces/inkscape"
   width="53.348515mm"
   height="58.352283mm"
   viewBox="0 0 53.348515 58.352283"
   version="1.1"
   id="svg8"
   inkscape:version="0.92.4 (5da689c313, 2019-01-14)"
   sodipodi:docname="story.svg">
  <defs
     id="defs2">
    <marker
       inkscape:isstock="true"
       style="overflow:visible"
       id="marker9352"
       refX="0"
       refY="0"
       orient="auto"
       inkscape:stockid="DotL">
      <path
         inkscape:connector-curvature="0"
         transform="matrix(0.8,0,0,0.8,5.92,0.8)"
         style="fill:#000000;fill-opacity:1;fill-rule:evenodd;stroke:#000000;stroke-width:1.00000003pt;stroke-opacity:1"
         d="m -2.5,-1 c 0,2.76 -2.24,5 -5,5 -2.76,0 -5,-2.24 -5,-5 0,-2.76 2.24,-5 5,-5 2.76,0 5,2.24 5,5 z"
         id="path9350" />
    </marker>
    <marker
       inkscape:stockid="DotL"
       orient="auto"
       refY="0"
       refX="0"
       id="marker9130"
       style="overflow:visible"
       inkscape:isstock="true"
       inkscape:collect="always">
      <path
         id="path9128"
         d="m -2.5,-1 c 0,2.76 -2.24,5 -5,5 -2.76,0 -5,-2.24 -5,-5 0,-2.76 2.24,-5 5,-5 2.76,0 5,2.24 5,5 z"
         style="fill:#000000;fill-opacity:1;fill-rule:evenodd;stroke:#000000;stroke-width:1.00000003pt;stroke-opacity:1"
         transform="matrix(0.8,0,0,0.8,5.92,0.8)"
         inkscape:connector-curvature="0" />
    </marker>
    <marker
       inkscape:isstock="true"
       style="overflow:visible"
       id="marker5265"
       refX="0"
       refY="0"
       orient="auto"
       inkscape:stockid="DotL"
       inkscape:collect="always">
      <path
         transform="matrix(0.8,0,0,0.8,5.92,0.8)"
         style="fill:#000000;fill-opacity:1;fill-rule:evenodd;stroke:#000000;stroke-width:1.00000003pt;stroke-opacity:1"
         d="m -2.5,-1 c 0,2.76 -2.24,5 -5,5 -2.76,0 -5,-2.24 -5,-5 0,-2.76 2.24,-5 5,-5 2.76,0 5,2.24 5,5 z"
         id="path5263"
         inkscape:connector-curvature="0" />
    </marker>
    <marker
       inkscape:stockid="EmptyDiamondLstart"
       orient="auto"
       refY="0"
       refX="0"
       id="EmptyDiamondLstart"
       style="overflow:visible"
       inkscape:isstock="true">
      <path
         id="path4677"
         d="M 0,-7.0710768 -7.0710894,0 0,7.0710589 7.0710462,0 Z"
         style="fill:#ffffff;fill-rule:evenodd;stroke:#000000;stroke-width:1.00000003pt;stroke-opacity:1"
         transform="matrix(0.8,0,0,0.8,5.6,0)"
         inkscape:connector-curvature="0" />
    </marker>
    <marker
       inkscape:stockid="CurveOut"
       orient="auto"
       refY="0"
       refX="0"
       id="CurveOut"
       style="overflow:visible"
       inkscape:isstock="true">
      <path
         id="path4749"
         d="m -5.4129913,-5.0456926 c 2.76,0 4.99999999,2.24 4.99999999,5.00000002 0,2.75999998 -2.23999999,4.99999998 -4.99999999,4.99999998"
         style="fill:none;fill-rule:evenodd;stroke:#000000;stroke-width:1.00000003pt;stroke-opacity:1"
         transform="scale(0.6)"
         inkscape:connector-curvature="0" />
    </marker>
    <marker
       inkscape:isstock="true"
       style="overflow:visible"
       id="marker5042"
       refX="0"
       refY="0"
       orient="auto"
       inkscape:stockid="DotL">
      <path
         transform="matrix(0.8,0,0,0.8,5.92,0.8)"
         style="fill:#000000;fill-opacity:1;fill-rule:evenodd;stroke:#000000;stroke-width:1.00000003pt;stroke-opacity:1"
         d="m -2.5,-1 c 0,2.76 -2.24,5 -5,5 -2.76,0 -5,-2.24 -5,-5 0,-2.76 2.24,-5 5,-5 2.76,0 5,2.24 5,5 z"
         id="path5040"
         inkscape:connector-curvature="0" />
    </marker>
    <marker
       inkscape:stockid="DotL"
       orient="auto"
       refY="0"
       refX="0"
       id="DotL"
       style="overflow:visible"
       inkscape:isstock="true"
       inkscape:collect="always">
      <path
         id="path4623"
         d="m -2.5,-1 c 0,2.76 -2.24,5 -5,5 -2.76,0 -5,-2.24 -5,-5 0,-2.76 2.24,-5 5,-5 2.76,0 5,2.24 5,5 z"
         style="fill:#000000;fill-opacity:1;fill-rule:evenodd;stroke:#000000;stroke-width:1.00000003pt;stroke-opacity:1"
         transform="matrix(0.8,0,0,0.8,5.92,0.8)"
         inkscape:connector-curvature="0" />
    </marker>
    <marker
       inkscape:stockid="Arrow2Lend"
       orient="auto"
       refY="0"
       refX="0"
       id="Arrow2Lend"
       style="overflow:visible"
       inkscape:isstock="true">
      <path
         id="path4583"
         style="fill:#000000;fill-opacity:1;fill-rule:evenodd;stroke:#000000;stroke-width:0.625;stroke-linejoin:round;stroke-opacity:1"
         d="M 8.7185878,4.0337352 -2.2072895,0.01601326 8.7185884,-4.0017078 c -1.7454984,2.3720609 -1.7354408,5.6174519 -6e-7,8.035443 z"
         transform="matrix(-1.1,0,0,-1.1,-1.1,0)"
         inkscape:connector-curvature="0" />
    </marker>
    <marker
       inkscape:stockid="Arrow1Mend"
       orient="auto"
       refY="0"
       refX="0"
       id="Arrow1Mend"
       style="overflow:visible"
       inkscape:isstock="true">
      <path
         id="path4571"
         d="M 0,0 5,-5 -12.5,0 5,5 Z"
         style="fill:#000000;fill-opacity:1;fill-rule:evenodd;stroke:#000000;stroke-width:1.00000003pt;stroke-opacity:1"
         transform="matrix(-0.4,0,0,-0.4,-4,0)"
         inkscape:connector-curvature="0" />
    </marker>
    <marker
       inkscape:stockid="Arrow1Mstart"
       orient="auto"
       refY="0"
       refX="0"
       id="Arrow1Mstart"
       style="overflow:visible"
       inkscape:isstock="true">
      <path
         id="path4568"
         d="M 0,0 5,-5 -12.5,0 5,5 Z"
         style="fill:#000000;fill-opacity:1;fill-rule:evenodd;stroke:#000000;stroke-width:1.00000003pt;stroke-opacity:1"
         transform="matrix(0.4,0,0,0.4,4,0)"
         inkscape:connector-curvature="0" />
    </marker>
    <marker
       inkscape:stockid="Arrow1Sstart"
       orient="auto"
       refY="0"
       refX="0"
       id="Arrow1Sstart"
       style="overflow:visible"
       inkscape:isstock="true">
      <path
         id="path4574"
         d="M 0,0 5,-5 -12.5,0 5,5 Z"
         style="fill:#000000;fill-opacity:1;fill-rule:evenodd;stroke:#000000;stroke-width:1.00000003pt;stroke-opacity:1"
         transform="matrix(0.2,0,0,0.2,1.2,0)"
         inkscape:connector-curvature="0" />
    </marker>
    <marker
       inkscape:stockid="Arrow1Lstart"
       orient="auto"
       refY="0"
       refX="0"
       id="Arrow1Lstart"
       style="overflow:visible"
       inkscape:isstock="true">
      <path
         id="path4562"
         d="M 0,0 5,-5 -12.5,0 5,5 Z"
         style="fill:#000000;fill-opacity:1;fill-rule:evenodd;stroke:#000000;stroke-width:1.00000003pt;stroke-opacity:1"
         transform="matrix(0.8,0,0,0.8,10,0)"
         inkscape:connector-curvature="0" />
    </marker>
  </defs>
  <sodipodi:namedview
     id="base"
     pagecolor="#ffffff"
     bordercolor="#666666"
     borderopacity="1.0"
     inkscape:pageopacity="0.0"
     inkscape:pageshadow="2"
     inkscape:zoom="1.5203125"
     inkscape:cx="92.447244"
     inkscape:cy="105.41001"
     inkscape:document-units="mm"
     inkscape:current-layer="layer1"
     showgrid="true"
     inkscape:snap-center="false"
     inkscape:snap-object-midpoints="false"
     inkscape:snap-bbox="true"
     inkscape:bbox-paths="true"
     inkscape:bbox-nodes="true"
     inkscape:snap-bbox-edge-midpoints="true"
     inkscape:snap-bbox-midpoints="true"
     inkscape:snap-grids="true"
     inkscape:snap-intersection-paths="true"
     inkscape:snap-page="false"
     inkscape:snap-text-baseline="false"
     inkscape:snap-to-guides="true"
     inkscape:window-width="1366"
     inkscape:window-height="705"
     inkscape:window-x="-8"
     inkscape:window-y="-8"
     inkscape:window-maximized="1"
     fit-margin-top="0"
     fit-margin-left="0"
     fit-margin-right="0"
     fit-margin-bottom="0">
    <inkscape:grid
       type="xygrid"
       id="grid841"
       originx="-39.399601"
       originy="-79.374997" />
  </sodipodi:namedview>
  <metadata
     id="metadata5">
    <rdf:RDF>
      <cc:Work
         rdf:about="">
        <dc:format>image/svg+xml</dc:format>
        <dc:type
           rdf:resource="http://purl.org/dc/dcmitype/StillImage" />
        <dc:title></dc:title>
      </cc:Work>
    </rdf:RDF>
  </metadata>
  <g
     inkscape:label="Capa 1"
     inkscape:groupmode="layer"
     id="layer1"
     transform="translate(-39.399602,-159.27272)">
    <path
       style="display:inline;fill:none;fill-rule:evenodd;stroke:#000000;stroke-width:0.36500001;stroke-linecap:butt;stroke-linejoin:miter;stroke-miterlimit:4;stroke-dasharray:none;stroke-opacity:1;marker-end:url(#marker5042)"
       d="m 55.013238,169.49789 22.12124,6.29589"
       id="path4558"
       inkscape:connector-type="polyline"
       inkscape:connector-curvature="0"
       inkscape:connection-start="#path815"
       inkscape:connection-end="#path815-0" />
    <path
       style="display:inline;fill:none;fill-rule:evenodd;stroke:#000000;stroke-width:0.36500001;stroke-linecap:butt;stroke-linejoin:round;stroke-miterlimit:4;stroke-dasharray:none;stroke-opacity:1;marker-end:url(#DotL);paint-order:normal"
       d="M 77.144325,180.11597 55.14734,186.48631"
       id="path4560"
       inkscape:connector-type="polyline"
       inkscape:connector-curvature="0"
       sodipodi:nodetypes="cc"
       inkscape:connection-end="#circle837"
       inkscape:connection-start="#path815-0" />
    <text
       xml:space="preserve"
       style="font-style:normal;font-variant:normal;font-weight:normal;font-stretch:normal;font-size:10.58333302px;line-height:1.25;font-family:'Ink Free';-inkscape-font-specification:'Ink Free, Normal';font-variant-ligatures:normal;font-variant-caps:normal;font-variant-numeric:normal;font-feature-settings:normal;text-align:start;letter-spacing:0px;word-spacing:0px;writing-mode:lr-tb;text-anchor:start;fill:#000000;fill-opacity:1;stroke:none;stroke-width:0.26458332"
       x="17.197916"
       y="199.10417"
       id="text6249"><tspan
         sodipodi:role="line"
         id="tspan6247"
         x="17.197916"
         y="208.57283"
         style="stroke-width:0.26458332" /></text>
    <path
       style="fill:none;fill-rule:evenodd;stroke:#000000;stroke-width:0.36500001;stroke-linecap:butt;stroke-linejoin:miter;stroke-miterlimit:4;stroke-dasharray:none;stroke-opacity:1;marker-end:url(#marker5265)"
       d="m 55.149677,190.835 21.99231,6.34289"
       id="path9106"
       inkscape:connector-type="polyline"
       inkscape:connector-curvature="0"
       inkscape:connection-start="#circle837"
       inkscape:connection-end="#circle837-2" />
    <path
       style="fill:none;fill-rule:evenodd;stroke:#000000;stroke-width:0.36500001;stroke-linecap:butt;stroke-linejoin:miter;stroke-miterlimit:4;stroke-dasharray:none;stroke-opacity:1;marker-end:url(#marker9130)"
       d="M 77.123641,201.45359 55.15984,207.58431"
       id="path9120"
       inkscape:connector-type="polyline"
       inkscape:connector-curvature="0"
       inkscape:connection-start="#circle837-2"
       inkscape:connection-end="#circle837-2-9" />
    <circle
       style="opacity:1;fill:none;fill-opacity:1;fill-rule:nonzero;stroke:#000000;stroke-width:0.7;stroke-miterlimit:4;stroke-dasharray:none;stroke-dashoffset:0;stroke-opacity:1;paint-order:normal"
       id="path815"
       cx="47.481052"
       cy="167.35417"
       r="7.831449" />
    <g
       aria-label="S"
       style="font-style:normal;font-variant:normal;font-weight:normal;font-stretch:normal;font-size:10.58333302px;line-height:1.25;font-family:'Ink Free';-inkscape-font-specification:'Ink Free, Normal';font-variant-ligatures:normal;font-variant-caps:normal;font-variant-numeric:normal;font-feature-settings:normal;text-align:start;letter-spacing:0px;word-spacing:0px;writing-mode:lr-tb;text-anchor:start;fill:#000000;fill-opacity:1;stroke:#000000;stroke-width:0.5;stroke-miterlimit:4;stroke-dasharray:none;stroke-opacity:1"
       id="text9212"
       transform="translate(-0.14394903,6.7585398)">
      <path
         inkscape:connector-curvature="0"
         d="m 50.13854,162.25192 q 0,0.52917 -0.359833,1.04775 -0.34925,0.508 -0.994833,0.8255 -0.635,0.32808 -1.449917,0.32808 -0.687916,0 -1.090083,-0.11641 -0.402167,-0.10584 -0.402167,-0.30692 0,-0.10583 0.148167,-0.34925 0.15875,-0.254 0.243417,-0.254 0.127,0 0.127,0.0529 0,0.0317 -0.04233,0.0741 -0.03175,0.0423 -0.03175,0.0847 0,0.0317 0.127,0.0952 0.137584,0.0635 0.41275,0.11641 0.275167,0.0529 0.66675,0.0529 0.624417,0 1.090084,-0.24342 0.47625,-0.24341 0.73025,-0.61383 0.253999,-0.37042 0.253999,-0.71967 0,-0.45508 -0.444499,-0.78316 -0.433917,-0.32809 -1.407584,-0.62442 -0.941916,-0.30692 -1.4605,-0.508 -0.508,-0.21167 -0.8255,-0.508 -0.3175,-0.30692 -0.3175,-0.74083 0,-0.58209 0.656167,-1.143 0.656167,-0.5715 1.61925,-0.92075 0.963083,-0.35984 1.788583,-0.35984 0.423333,0 0.455083,0.16934 0.03175,0.16933 0.03175,0.381 0,0.15875 -0.116416,0.15875 -0.05292,0 -0.127,-0.0318 -0.0635,-0.0423 -0.116417,-0.0635 -0.0635,-0.0212 -0.148166,-0.0423 -0.08467,-0.0212 -0.243417,-0.0212 -0.550333,0 -1.322917,0.28575 -0.772583,0.28575 -1.344083,0.70908 -0.560917,0.42333 -0.560917,0.81492 0,0.3175 0.254,0.55033 0.264584,0.23283 0.6985,0.40217 0.433917,0.15875 1.227667,0.40216 1.164167,0.33867 1.7145,0.762 0.560916,0.42334 0.560916,1.03717 z"
         style="fill:#000000;fill-opacity:1;stroke:#000000;stroke-width:0.5;stroke-miterlimit:4;stroke-dasharray:none;stroke-opacity:1"
         id="path9246" />
    </g>
    <circle
       style="opacity:1;fill:none;fill-opacity:1;fill-rule:nonzero;stroke:#000000;stroke-width:0.7;stroke-miterlimit:4;stroke-dasharray:none;stroke-dashoffset:0;stroke-opacity:1;paint-order:normal"
       id="path815-0"
       cx="84.666664"
       cy="177.9375"
       r="7.831449" />
    <g
       aria-label="T"
       style="font-style:normal;font-variant:normal;font-weight:normal;font-stretch:normal;font-size:10.58333302px;line-height:1.25;font-family:'Ink Free';-inkscape-font-specification:'Ink Free, Normal';font-variant-ligatures:normal;font-variant-caps:normal;font-variant-numeric:normal;font-feature-settings:normal;text-align:start;letter-spacing:0px;word-spacing:0px;writing-mode:lr-tb;text-anchor:start;fill:#000000;fill-opacity:1;stroke:#000000;stroke-width:0.5;stroke-opacity:1;stroke-miterlimit:4;stroke-dasharray:none"
       id="text9216"
       transform="translate(2.5431315e-6,1.4668732)">
      <path
         inkscape:connector-curvature="0"
         d="m 88.291453,173.58137 q 0,0.0847 -0.07408,0.17992 -0.07408,0.0847 -0.1905,0.0847 -0.03175,0 -0.22225,-0.0529 -0.179917,-0.0635 -0.338667,-0.0635 -0.508,0 -1.153583,0.0529 -0.645583,0.0529 -1.068917,0.14816 0.03175,0.508 0.05292,1.60867 0.03175,1.09008 0.03175,2.29658 0,0.508 -0.02117,1.13242 -0.01058,0.62442 -0.04233,0.77258 -0.02117,0.11642 -0.148167,0.1905 -0.116416,0.0741 -0.243416,0.0741 -0.07408,0 -0.127,-0.0635 -0.05292,-0.0635 -0.05292,-0.14817 l 0.01058,-0.37042 q 0.0635,-0.8255 0.0635,-2.032 0,-0.86783 -0.02117,-1.97908 -0.02117,-1.12183 -0.04233,-1.38642 -2.116666,0.23284 -2.82575,0.43392 -0.127,0.0423 -0.28575,0.0423 -0.1905,0 -0.370416,-0.13758 -0.179917,-0.13758 -0.179917,-0.29633 0,-0.10584 0.0635,-0.14817 0.0635,-0.0529 0.15875,-0.0529 0.60325,-0.0317 1.016,-0.0635 0.941917,-0.0847 2.370667,-0.26458 0,-0.32808 0.01058,-0.46567 0.02117,-0.13758 0.07408,-0.13758 0.201084,0 0.359834,0.15875 0.03175,0.0318 0.05292,0.16933 0.02117,0.127 0.02117,0.16934 0.232833,-0.0106 0.762,-0.10584 1.143,-0.17991 1.566333,-0.17991 0.508,0 0.677334,0.127 0.116416,0.0847 0.116416,0.30691 z"
         style="stroke-width:0.5;stroke:#000000;stroke-opacity:1;stroke-miterlimit:4;stroke-dasharray:none"
         id="path9249" />
    </g>
    <circle
       r="7.831449"
       cy="188.66478"
       cx="47.625"
       id="circle837"
       style="opacity:1;fill:none;fill-opacity:1;fill-rule:nonzero;stroke:#000000;stroke-width:0.7;stroke-miterlimit:4;stroke-dasharray:none;stroke-dashoffset:0;stroke-opacity:1;paint-order:normal" />
    <g
       aria-label="O"
       style="font-style:normal;font-variant:normal;font-weight:normal;font-stretch:normal;font-size:10.58333302px;line-height:1.25;font-family:'Ink Free';-inkscape-font-specification:'Ink Free, Normal';font-variant-ligatures:normal;font-variant-caps:normal;font-variant-numeric:normal;font-feature-settings:normal;text-align:start;letter-spacing:0px;word-spacing:0px;writing-mode:lr-tb;text-anchor:start;fill:#000000;fill-opacity:1;stroke:#000000;stroke-width:0.5;stroke-opacity:1;stroke-miterlimit:4;stroke-dasharray:none"
       id="text9220"
       transform="translate(-2.6399408e-7,-2.6458446)">
      <path
         inkscape:connector-curvature="0"
         d="m 50.805291,190.40575 q 0,1.09009 -0.613834,2.08492 -0.613833,0.99483 -1.576916,1.60867 -0.963083,0.61383 -1.947333,0.61383 -0.5715,0 -1.0795,-0.23283 -0.508,-0.24342 -0.8255,-0.70909 -0.3175,-0.46566 -0.3175,-1.12183 0,-1.12183 0.582083,-2.31775 0.582083,-1.2065 1.61925,-2.26483 0.105833,-0.0953 0.201083,-0.127 0.09525,-0.0318 0.22225,-0.0318 0.105834,0 0.201084,0.0529 0.105833,0.0529 0.105833,0.127 0,0.0423 -0.04233,0.127 -0.03175,0.0741 -0.04233,0.0952 0.0635,0 0.148167,-0.0106 0.09525,-0.0212 0.359833,-0.0212 0.306917,0 0.8255,0.10584 0.529167,0.0952 0.772583,0.20108 0.687917,0.30692 1.04775,0.79375 0.359834,0.47625 0.359834,1.02658 z m -0.455084,0.22225 q 0,-0.61383 -0.28575,-0.99483 -0.28575,-0.39158 -0.846666,-0.64558 -0.306917,-0.13759 -0.772583,-0.13759 -0.148167,0 -0.402167,0.0212 l -0.391583,0.0106 q -0.508,0 -0.508,-0.21166 0,-0.0741 0.01058,-0.13759 0.01058,-0.0635 0.02117,-0.0847 -0.22225,0 -0.359834,0.127 -0.867833,0.89958 -1.344083,1.91558 -0.465667,1.016 -0.465667,1.97908 0,0.89959 0.4445,1.31234 0.455084,0.40216 1.23825,0.40216 0.889,0 1.735667,-0.508 0.85725,-0.508 1.386416,-1.3335 0.53975,-0.8255 0.53975,-1.7145 z"
         style="stroke-width:0.5;stroke:#000000;stroke-opacity:1;stroke-miterlimit:4;stroke-dasharray:none"
         id="path9252" />
    </g>
    <circle
       r="7.831449"
       cy="199.34811"
       cx="84.666664"
       id="circle837-2"
       style="opacity:1;fill:none;fill-opacity:1;fill-rule:nonzero;stroke:#000000;stroke-width:0.69999999;stroke-miterlimit:4;stroke-dasharray:none;stroke-dashoffset:0;stroke-opacity:1;paint-order:normal" />
    <path
       id="path9255"
       style="font-style:normal;font-variant:normal;font-weight:normal;font-stretch:normal;font-size:10.58333302px;line-height:1.25;font-family:'Ink Free';-inkscape-font-specification:'Ink Free, Normal';font-variant-ligatures:normal;font-variant-caps:normal;font-variant-numeric:normal;font-feature-settings:normal;text-align:start;letter-spacing:0px;word-spacing:0px;writing-mode:lr-tb;text-anchor:start;fill:#000000;fill-opacity:1;stroke:#000000;stroke-width:0.5;stroke-miterlimit:4;stroke-dasharray:none;stroke-opacity:1"
       d="m 88.571921,201.69814 q 0,0.127 -0.105834,0.30692 -0.105833,0.17992 -0.22225,0.17992 -0.105833,0 -0.201083,-0.0318 -0.09525,-0.0423 -0.28575,-0.14817 -0.66675,-0.39158 -1.74625,-0.762 -0.47625,-0.15875 -1.132416,-0.32808 -0.645584,-0.17992 -1.016,-0.26459 l 0.07408,1.36525 q 0.01058,0.28575 0.07408,0.47625 0.0635,0.20109 0.0635,0.254 0,0.11642 -0.116416,0.1905 -0.116417,0.0847 -0.243417,0.0847 -0.15875,0 -0.201083,-0.22225 0,-0.0212 -0.03175,-0.1905 -0.02117,-0.16933 -0.02117,-0.47625 0,-0.20108 -0.04233,-0.85725 -0.01058,-0.22225 -0.02117,-0.42333 -0.01058,-0.21167 -0.01058,-0.37042 -0.03175,-0.0317 -0.08467,-0.0741 -0.04233,-0.0423 -0.07408,-0.11642 -0.03175,-0.0953 -0.05292,-0.20108 -0.02117,-0.10584 -0.02117,-0.15875 0,-0.0741 0.04233,-0.11642 0.04233,-0.0423 0.127,-0.0952 -0.0635,-2.64583 -0.0635,-3.02683 0,-0.33867 0.01058,-0.62442 0.01058,-0.28575 0.01058,-0.381 -0.0635,0.0106 -0.381,0.0529 -0.3175,0.0423 -0.508,0.0847 -0.677333,0.15875 -1.026583,0.30692 -0.359833,0.13758 -0.687917,0.3175 -0.09525,0.0635 -0.179916,0.10583 -0.09525,0.0318 -0.179917,0.0318 -0.08467,0 -0.148167,-0.0741 -0.0635,-0.0847 -0.0635,-0.20108 0,-0.20109 0.677334,-0.46567 0.677333,-0.26458 1.471083,-0.43392 0.4445,-0.0952 1.132417,-0.15875 0.687916,-0.0741 1.280583,-0.0741 1.016,0 1.725083,0.22225 0.719667,0.22225 1.0795,0.62442 0.370417,0.40216 0.370417,0.92075 0,0.66675 -0.381,1.143 -0.381,0.47625 -1.016,0.8255 -0.624417,0.34925 -1.703917,0.79375 -0.275166,0.127 -0.550333,0.23283 -0.264583,0.10583 -0.359833,0.14817 0,0.0635 0.01058,0.0953 1.143,0.254 2.25425,0.58208 l 0.22225,0.0635 q 1.153583,0.34925 1.703916,0.55033 0.550334,0.1905 0.550334,0.3175 z m -1.259417,-4.75191 q 0,-0.34925 -0.306916,-0.64559 -0.306917,-0.29633 -0.931334,-0.47625 -0.613833,-0.1905 -1.49225,-0.1905 -0.656166,0 -0.8255,0.0212 -0.01058,0.0741 -0.03175,0.34925 -0.01058,0.27517 -0.01058,0.55033 l 0.04233,1.69334 0.04233,1.31233 q 0.09525,-0.0106 0.370416,-0.0952 0.28575,-0.0952 0.47625,-0.17992 1.344084,-0.53975 2.00025,-1.0795 0.66675,-0.55033 0.66675,-1.25941 z"
       inkscape:connector-curvature="0" />
    <ellipse
       cy="209.6875"
       cx="47.625"
       id="circle837-2-9"
       style="opacity:1;fill:none;fill-opacity:1;fill-rule:nonzero;stroke:#000000;stroke-width:0.7;stroke-miterlimit:4;stroke-dasharray:none;stroke-dashoffset:0;stroke-opacity:1;paint-order:normal"
       rx="7.8336859"
       ry="7.6897383" />
    <g
       aria-label="Y"
       style="font-style:normal;font-variant:normal;font-weight:normal;font-stretch:normal;font-size:10.58333302px;line-height:1.25;font-family:'Ink Free';-inkscape-font-specification:'Ink Free, Normal';font-variant-ligatures:normal;font-variant-caps:normal;font-variant-numeric:normal;font-feature-settings:normal;text-align:start;letter-spacing:0px;word-spacing:0px;writing-mode:lr-tb;text-anchor:start;fill:#000000;fill-opacity:1;stroke:#000000;stroke-width:0.5;stroke-opacity:1;stroke-miterlimit:4;stroke-dasharray:none"
       id="text9228"
       transform="translate(0,-13.229172)">
      <path
         inkscape:connector-curvature="0"
         d="m 49.958624,219.56176 q 0,0.17992 -0.0635,0.381 -0.0635,0.20109 -0.211667,0.59267 -0.116416,0.27517 -0.296333,0.79375 -0.465667,1.36525 -0.709083,3.01625 -0.03175,0.27517 -0.0635,0.59267 -0.03175,0.3175 -0.03175,0.53975 0,0.127 0.07408,0.24341 0.08467,0.11642 0.08467,0.14817 0,0.0635 -0.137584,0.23283 -0.137583,0.15875 -0.306916,0.29634 -0.169334,0.13758 -0.275167,0.13758 -0.211667,0 -0.211667,-0.17992 0,-0.23283 0.264584,-1.5875 0.264583,-1.36525 0.4445,-2.0955 -0.254,0.28575 -0.455084,0.4445 -0.201083,0.15875 -0.497416,0.15875 -0.423334,0 -0.85725,-0.66675 -0.433917,-0.67733 -0.867833,-1.61925 l -0.105834,-0.21166 q -0.148166,-0.30692 -0.296333,-0.52917 -0.148167,-0.22225 -0.148167,-0.254 0,-0.0529 0.07408,-0.0741 0.08467,-0.0318 0.179916,-0.0318 0.34925,0 0.624417,0.66675 0.381,0.91016 0.751416,1.57691 0.381,0.65617 0.783167,0.65617 0.264583,0 0.465667,-0.17992 0.201083,-0.17991 0.328083,-0.42333 0.116417,-0.22225 0.275167,-0.635 0.169333,-0.41275 0.254,-0.67733 0.338666,-1.016 0.370416,-1.17475 0.05292,-0.22225 0.09525,-0.30692 0.04233,-0.0952 0.137584,-0.0952 0.116416,0 0.22225,0.0847 0.105833,0.0741 0.105833,0.17991 z"
         style="stroke-width:0.5;stroke:#000000;stroke-opacity:1;stroke-miterlimit:4;stroke-dasharray:none"
         id="path9258" />
    </g>
  </g>
</svg>
