<?xml version="1.0" encoding="UTF-8"?>
<!-- Created with Inkscape (http://www.inkscape.org/) -->
<svg width="140.66mm" height="29.39mm" version="1.1" viewBox="0 0 140.66 29.39" xmlns="http://www.w3.org/2000/svg" xmlns:cc="http://creativecommons.org/ns#" xmlns:dc="http://purl.org/dc/elements/1.1/" xmlns:rdf="http://www.w3.org/1999/02/22-rdf-syntax-ns#">
 <metadata>
  <rdf:RDF>
   <cc:Work rdf:about="">
    <dc:format>image/svg+xml</dc:format>
    <dc:type rdf:resource="http://purl.org/dc/dcmitype/StillImage"/>
    <dc:title/>
   </cc:Work>
  </rdf:RDF>
 </metadata>
 <g transform="translate(-10.306 -55.425)">
  <g fill="#314455">
   <path d="m110.58 62.406c-0.56575 0.08808-1.1071 0.19521-1.6221 0.32246-0.20031 0.16091-0.39302 0.34065-0.52039 0.52555-0.22049 0.32338-0.16639 0.88476-0.16639 1.2449 0 0.19844 0.59651 0.61563 0.94929 0.70383 0.36012 0.08819 0.70545 0.0041 0.99942 0.0041 0.47038 0 0.80856-0.27842 1.0511-0.6165 0.24988-0.33808 0.41187-0.47158 0.41187-0.9493 0-0.36013-0.0595-0.57705-0.28733-0.6873-0.22784-0.11759-0.35002-0.54209-0.76894-0.54209-3e-3 0-0.0404-0.0051-0.0465-0.0057zm27.051 0.18604c-0.01 3e-3 -0.0182 4e-3 -0.0279 0.0072-0.15434 0.0441-0.30168 0.10674-0.44132 0.18759-0.1323 0.08084-0.24608 0.17604-0.34158 0.28629s-0.14751 0.22801-0.15451 0.35295l-0.0879 1.0806c-7e-3 0.10289-0.0224 0.27928-0.0444 0.52917-0.0147 0.24988-0.0368 0.53652-0.0661 0.8599-0.0221 0.32338-0.0476 0.66864-0.077 1.0361-0.0294 0.36013-0.059 0.70538-0.0884 1.0361-0.022 0.33073-0.0442 0.62838-0.0661 0.89297-0.0221 0.26458-0.0401 0.46302-0.0548 0.59531-0.0155 0.10354-0.0479 0.31016-0.078 0.50488-0.0427 0.07766-0.10139 0.29118-0.15709 0.38706-0.12495 0.22784-0.23909 0.32108-0.41548 0.60772-0.17639 0.27928-0.37482 0.58044-0.59531 0.90382-0.21314 0.31603-0.44466 0.62821-0.69454 0.93689-0.38953 0.49242-0.81194 0.95946-1.2676 1.4004-0.44832 0.44097-0.91134 0.83032-1.3891 1.1684-0.47772 0.33073-0.96681 0.59531-1.4666 0.79375-0.49241 0.19108-0.98099 0.2868-1.4661 0.2868-0.13229 0-0.24598-0.03709-0.34158-0.11059-0.0955-0.08084-0.17668-0.17604-0.24288-0.28629-0.0587-0.1176-0.10644-0.23886-0.14314-0.3638-0.0294-0.12494-0.0439-0.2392-0.0439-0.3421 0-0.31603 0.018-0.70888 0.0548-1.1793 0.0441-0.47772 0.0882-0.96681 0.13229-1.4666 0.0515-0.50712 0.0955-0.99569 0.13229-1.4661 0.0441-0.47037 0.0662-0.85972 0.0662-1.1684 0-0.08085-0.0291-0.17656-0.0879-0.2868-0.0588-0.11024-0.13246-0.21297-0.22066-0.30851-0.0808-0.09554-0.16908-0.17673-0.26458-0.24288-0.0955-0.06615-0.18379-0.09922-0.26459-0.09922-0.0588 0-0.14698 0.01102-0.26458 0.03307-0.11759 0.02205-0.24638 0.05162-0.38602 0.08837-0.13229 0.0294-0.26459 0.06597-0.39688 0.11007-0.12495 0.0441-0.22415 0.09221-0.29766 0.14366-0.19844 0.12494-0.39286 0.25321-0.58394 0.38551-0.18374 0.13229-0.38217 0.28663-0.59531 0.46302-0.20578 0.17639-0.4303 0.38585-0.67283 0.62838-0.23519 0.24253-0.50677 0.54421-0.81545 0.90434-0.25723 0.30868-0.53284 0.66496-0.82683 1.0692-0.29397 0.40422-0.58813 0.8011-0.88211 1.1906-0.29398 0.38952-0.58062 0.74581-0.8599 1.0692-0.27194 0.32338-0.52198 0.55489-0.74982 0.69453-7e-3 -0.33808 0.0332-0.73496 0.12144-1.1906 0.0882-0.46302 0.1839-0.94057 0.2868-1.433 0.11024-0.49242 0.20946-0.98501 0.29766-1.4774 0.0956-0.49242 0.20722-1.1821 0.20722-1.5937 0-0.23518-0.10254-0.79542-0.12454-0.9865-0.0147-0.19109-0.0553-0.35594-0.12144-0.49558-0.0662-0.13964-0.16537-0.24639-0.29766-0.31988-0.12494-0.0735-0.2973-0.11059-0.51779-0.11059-0.10289 0-0.21313 0.0441-0.33073 0.13229-0.11024 0.08819-0.259 0.15296-0.3545 0.28525-0.0882 0.12494-0.11994 0.30673-0.18604 0.45372-0.0588 0.14699-0.18862 0.86374-0.18862 0.98134 0 0.29398 0.0604 0.5755 0.0987 0.87126 0.0289 0.22046 0.0372 0.62878 0.0227 0.86868-3e-3 -0.0041-2.6e-4 -0.11095-0.0258-0.19534-0.0165-0.08932-0.0674-0.23073-0.12299-0.27595-0.0746-0.04781-0.12983-0.03146-0.25115-0.01395-0.12134 0.01752-0.20291 0.10829-0.24701 0.18914-0.0441 0.08084-0.0608 0.23932-0.0755 0.26872-0.0361 0.29421-0.15669 0.45544-0.36225 0.84543-0.24989 0.28663-0.54054 0.59531-0.87126 0.92604-0.33073 0.33073-0.66146 0.65393-0.99219 0.96997-0.33073 0.30868-0.6835 0.61736-1.0583 0.92604-0.36012 0.30868-0.71992 0.58779-1.08 0.83768-0.36013 0.24989-0.72042 0.47789-1.0806 0.68368-0.72026 0.39688-1.3521 0.59531-1.896 0.59531-0.53651 0-0.90785-0.38585-1.1136-1.1576-0.20579-0.74966-0.30851-1.4993-0.30851-2.249 0-0.33808 0.022-0.73495 0.0661-1.1906 0.0441-0.46302 0.11379-0.98466 0.20929-1.5653 0.0515-0.30868 0.28198-0.58469 0.32608-0.90072 0.0515-0.31603 0.0408-0.63533 0.0408-0.88522 0-0.37483-0.24547-0.67179-0.4439-0.67179-0.36748 0-1.0127 0.04433-1.3508 0.31626-0.33073 0.25723-0.41955 0.57648-0.52245 0.92191-0.0514 0.17639 0.0653 0.59083 0.0212 0.87747s-0.0882 0.62838-0.13229 1.0253c-0.0882 0.79375-0.13229 1.378-0.13229 1.7529 0 0.89664 0.0882 1.7676 0.26458 2.6128 0.17639 0.85255 0.51062 1.5802 1.003 2.1828 0.11101 0.1342 0.23365 0.25107 0.36484 0.35502 0.2298 0.13163 0.46666 0.25829 0.70797 0.38189 0.30006 0.10194 0.63194 0.15606 0.99993 0.15606 0.80845 0 1.727-0.38183 2.7559-1.1462 0.52916-0.38218 1.0177-0.77555 1.4661-1.1798 0.45567-0.41158 0.89314-0.83802 1.3121-1.279 0.35278-0.38218 0.69103-0.76051 1.0144-1.1353 0.32338-0.37483 0.60599-0.7276 0.84853-1.0583 0.21233-0.28103 0.37924-0.53309 0.51728-0.76636-0.0347 0.32807-0.0735 0.67964-0.12041 1.0749-0.0441 0.37483-0.0952 0.74265-0.15399 1.1028-0.0588 0.35278-0.11387 0.69051-0.16537 1.0139s-0.0956 0.63206-0.13229 0.92604c-0.0367 0.29398-0.0553 0.56609-0.0553 0.81597 0 0.21314 0.0296 0.382 0.0884 0.50695 0.0662 0.12494 0.15434 0.22065 0.26459 0.2868 0.11759 0.06614 0.25338 0.11025 0.40772 0.13229s0.32321 0.03307 0.50695 0.03307c0.0588-3e-6 0.15451-0.05162 0.2868-0.15451 0.13964-0.10289 0.29399-0.28279 0.46302-0.54002 0.13229-0.21314 0.26459-0.41158 0.39688-0.59531 0.13964-0.18374 0.29398-0.38218 0.46302-0.59531 0.16904-0.22049 0.36397-0.46652 0.58446-0.73846 0.22784-0.27928 0.49592-0.61753 0.8046-1.0144 0.1176-0.15434 0.26843-0.35278 0.45217-0.59531 0.18374-0.24989 0.38218-0.51447 0.59531-0.79375 0.22049-0.28663 0.44448-0.57326 0.67231-0.8599 0.23519-0.28663 0.45918-0.54369 0.67231-0.77153 0.22049-0.22784 0.38626-0.315 0.57-0.46199 0.18374-0.14699 0.31998-0.21136 0.44493-0.21136 0.11759 0 0.2292 0.06787 0.2806 0.22221 0.0588 0.15434 0.0813 0.35278 0.10335 0.59531 0.0221 0.24254-0.0168 0.41789-0.0238 0.72657-7e-3 0.30133-0.0224 0.60249-0.0445 0.90382-0.0147 0.30133 0.0587 0.58796 0.0367 0.8599-0.0142 0.27193-0.0222 0.49242-0.0222 0.66146 0 0.36013 0.0516 0.69487 0.15451 1.0036 0.10289 0.30133 0.25321 0.5619 0.45165 0.78238 0.19843 0.22049 0.44098 0.39337 0.72761 0.51832 0.28663 0.12494 0.61036 0.18758 0.97048 0.18758 0.49242 0 0.97347-0.07717 1.4438-0.23151 0.47772-0.15434 0.93724-0.3603 1.3782-0.61753 0.44833-0.26459 0.87826-0.57326 1.2898-0.92604 0.41157-0.35278 0.80093-0.7241 1.1684-1.1136 0.37483-0.38952 0.7206-0.7864 1.0366-1.1906 0.30257-0.39405 0.81738-1.779 1.0728-2.1461-0.0728 0.52387-0.38664 2.06-0.46664 2.5983-0.0735 0.53652-0.14716 1.0657-0.22066 1.5875-0.0661 0.51447-0.12471 0.98501-0.17621 1.4113-0.0515 0.41892-0.0956 0.7752-0.13229 1.0692-0.0294 0.28663-0.0439 0.47404-0.0439 0.56224-0.92318 0.1733-0.68978 0.51931-0.54002 0.72709 0.14559 0.20199 0.7484 0.25735 1.0185 0.23513 0.43362 0 0.59455-0.1946 0.92088-0.51935 0.22546-0.22437 0.46354-0.59353 0.46354-1.0713 0-0.16169 0.0186-0.33808 0.0553-0.52917 0.0441-0.19844 0.0511-0.3673 0.0217-0.50695 0.0588-0.13229 0.11042-0.25356 0.15452-0.3638s0.0993-0.22048 0.16536-0.33073c0.0735-0.11759 0.16169-0.23886 0.26459-0.3638 0.11023-0.12494 0.26107-0.27228 0.45216-0.44132 0.0514-0.0441 0.11357-0.09922 0.18707-0.16536 0.0808-0.0735 0.15456-0.14314 0.22066-0.20929 0.0735-0.06615 0.13609-0.12477 0.18759-0.17622l0.11007-0.11059c0.49977 0.27928 0.97381 0.56591 1.4221 0.8599 0.44832 0.28663 0.8893 0.56976 1.3229 0.84904 0.44098 0.27928 0.88195 0.54737 1.3229 0.8046 0.44097 0.25723 0.90399 0.48524 1.3891 0.68368 0.58796 0.24253 1.0919 0.65256 1.6578 0.7922 0.57326 0.13964 1.7937 0.28732 2.4552 0.28732 0.14401 0 0.73641-0.19942 1.049-0.28784 0.61886-0.31063 1.2049-0.64622 1.7539-1.0103 8e-3 -0.03318 0.0145-0.06619 0.0145-0.09974 0-0.09554-0.0366-0.15469-0.11007-0.17673-0.0661-0.02939-0.16887-0.04393-0.30851-0.04393-0.13229-0.0074-0.30167-0.0074-0.50746 0-0.19844-1e-5 -0.42996-0.02204-0.69453-0.06615-0.66882-0.10289-2.4178-0.5472-3.1233-0.78238-0.6982-0.24254-1.444-0.31006-2.1642-0.64079-0.7129-0.33073-1.4335-0.69855-2.1611-1.1028-0.72026-0.41157-1.4368-0.834-2.1497-1.2676 0.0882-0.12494 0.16938-0.23169 0.24288-0.31988 0.0735-0.09554 0.14665-0.17971 0.22014-0.25321l0.24288-0.22066c0.0808-0.0735 0.16502-0.15416 0.25322-0.24236 0.10289-0.10289 0.23921-0.23518 0.40824-0.39688 0.17639-0.16904 0.3673-0.35295 0.57309-0.55139 0.21313-0.19844 0.43363-0.4044 0.66146-0.61753 0.22784-0.22049 0.44482-0.43345 0.65061-0.63924 0.21314-0.20579 0.40755-0.3967 0.58394-0.57309 0.18374-0.18374 0.38936-0.30541 0.50695-0.4377 0.0956-0.10289 0.23898-0.17639 0.35657-0.33073 0.12494-0.16169 0.40652-0.40044 0.51676-0.56948s0.38539-0.46204 0.45889-0.62373c0.0809-0.16904 0.0481-0.58676 0.0481-0.70435 0-0.25723-0.32649-0.38602-0.79685-0.38602-0.30134 0-0.99397 0.32235-1.31 0.52813-0.31603 0.19844-0.63575 0.56907-0.95912 0.89245-0.31603 0.32338-0.52618 0.74196-0.84956 1.1462-0.31603 0.39688-0.62471 0.79025-0.92604 1.1798-0.0588 0.0735-0.18356 0.21681-0.37465 0.42995-0.18374 0.20579-0.40072 0.45182-0.65061 0.73846-0.24988 0.27928-0.51797 0.57694-0.8046 0.89297s-0.55874 0.61719-0.81597 0.90382c-0.25723 0.27928-0.48524 0.52934-0.68368 0.74982-0.19109 0.21314-0.32286 0.35996-0.39636 0.4408 0.0588-0.36013 0.12849-0.8522 0.20929-1.4769 0.0808-0.62471 0.17605-1.3819 0.28629-2.2712 7e-3 -0.05145 0.0334-0.19476 0.0775-0.42995l0.16537-0.88212c0.0661-0.36013 0.13934-0.7605 0.22014-1.2015 0.0808-0.44832 0.16208-0.90382 0.24288-1.3668 0.0882-0.47037 0.17241-0.93339 0.25321-1.3891 0.0809-0.45567 0.15456-0.8746 0.22066-1.2568s0.11781-0.7094 0.15451-0.98134c0.0368-0.27193 0.0553-0.45934 0.0553-0.56224 0-0.06615-0.0145-0.14332-0.0439-0.23151-0.0245-0.07358-0.0646-0.14081-0.11472-0.20412-0.33108-0.08162-0.66213-0.1592-0.99322-0.23306z" style="paint-order:normal"/>
   <g transform="translate(-.3807 12.563)" stroke-width=".26458" style="font-feature-settings:normal;font-variant-caps:normal;font-variant-ligatures:normal;font-variant-numeric:normal" aria-label="tory">
    <path d="m62.979 56.428c0 0.28787-0.11641 0.86592-0.36808 1.0221-0.23945 0.14862-0.68009 0.2521-1.3208 0.3556-1.561 0.25216-2.4299 0.42333-2.6162 0.4572l-1.4318 0.31594c0 0.88053-0.0044 1.4417 0.01248 2.4069 0.03387 0.9652 0.0762 1.8119 0.127 2.54 0.06773 0.98213 0.18627 1.7357 0.3556 2.2606s0.04322 0.78473 0.06016 0.85246c0 0.16933-0.11007 0.32173-0.3302 0.4572-0.2032 0.1524-0.39793 0.2286-0.5842 0.2286-0.1016 0-0.51513 0.03921-0.58287-0.02852-0.06773-0.0508-0.127-0.14393-0.1778-0.2794-0.1016-0.23707-0.2032-0.67733-0.3048-1.3208-0.08467-0.64347-0.1524-1.3547-0.2032-2.1336-0.0508-0.69427-0.09313-1.4986-0.127-2.413-0.01693-0.93133-0.01248-1.6479-0.01248-2.5115-0.94827 0.1524-1.5931 0.26558-2.5921 0.48572-0.89747 0.18627-1.4309 0.2794-1.6002 0.2794-0.2032 0-0.43669-0.16262-0.62296-0.28115-0.16933-0.11853-0.22816-0.35692-0.22816-0.56012 0-0.22013 0.0762-0.36407 0.2286-0.4318 0.1524-0.06773 0.4064-0.1016 0.762-0.1016 0.254 0 0.62653-0.04233 1.1176-0.127 0.49107-0.1016 0.80433-0.16933 0.9398-0.2032 1.1345-0.22013 1.6127-0.36407 2.0191-0.4318 0-0.3556-0.01693-0.82127-0.0508-1.397-0.03387-0.77893-0.0508-1.3716-0.0508-1.778 0-0.6604 0.01693-1.1684 0.0508-1.524 0.0508-0.37253 0.13547-0.70273 0.254-0.9906 0.13547-0.33867 0.68179-0.508 1.0543-0.508 0.1524 0 0.254 0.0254 0.3048 0.0762s0.0762 0.14393 0.0762 0.2794c0 0.1016-0.04233 0.39793-0.127 0.889s-0.127 1.143-0.127 1.9558c0 0.62653 0.01693 1.3293 0.0508 2.1082l0.0254 0.6858c0.762-0.11853 2.2691-0.4318 4.5212-0.9398 0.13547-0.03387 0.24553-0.1524 0.3302-0.3556 0.1016-0.2032 0.2032-0.3048 0.3048-0.3048 0.18627 0 0.37253 0.11007 0.5588 0.3302 0.2032 0.2032 0.3048 0.41487 0.3048 0.635z"/>
    <path d="m73.092 61.686c0 0.6604-0.24553 1.4224-0.7366 2.286-0.49107 0.8636-1.1853 1.6087-2.0828 2.2352-0.89747 0.6096-1.9219 0.9144-3.0734 0.9144-1.1345 0-1.9727-0.31327-2.5146-0.9398-0.54187-0.62653-1.032-1.442-1.032-2.3733 0-0.8128 0.18047-1.8203 0.46834-3.0226 0.3048-1.2023 0.78294-2.2775 1.3248-3.2258 0.03387-0.06773 0.1876-0.38635 0.42467-0.80968 0.254-0.44027 0.56994-0.7522 0.87474-0.97233 0.3048-0.23707 0.69962-0.26425 1.0383-0.26425 0.1524 0 0.28787 0.04233 0.4064 0.127 0.13547 0.06773 0.2032 0.16087 0.2032 0.2794 0 0.03387-0.0508 0.11853-0.1524 0.254-0.08467 0.11853-0.1524 0.21167-0.2032 0.2794-0.57573 0.69427-0.84043 1.3801-1.196 2.0574-0.47413 0.8636-0.86494 1.737-1.1359 2.5837-0.254 0.84667-0.34446 1.6051-0.34446 2.6042 0 1.3377 0.41085 1.8604 2.0365 1.8604 0.762 0 1.4647-0.22013 2.1082-0.6604 0.6604-0.44027 0.96609-0.75442 1.3556-1.381 0.38947-0.64347 0.73036-1.1546 0.73036-1.6795 0-0.59267-0.23127-1.1091-0.62074-1.5494s-0.84978-0.72323-1.5271-1.2143c-0.44027-0.32173-0.74373-0.63901-0.94693-0.84221s-0.10383-0.50043-0.10383-0.63589c0-0.2032 0.14393-0.36407 0.4318-0.4826 0.28787-0.13547 0.62653-0.2032 1.016-0.2032 0.22013 0 0.36407 0.01693 0.4318 0.0508 0.06773 0.01693 0.1016 0.05927 0.1016 0.127 0 0.03387-0.03387 0.09313-0.1016 0.1778-0.0508 0.06773-0.0762 0.127-0.0762 0.1778s0.16933 0.22013 0.508 0.508c0.67733 0.5588 1.2446 1.1261 1.7018 1.7018s0.6858 1.2531 0.6858 2.032z"/>
    <path d="m83.855 56.25c0 0.1524 0.10956 0.52399-0.11058 0.72719-0.2032 0.18627-0.53603 0.33108-0.68843 0.33108-0.11853 0-0.30166-0.03788-0.4202-0.13948-0.1016-0.1016-0.22013-0.2197-0.3556-0.40596-0.11853-0.16933-0.25356-0.3391-0.45676-0.45764-0.18627-0.11853-0.40684-0.15196-0.61004-0.15196-0.49107 0-0.78973 0.57442-1.6195 1.8783-0.82973 1.2869-1.3325 2.8867-2.1283 4.851 0.01693 0.38947-0.3194 0.67383-0.28554 1.2665 0.0508 0.59267 0.08467 1.0329 0.1016 1.3208l0.0762 1.016c0 0.23707-0.10248 0.49194-0.20408 0.66128-0.1016 0.18627-0.54625 0.25356-0.81718 0.25356-0.28787 0-0.75835-0.43268-0.84302-1.1947-0.08467-0.77893-0.13547-1.905-0.1524-3.3782-0.01693-0.37253-0.03387-0.90593-0.0508-1.6002 0-0.69427-0.01693-1.524-0.0508-2.4892-0.0508-1.4563-0.0762-2.4977-0.0762-3.1242 0-0.38947 0.52129-0.53252 0.99542-0.53252 0.28787 0 0.4572 0.127 0.508 0.381 0.06773 0.23707 0.1016 0.70273 0.1016 1.397l-1e-6 4.0386c0.508-1.3039 1.0583-2.4299 1.651-3.3782s1.1684-1.6679 1.7272-2.159c0.57573-0.508 1.0837-0.762 1.524-0.762 0.37253 0 0.72813 0.08467 1.0668 0.254 0.33867 0.16933 0.6096 0.38947 0.8128 0.6604 0.2032 0.254 0.3048 0.49953 0.3048 0.7366z"/>
    <path d="m94.068 55.717c0 0.38947 0.16266 1.2361-0.02362 2.54-0.2032 1.4901-0.31327 2.3283-0.3302 2.5146-0.22013 2.0828-0.381 3.6745-0.4826 4.7752-0.08467 1.0837-0.127 2.0659-0.127 2.9464 0 0.72813 0.16042 1.1942 0.26202 1.6176 0.11853 0.42333 0.16398 0.79007 0.28252 1.0271 0.13547 0.254-0.08913 0.47948-0.08913 0.53028 0 0.1524-0.13547 0.28787-0.4064 0.4064s-0.55033 0.1778-0.8382 0.1778c-0.22013 0-0.39793-0.29633-0.5334-0.889-0.11853-0.59267-0.1778-1.5155-0.1778-2.7686 0-0.94827 0.09313-2.2267 0.2794-3.8354l0.381-3.5052c-0.4572 0.88053-1.0245 1.7272-1.7018 2.54-0.6604 0.79587-1.3462 1.1938-2.0574 1.1938-0.6604 0-1.2531-0.57573-1.778-1.7272s-0.9398-2.4553-1.2446-3.9116c-0.28787-1.4563-0.4318-2.5231-0.4318-3.2004 0-0.42333 0.127-0.635 0.381-0.635 0.37253 0 1.1212 0.12789 1.2228 0.82216 0.64347 4.7075 0.95628 6.7323 2.1077 6.7323 0.4572 0 0.74551 0.0049 1.0842-0.3507 0.3556-0.37253 0.40506-0.83018 0.87919-1.5922 0.22013-0.3556 0.4572-0.75665 0.7112-1.3493 0.254-0.59267 0.33911-1.0107 0.47458-1.4001l0.83554-2.4558c0.03387-0.38947 0.08467-0.6604 0.1524-0.8128 0.06773-0.16933 0.2032-0.254 0.4064-0.254 0.16933 0 0.33867 0.1016 0.508 0.3048 0.16933 0.18627 0.254 0.37253 0.254 0.5588z"/>
   </g>
   <path d="m99.442 57.815c0.39456-0.11044 0.78712-0.22885 1.1772-0.33796 0.2547-0.07125 0.47566-0.14948 0.72606-0.22118 0.022-0.21581 0.078-0.53321 0.0946-0.73277-0.091-0.26304-0.21084-0.50921-0.35967-0.73794-0.14056-0.24016-0.31006-0.36019-0.5085-0.36019-0.16536 0-0.33899 0.18284-0.52089 0.5488-0.17364 0.36596-0.3514 0.86955-0.5333 1.51-0.0258 0.09343-0.04984 0.23276-0.07545 0.33125z" style="font-feature-settings:normal;font-variant-caps:normal;font-variant-ligatures:normal;font-variant-numeric:normal"/>
   <path d="m99.511 74.779c-0.01455-0.35944-0.05529-0.65391-0.05529-1.0495 0-0.56038 0.01241-1.1549 0.03721-1.7839 0.02479-0.64043 0.05788-1.2865 0.09922-1.9384 0.04961-0.65187 0.10749-1.298 0.17364-1.9384 0.0744-0.65187 0.16123-1.2811 0.26045-1.8872 0.34726-2.1615 0.64492-4.0369 0.89297-5.6265 0.20972-1.3007 0.32731-2.327 0.42633-3.2985-0.2504 0.07169-0.47137 0.14993-0.72606 0.22118-0.39006 0.10912-0.78262 0.22752-1.1772 0.33796-0.1468 0.56449-0.29225 1.1683-0.43305 1.8986-0.16536 0.84629-0.32246 1.761-0.47129 2.7445s-0.28526 2.0076-0.40928 3.0711c-0.12402 1.0636-0.23151 2.1213-0.32246 3.1734-0.09095 1.0407-0.16123 2.0525-0.21084 3.036-0.04059 0.79528-0.0536 1.5077-0.06098 2.2035 0.01058 0.0049 0.02252 0.01117 0.03307 0.01601 0.71053 0.32613 1.3082 0.55887 1.9436 0.8201z" style="font-feature-settings:normal;font-variant-caps:normal;font-variant-ligatures:normal;font-variant-numeric:normal"/>
   <path d="m104.14 81.314c9e-3 -0.0079 0.0177-0.01117 0.0264-0.01913 0.47129-0.43458 0.92191-0.92642 1.3519-1.4754 0.43821-0.56038 0.82269-1.138 1.1534-1.7327 0.0992-0.18298 0.21084-0.41179 0.33486-0.68626 0.13229-0.27447 0.25632-0.54874 0.37207-0.82321 0.12402-0.28591 0.31916-0.50888 0.39357-0.76048 0.0827-0.26304 0.0692-0.32622 0.0692-0.46345 0-0.33165-0.0616-0.88132-0.19387-0.88132-0.0331 0-0.4162 0.02394-0.51541 0.16119-0.0992 0.1258 0.0148 0.51232-0.10924 0.6953-0.11576 0.17155-0.19411 0.36809-0.3264 0.56251-0.12402 0.19442-0.23151 0.35428-0.32246 0.48007-0.28939 0.40027-0.60358 0.81192-0.94258 1.2351-0.33899 0.41171-0.69866 0.79527-1.079 1.1498-0.11977 0.11044-0.25524 0.17736-0.3793 0.27595 0.0871 0.3205 0.18734 0.63955 0.21807 0.96635 0.0416 0.44256 0.0148 0.88412-0.0512 1.3157z" style="font-feature-settings:normal;font-variant-caps:normal;font-variant-ligatures:normal;font-variant-numeric:normal"/>
   <path d="m104.14 81.314c0.066-0.43156 0.0928-0.87312 0.0512-1.3157-0.0307-0.3268-0.13093-0.64586-0.21807-0.96635-0.26132 0.20768-0.51859 0.42626-0.79891 0.58136-0.41342 0.21729-0.83096 0.32608-1.2526 0.32608-0.89297 0-1.5296-0.53167-1.91-1.5953-0.29852-0.8625-0.4438-2.1064-0.50282-3.5652-0.63536-0.26123-1.233-0.49397-1.9436-0.8201-0.01056-0.0048-0.02249-0.01117-0.03307-0.01601-0.0016 0.15469-0.01344 0.34012-0.01344 0.48989 0 1.3266 0.07441 2.5105 0.22324 3.5512 0.14883 1.0293 0.37621 1.8985 0.68213 2.6076 0.31419 0.69762 0.71107 1.2293 1.1906 1.5953 0.48782 0.36596 1.0666 0.5488 1.7363 0.5488 0.43821 0 0.8971-0.13126 1.3767-0.39429 0.47889-0.25822 0.94935-0.60378 1.4123-1.0273z" style="font-feature-settings:normal;font-variant-caps:normal;font-variant-ligatures:normal;font-variant-numeric:normal"/>
  </g>
  <g transform="matrix(1.0241 0 0 .92598 -2.9305 13.718)" fill="#ff6567" style="font-feature-settings:normal;font-variant-caps:normal;font-variant-ligatures:normal;font-variant-numeric:normal" aria-label="S">
   <path d="m53.45 67.805c0 1.4289-0.48584 2.8436-1.4575 4.2439-0.94309 1.3718-2.2863 2.4863-4.0296 3.3437-1.7147 0.88594-3.6723 1.3289-5.8729 1.3289-1.8576 0-3.3294-0.15718-4.4154-0.47155-1.086-0.28579-1.9317-0.48849-1.9317-1.0315 0-0.28579 0.0739-0.75733 0.474-1.4146 0.42868-0.68589 0.50503-0.92298 0.73366-0.92298 0.34294 0-0.1194 0.60869-0.1194 0.75158 0 0.08574 0.36468 0.27046 0.56632 0.3685 0.20164 0.09803 0.36821 0.16993 0.6018 0.22293 0.23359 0.053 0.44415 0.12646 0.79015 0.19123 0.346 0.06477 0.63003 0.12494 1.2875 0.17167 0.6575 0.04673 1.5987 0.02469 2.6561 0.02469 1.6861 0 3.1579-0.44773 4.4154-1.105 1.286-0.65731 2.272-1.4861 2.9579-2.4863 0.68589-1.0002 1.0288-1.9719 1.0288-2.915 0-1.2289-0.60015-2.2863-1.8005-3.1722-1.1717-0.88594-3.0365-1.9161-5.6657-2.7163-2.5435-0.82878-4.4441-1.5521-5.8444-2.0951-1.3718-0.57157-2.4863-1.1078-3.3437-1.908-0.85736-0.82878-1.3931-1.7542-1.3931-2.9259 0-1.5718 0.88594-3.1151 2.6578-4.6297 1.7719-1.5432 3.9581-2.7864 6.5588-3.7295 2.6007-0.97167 5.0155-1.4575 7.2447-1.4575 1.1431 0 1.7576 0.22863 1.8433 0.68589 0.08573 0.45726 0.1286 0.97167 0.1286 1.5432 0 0.42868-0.15718 0.64302-0.47155 0.64302-0.14289 0-0.31436-0.04287-0.51442-0.1286-0.17147-0.11431-0.32865-0.20005-0.47155-0.25721-0.17147-0.05716-0.37152-0.11432-0.60015-0.17147-0.22863-0.05715-0.55728-0.08573-0.98596-0.08573-1.4861 0-3.2722 0.38581-5.3585 1.1574-2.0862 0.77162-3.901 1.729-5.4442 2.8721-1.5147 1.1431-2.272 2.2434-2.272 3.3008 0 0.85736 0.34294 1.6004 1.0288 2.2291 0.71446 0.62873 1.6576 1.1717 2.8293 1.629 1.1717 0.42868 2.8293 0.97167 4.9727 1.629 3.1436 0.91452 5.4585 1.9433 6.9446 3.0865 1.5147 1.1431 2.272 2.5435 2.272 4.2011z" fill="#ff6567" stroke-width=".50236"/>
  </g>
  <g transform="matrix(.6193 0 0 .6193 -18.299 18.221)">
   <ellipse cx="62.189" cy="83.798" rx="15.115" ry="15.115" fill="#314455" stroke="#314455" stroke-linecap="square" stroke-linejoin="round" stroke-width="1.7699" style="paint-order:normal"/>
   <path d="m48.589 92.189h6.1885c6.2637 0.47303 10.002-4.8825 11.461-8.5124 2.5692-6.7743 9.5337-8.2671 9.5337-8.2671l-5.9971-0.11142c-12.1-0.57364-9.604 13.941-21.186 16.891z" fill="#ff6b67"/>
  </g>
 </g>
</svg>
