<?xml version="1.0" encoding="UTF-8" standalone="no"?>
<!-- Created with Inkscape (http://www.inkscape.org/) -->

<svg
   xmlns:dc="http://purl.org/dc/elements/1.1/"
   xmlns:cc="http://creativecommons.org/ns#"
   xmlns:rdf="http://www.w3.org/1999/02/22-rdf-syntax-ns#"
   xmlns:svg="http://www.w3.org/2000/svg"
   xmlns="http://www.w3.org/2000/svg"
   xmlns:sodipodi="http://sodipodi.sourceforge.net/DTD/sodipodi-0.dtd"
   xmlns:inkscape="http://www.inkscape.org/namespaces/inkscape"
   width="152.71693mm"
   height="51.626823mm"
   viewBox="0 0 152.71694 51.626824"
   version="1.1"
   id="svg8"
   sodipodi:docname="storylink_rojo.svg"
   inkscape:version="0.92.4 (5da689c313, 2019-01-14)"
   inkscape:export-filename="C:\Users\Martin\Desktop\storylink\storylink_rojo_130x44.png"
   inkscape:export-xdpi="19.679693"
   inkscape:export-ydpi="19.679693">
  <defs
     id="defs2">
    <inkscape:perspective
       sodipodi:type="inkscape:persp3d"
       inkscape:vp_x="0 : 25.81341 : 1"
       inkscape:vp_y="0 : 1000 : 0"
       inkscape:vp_z="152.187 : 25.81341 : 1"
       inkscape:persp3d-origin="76.093499 : 17.20894 : 1"
       id="perspective911" />
  </defs>
  <sodipodi:namedview
     id="base"
     pagecolor="#ffffff"
     bordercolor="#666666"
     borderopacity="1.0"
     inkscape:pageopacity="0.0"
     inkscape:pageshadow="2"
     inkscape:zoom="1.0673445"
     inkscape:cx="254.81332"
     inkscape:cy="123.02458"
     inkscape:document-units="mm"
     inkscape:current-layer="layer1"
     showgrid="true"
     inkscape:snap-intersection-paths="true"
     inkscape:snap-smooth-nodes="true"
     inkscape:snap-midpoints="true"
     inkscape:snap-object-midpoints="true"
     inkscape:snap-center="true"
     inkscape:snap-others="false"
     inkscape:snap-grids="true"
     inkscape:snap-nodes="false"
     inkscape:window-width="1366"
     inkscape:window-height="705"
     inkscape:window-x="-8"
     inkscape:window-y="-8"
     inkscape:window-maximized="1"
     inkscape:snap-text-baseline="false"
     inkscape:snap-bbox="false"
     inkscape:snap-bbox-edge-midpoints="true"
     inkscape:snap-bbox-midpoints="true"
     inkscape:bbox-nodes="true"
     inkscape:bbox-paths="true"
     inkscape:object-nodes="true"
     inkscape:object-paths="true"
     inkscape:snap-page="false"
     inkscape:snap-to-guides="true"
     fit-margin-bottom="0"
     fit-margin-top="0"
     fit-margin-left="0"
     fit-margin-right="0">
    <inkscape:grid
       type="xygrid"
       id="grid815"
       originx="-10.635983"
       originy="-210.67837" />
  </sodipodi:namedview>
  <metadata
     id="metadata5">
    <rdf:RDF>
      <cc:Work
         rdf:about="">
        <dc:format>image/svg+xml</dc:format>
        <dc:type
           rdf:resource="http://purl.org/dc/dcmitype/StillImage" />
        <dc:title />
      </cc:Work>
    </rdf:RDF>
  </metadata>
  <g
     inkscape:label="Capa 1"
     inkscape:groupmode="layer"
     id="layer1"
     transform="translate(-10.635982,-34.694823)">
    <ellipse
       style="display:inline;opacity:1;fill:#314455;fill-opacity:1;fill-rule:nonzero;stroke:#ff6567;stroke-width:4.48250103;stroke-linecap:square;stroke-linejoin:round;stroke-miterlimit:4;stroke-dasharray:none;stroke-dashoffset:0;stroke-opacity:1;paint-order:normal"
       id="path874"
       cx="87.259323"
       cy="60.508232"
       rx="73.852249"
       ry="23.572159" />
    <path
       style="opacity:1;fill:#ff6567;fill-opacity:1;fill-rule:nonzero;stroke:none;stroke-width:19.14412498;stroke-linecap:square;stroke-linejoin:round;stroke-miterlimit:4;stroke-dasharray:none;stroke-dashoffset:0;stroke-opacity:1;paint-order:normal"
       d="M 287.59766,0 C 128.76227,-3.5597457e-5 -2.0020064,44.09446 -2.0025485,97.97682 -2.0020064,151.85918 128.76227,195.12504 287.59766,195.125 446.43304,195.12503 575.19477,151.44486 575.19531,97.5625 575.19477,43.680141 446.43304,-3.3723923e-5 287.59766,0 Z m 108.47265,58.712891 c 1.58334,0 2.04532,1.604592 2.90643,2.049036 0.86111,0.416667 1.08581,1.235852 1.08581,2.596963 0,1.805556 -0.61163,2.311421 -1.55607,3.589199 -0.91667,1.277778 -2.19419,2.330336 -3.97197,2.330336 -1.11111,0 -2.41692,0.316707 -3.77803,-0.01663 -1.33334,-0.333334 -3.58823,-1.910801 -3.58823,-2.660801 0,-1.361111 -0.20482,-3.481419 0.62852,-4.703641 0.86111,-1.25 2.51102,-2.470398 3.70546,-3.248176 0.97222,-0.555556 4.2903,0.06371 4.56808,0.06371 z m 103.58399,0.417968 c 0.47222,0 0.88889,0.09657 1.25,0.291016 0.36111,0.194444 0.65277,0.431207 0.875,0.708984 0.25,0.277778 0.4299,0.582683 0.54101,0.916016 0.11111,0.333333 0.16602,0.625 0.16602,0.875 0,0.388889 -0.0681,1.097222 -0.20703,2.125 -0.13889,1.027778 -0.33399,2.26454 -0.58399,3.708984 -0.25,1.444445 -0.52843,3.027778 -0.83398,4.75 -0.30556,1.722223 -0.6237,3.472223 -0.95703,5.25 -0.30556,1.75 -0.61242,3.471572 -0.91797,5.166016 -0.30556,1.666667 -0.58203,3.179905 -0.83203,4.541016 l -0.625,3.333984 c -0.16667,0.888889 -0.26519,1.430556 -0.29297,1.625 -0.41667,3.361111 -0.77648,6.222873 -1.08203,8.583985 -0.30556,2.36111 -0.57075,4.22092 -0.79297,5.58203 0.27778,-0.30555 0.77778,-0.86046 1.5,-1.66601 0.75,-0.83334 1.61176,-1.77843 2.58398,-2.83399 0.97222,-1.08333 2.00065,-2.221571 3.08399,-3.416015 1.08333,-1.194444 2.09657,-2.319444 3.04101,-3.375 0.94445,-1.083333 1.76454,-2.013238 2.45899,-2.791016 0.72222,-0.805555 1.19379,-1.347222 1.41601,-1.625 1.13889,-1.472222 2.30556,-2.958984 3.5,-4.458984 1.22222,-1.527778 2.01624,-3.109938 3.21068,-4.33216 1.22222,-1.222222 2.43056,-2.623305 3.625,-3.373305 1.19445,-0.777778 3.81123,-1.994656 4.95012,-1.994656 1.77778,0 3.01129,0.486762 3.01129,1.458984 0,0.444445 0.12473,2.021912 -0.18082,2.660801 -0.27778,0.611111 -1.31684,1.719484 -1.7335,2.358373 -0.41667,0.638889 -1.48129,1.540103 -1.95351,2.151214 -0.44445,0.583334 -0.98599,0.860983 -1.3471,1.249872 -0.44444,0.5 -1.2217,0.960417 -1.91614,1.654861 -0.66667,0.666667 -1.40148,1.388238 -2.20703,2.166016 -0.77778,0.777778 -1.59788,1.582682 -2.45899,2.416016 -0.86111,0.805555 -1.69444,1.583984 -2.5,2.333984 -0.77778,0.75 -1.49935,1.445095 -2.16601,2.083984 -0.63889,0.611111 -1.15408,1.111111 -1.54297,1.5 -0.33334,0.333334 -0.65148,0.638238 -0.95703,0.916016 l -0.91797,0.833985 c -0.27778,0.27778 -0.55426,0.59592 -0.83203,0.95703 -0.27778,0.33333 -0.58464,0.73676 -0.91797,1.20899 2.69444,1.63888 5.40278,3.23546 8.125,4.79101 2.75,1.52778 5.47352,2.91797 8.16797,4.16797 2.72222,1.25 5.54023,1.50469 8.17912,2.42136 2.66667,0.88889 9.27612,2.56834 11.8039,2.95723 1,0.16666 1.875,0.24999 2.625,0.25 0.77778,-0.0278 1.41797,-0.0278 1.91797,0 0.52777,0 0.91601,0.0549 1.16601,0.16601 0.27778,0.0833 0.41602,0.30686 0.41602,0.66797 0,0.58333 -0.33334,1.15148 -1,1.70703 -0.63889,0.52778 -1.41537,0.98611 -2.33203,1.375 -0.91667,0.38889 -1.86177,0.70898 -2.83399,0.95899 -0.94444,0.22222 -3.87131,1.24352 -4.48242,1.24352 -2.5,0 -7.1121,-0.55866 -9.27876,-1.08644 -2.13889,-0.52778 -4.04259,-2.07799 -6.26481,-2.99465 -1.83333,-0.75001 -3.58333,-1.61177 -5.25,-2.58399 -1.66666,-0.97222 -3.33333,-1.98546 -5,-3.04101 -1.63889,-1.05556 -3.30555,-2.12566 -5,-3.20899 -1.69444,-1.11111 -3.48611,-2.19444 -5.375,-3.25 l -0.41601,0.41797 c -0.19445,0.19444 -0.43121,0.41601 -0.70899,0.66602 -0.25,0.25 -0.52843,0.51323 -0.83398,0.79101 -0.27778,0.25 -0.51259,0.45833 -0.70703,0.625 -0.72223,0.63889 -1.29232,1.19575 -1.70899,1.66797 -0.38889,0.47222 -0.72222,0.93055 -1,1.375 -0.25,0.41667 -0.45833,0.83333 -0.625,1.25 -0.16666,0.41667 -0.36176,0.875 -0.58398,1.375 0.11111,0.52778 0.0846,1.16601 -0.082,1.91602 -0.13889,0.72222 -0.20899,1.38888 -0.20899,2 0,1.80555 -0.90084,3.20145 -1.75296,4.04945 -1.23338,1.22741 -1.84152,1.96195 -3.48041,1.96195 -1.02099,0.084 -3.29925,-0.1247 -3.8495,-0.88811 -0.56603,-0.7853 -1.44734,-2.09329 2.04186,-2.74829 0,-0.33334 0.0549,-1.04167 0.16601,-2.125 0.13889,-1.11112 0.30556,-2.45769 0.5,-4.04102 0.19445,-1.61111 0.41602,-3.38954 0.66602,-5.33398 0.27778,-1.97223 0.5562,-3.97223 0.83398,-6 0.30241,-2.03441 1.48772,-7.839447 1.76293,-9.819426 -0.96535,1.387469 -2.91036,6.621116 -4.05394,8.110436 -1.19445,1.52778 -2.50131,3.02778 -3.91797,4.5 -1.38889,1.47222 -2.86046,2.87565 -4.41602,4.20899 -1.55555,1.33333 -3.18055,2.49999 -4.875,3.5 -1.66666,0.97222 -3.40343,1.75065 -5.20898,2.33398 -1.77778,0.58333 -3.59592,0.875 -5.45703,0.875 -1.36111,0 -2.58464,-0.23676 -3.66797,-0.70898 -1.08334,-0.47223 -2,-1.12566 -2.75,-1.95899 -0.75,-0.83333 -1.31814,-1.81814 -1.70703,-2.95703 -0.38889,-1.16667 -0.58399,-2.43186 -0.58399,-3.79297 0,-0.63889 0.0284,-1.47222 0.084,-2.5 0.0833,-1.02778 -0.1938,-2.11111 -0.13824,-3.25 0.0833,-1.13889 0.14019,-2.27713 0.16797,-3.416015 0.0278,-1.166667 0.17199,-1.828539 0.0886,-2.745206 -0.0833,-0.916667 -0.16771,-1.666667 -0.38993,-2.25 -0.19445,-0.583333 -0.61617,-0.840474 -1.06061,-0.840474 -0.47223,0 -0.98651,0.243903 -1.68095,0.799458 -0.69445,0.555556 -1.32153,0.884095 -2.15486,1.745206 -0.80556,0.861111 -1.65213,1.832683 -2.54102,2.916016 -0.86111,1.083335 -1.70768,2.166665 -2.54101,3.250005 -0.80556,1.05555 -1.55556,2.05555 -2.25,3 -0.69445,0.91666 -1.26454,1.66666 -1.70899,2.25 -1.16666,1.5 -2.1799,2.77842 -3.04101,3.83398 -0.83334,1.02778 -1.5701,1.95768 -2.20899,2.79102 -0.63889,0.80555 -1.22222,1.55555 -1.75,2.25 -0.5,0.69444 -1,1.44444 -1.5,2.25 -0.63889,0.97222 -1.22222,1.65212 -1.75,2.04101 -0.5,0.38889 -0.86176,0.58398 -1.08398,0.58399 -0.69445,-1e-5 -1.33268,-0.0417 -1.91602,-0.125 -0.58333,-0.0833 -1.09657,-0.25 -1.54101,-0.5 -0.41667,-0.25001 -0.75,-0.61177 -1,-1.08399 -0.22223,-0.47222 -0.33399,-1.11046 -0.33399,-1.91601 0,-0.94445 0.0701,-1.97288 0.20899,-3.08399 0.13889,-1.11111 0.30555,-2.27778 0.5,-3.5 0.19444,-1.22222 0.40277,-2.4987 0.625,-3.83203 0.22222,-1.36111 0.41536,-2.7513 0.58203,-4.16797 0.17723,-1.49379 0.324,-2.82256 0.45508,-4.062499 -0.52173,0.881643 -1.15257,1.834339 -1.95508,2.896489 -0.91667,1.25 -1.98481,2.58333 -3.20703,4 -1.22223,1.41666 -2.50065,2.84657 -3.83399,4.29101 -1.58333,1.66667 -3.23676,3.27843 -4.95898,4.83399 -1.69445,1.52777 -3.54102,3.01453 -5.54102,4.45898 -3.88889,2.88889 -7.36046,4.33203 -10.41601,4.33203 -3.36111,0 -5.97288,-1.125 -7.83399,-3.375 -1.86111,-2.27778 -3.12435,-5.02778 -3.79101,-8.25 -0.66667,-3.19444 -1,-6.48611 -1,-9.875 0,-1.41667 0.16666,-3.624999 0.5,-6.624999 0.16666,-1.5 0.33333,-2.791667 0.5,-3.875 0.16666,-1.083334 -0.27491,-2.648868 -0.0805,-3.315534 0.38889,-1.305556 0.72562,-2.512847 1.97562,-3.485069 1.27777,-1.027778 3.71596,-1.195749 5.10485,-1.195749 0.75,0 1.67743,1.122654 1.67743,2.53932 0,0.944445 0.0396,2.150694 -0.15487,3.345139 -0.16667,1.194444 -1.0371,2.238195 -1.23155,3.404861 -0.36111,2.194445 -0.62435,4.166016 -0.79101,5.916016 -0.16667,1.722225 -0.25,3.222225 -0.25,4.500005 0,2.83333 0.38823,5.66666 1.16601,8.5 0.77778,2.91666 2.18121,4.375 4.20899,4.375 2.05555,0 4.44379,-0.75 7.16601,-2.25 1.36111,-0.77778 2.72288,-1.63954 4.08399,-2.58399 1.36111,-0.94444 2.72092,-1.99935 4.08203,-3.16601 1.41666,-1.16667 2.75,-2.33334 4,-3.5 1.25,-1.19445 2.5,-2.41602 3.75,-3.66602 1.25,-1.250001 2.34852,-2.416667 3.29297,-3.500001 0.77691,-1.473958 1.23285,-2.083333 1.36913,-3.195313 0.0556,-0.111111 0.1185,-0.710069 0.28517,-1.015625 0.16666,-0.305555 0.47449,-0.649111 0.9331,-0.715331 0.45849,-0.0662 0.66872,-0.127471 0.9507,0.05323 0.21001,0.170898 0.4011,0.705888 0.46338,1.043457 0.0965,0.318966 0.0868,0.722357 0.0981,0.737797 0.0549,-0.9067 0.0213,-2.44998 -0.0866,-3.283204 -0.14484,-1.11786 -0.37132,-2.181857 -0.37132,-3.292968 0,-0.444445 0.48962,-3.154154 0.71182,-3.709709 0.25,-0.555556 0.36902,-1.241427 0.70236,-1.713649 0.36111,-0.5 0.92394,-0.744034 1.34061,-1.077367 0.44444,-0.333333 0.86111,-0.5 1.25,-0.5 0.83333,0 1.48481,0.138238 1.95703,0.416016 0.5,0.277777 0.875,0.681206 1.125,1.208984 0.25,0.527778 0.40343,1.152778 0.45898,1.875 0.0833,0.722222 0.47026,2.839142 0.47026,3.728031 0,1.555555 -0.42158,4.161583 -0.78269,6.022694 -0.33334,1.861111 -0.70834,3.722873 -1.125,5.583984 -0.38889,1.861114 -0.75065,3.666014 -1.08399,5.416014 -0.33333,1.72222 -0.48676,3.22222 -0.45898,4.5 0.86111,-0.52778 1.8062,-1.40278 2.83398,-2.625 1.05556,-1.22222 2.13889,-2.56879 3.25,-4.04101 1.11111,-1.47223 2.22288,-2.97223 3.33399,-4.500004 1.11111,-1.527778 2.15277,-2.874349 3.125,-4.041016 1.16666,-1.361111 2.19314,-2.501302 3.08203,-3.417968 0.91666,-0.916667 1.76519,-1.708334 2.54297,-2.375 0.80555,-0.666667 1.55555,-1.25 2.25,-1.75 0.72222,-0.5 1.45703,-0.984809 2.20703,-1.457032 0.27778,-0.194444 0.65278,-0.376302 1.125,-0.542968 0.5,-0.166667 1,-0.304905 1.5,-0.416016 0.52778,-0.138889 1.01454,-0.250651 1.45898,-0.333984 0.44445,-0.08333 0.77778,-0.125 1,-0.125 0.30556,0 0.63889,0.125 1,0.375 0.36111,0.25 0.69445,0.556857 1,0.917968 0.33334,0.361111 0.61176,0.749349 0.83399,1.166016 0.22222,0.416667 0.33203,0.778429 0.33203,1.083984 0,1.166667 -0.0833,2.638238 -0.25,4.416016 -0.13889,1.777778 -0.30556,3.624349 -0.5,5.541016 -0.16667,1.888889 -0.33334,3.737408 -0.5,5.542968 -0.13889,1.77778 -0.20703,3.26259 -0.20703,4.45703 0,0.38889 0.0549,0.82075 0.16601,1.29297 0.13889,0.47222 0.3188,0.93055 0.54102,1.375 0.25,0.41667 0.55686,0.77648 0.91797,1.08203 0.36111,0.27778 0.79101,0.41797 1.29101,0.41797 1.83334,0 3.67991,-0.36176 5.54102,-1.08398 1.88889,-0.75001 3.73741,-1.75 5.54297,-3 1.80555,-1.27778 3.55555,-2.74935 5.25,-4.41602 1.72222,-1.66667 3.31879,-3.431857 4.79101,-5.292968 0.94445,-1.166667 1.81945,-2.346572 2.625,-3.541016 0.83334,-1.222222 1.58334,-2.36046 2.25,-3.416016 0.66667,-1.083333 1.09865,-1.435376 1.57088,-2.296487 0.21041,-0.362378 0.43196,-1.169771 0.59319,-1.463278 0.11383,-0.735943 0.23621,-1.516856 0.29492,-1.908203 0.0556,-0.5 0.12369,-1.25 0.20703,-2.25 0.0833,-1 0.16666,-2.125 0.25,-3.375 0.11111,-1.25 0.22287,-2.554905 0.33398,-3.916016 0.11111,-1.388889 0.20768,-2.693793 0.29102,-3.916016 0.11111,-1.222222 0.19444,-2.305555 0.25,-3.25 0.0833,-0.944444 0.14019,-1.611111 0.16797,-2 l 0.33203,-4.083984 c 0.0278,-0.472222 0.22287,-0.917318 0.58398,-1.333984 0.36111,-0.416667 0.79102,-0.776476 1.29102,-1.082032 0.52778,-0.305555 1.08463,-0.542317 1.66797,-0.708984 0.58333,-0.194444 1.125,-0.291016 1.625,-0.291016 z"
       id="path961"
       inkscape:connector-curvature="0"
       transform="matrix(0.26458333,0,0,0.26458333,11.165823,34.694823)"
       sodipodi:nodetypes="scscsccscscsccscccsscscccccccccccccccccsscccccccccccccccccccccscccscccccccccccccccscscscccccccsccscscscccccscccccccccccccccsscccccccccsccsccccsscccscsccccsccccscccscccscscsccccccsccccccccssccscccscccscccccccccccccccccccccc" />
    <path
       style="display:inline;opacity:1;fill:#314455;fill-opacity:1;fill-rule:nonzero;stroke:none;stroke-width:1.11382759;stroke-linecap:butt;stroke-linejoin:round;stroke-miterlimit:4;stroke-dasharray:none;stroke-dashoffset:0;stroke-opacity:1;paint-order:normal"
       d="m 245,162.51969 h -45 c -4.20397,0 -23.92028,2.08338 -28.5625,3.38669 -4.64222,1.30331 -10.80882,3.16397 -16.29939,5.09413 -4.90461,1.77859 -6.65767,2.66505 -10.14592,4.47228 -5.29128,2.93302 -7.35424,4.69513 -10.53516,7.64648 -3.4658,3.21567 -7.26457,6.59708 -9.16623,10.82365 -0.78515,1.74504 -2.41118,6.48019 -2.50884,8.32857 -0.23219,2.52066 0.32865,6.24467 1.00573,8.63045 0.67709,2.38579 0.97721,3.58072 2.62049,5.60922 1.64328,2.02851 5.56151,4.59879 7.56306,5.70318 2.10184,1.29367 8.63473,3.93243 11.23937,4.96715 5.26485,2.09151 7.27167,2.53465 16.86533,5.66067 4.95851,1.50912 9.78298,2.64433 13.36688,4.23412 3.33202,0.87186 6.34484,1.92812 9.17282,3.99294 2.54462,1.03776 4.17558,3.17623 5.50807,5.49804 2.06956,3.52583 1.78722,7.45624 0.58846,10.91606 -0.64684,1.83229 -0.788,2.17256 -2.08152,4.05896 -1.29353,1.88639 -2.86918,3.61061 -4.72852,5.17383 -1.85934,1.56322 -4.0074,2.35473 -6.43276,3.59436 -1.38104,0.52215 -2.27086,0.96679 -3.46001,1.1875 -1.2868,0.46485 -2.85353,0.7547 -4.24139,1.06459 -2.77573,0.61978 -5.66643,0.46947 -8.84635,0.46947 -3.98837,0 -7.00842,-0.25872 -9.81107,-0.79769 -2.82511,-0.6289 -3.32575,-0.60504 -4.72707,-1.25182 -1.29352,-0.64677 -1.11363,-0.56555 -1.60914,-0.85163 0.22351,-0.38713 0.23041,-0.41248 0.55379,-0.84365 0.43117,-0.43118 0.30468,-1.14928 0.30468,-1.47266 0,-0.26949 -0.84479,-0.91014 -1.16796,-1.04492 -0.32318,-0.13478 -0.85715,-0.10547 -1.50391,-0.10547 -0.43118,10e-6 -1.93295,0.32387 -2.55273,0.9707 -0.61978,0.64683 -1.77358,2.20257 -2.58203,3.49609 -1.21282,2.24458 -1.60472,3.82613 -2.06836,6.1172 -0.16373,1.32095 0.37958,2.4531 1.29101,3.92772 1.02362,0.78112 3.38942,2.36925 5.4375,2.90822 1.02405,0.29643 18.09361,3.14532 37.51367,3.43557 28.33554,0.42351 36.15495,-0.0276 70,0 33.84506,0.0276 85.28517,-0.55243 111.47882,-0.55243 26.19365,0 26.84957,0.21596 42.34798,-6.44986 15.49841,-6.66582 12.5831,-29.67959 -2.61273,-35.76811 -7.33747,-2.93991 -16.34819,-6.55331 -26.74879,-12.8002 -20.96169,-12.59017 -19.94292,-28.90194 -6.3666,-41.38763 9.35615,-8.60454 29.72793,-11.77639 44.01259,-16.79181 6.79069,-2.38424 2.08278,-11.64757 -12.11126,-11.24996 -72.04799,-0.75016 -82.95254,-0.37317 -155.00001,0 z"
       id="path841"
       inkscape:connector-curvature="0"
       sodipodi:nodetypes="cczccasczzcsccccccsccssccccsccsccccszzzsssscc"
       transform="scale(0.26458333)" />
    <g
       aria-label="tory"
       style="font-style:normal;font-variant:normal;font-weight:normal;font-stretch:normal;font-size:14.11111069px;line-height:1.25;font-family:'Ink Free';-inkscape-font-specification:'Ink Free, Normal';font-variant-ligatures:normal;font-variant-caps:normal;font-variant-numeric:normal;font-feature-settings:normal;text-align:start;letter-spacing:0px;word-spacing:0px;writing-mode:lr-tb;text-anchor:start;fill:#ff6567;fill-opacity:1;stroke:none;stroke-width:0.26458332"
       id="text4566">
      <path
         d="m 62.979497,56.428165 c 0,0.287867 -0.116407,0.865924 -0.368081,1.022135 -0.239452,0.148625 -0.680092,0.252101 -1.3208,0.3556 -1.561015,0.252164 -2.429933,0.423333 -2.6162,0.457199 l -1.431755,0.315941 c 0,0.880533 -0.0044,1.441665 0.01248,2.406865 0.03387,0.9652 0.0762,1.811867 0.126999,2.54 0.06773,0.982133 0.186267,1.735667 0.3556,2.2606 0.169333,0.524933 0.04322,0.784726 0.06016,0.852459 0,0.169333 -0.110067,0.321733 -0.3302,0.4572 -0.2032,0.1524 -0.397933,0.2286 -0.5842,0.2286 -0.1016,0 -0.515133,0.03921 -0.582867,-0.02852 -0.06773,-0.0508 -0.127,-0.143934 -0.1778,-0.2794 -0.1016,-0.237067 -0.2032,-0.677334 -0.3048,-1.3208 -0.08467,-0.643467 -0.1524,-1.354667 -0.2032,-2.1336 -0.0508,-0.694267 -0.09313,-1.4986 -0.126999,-2.413 -0.01693,-0.931334 -0.01248,-1.647932 -0.01248,-2.511532 -0.948266,0.1524 -1.593066,0.265585 -2.592133,0.485718 -0.897467,0.186267 -1.430867,0.2794 -1.6002,0.2794 -0.2032,0 -0.43669,-0.162623 -0.622957,-0.281153 -0.169333,-0.118533 -0.228162,-0.356915 -0.228162,-0.560115 0,-0.220133 0.0762,-0.364067 0.2286,-0.4318 0.1524,-0.06773 0.4064,-0.1016 0.762,-0.1016 0.254,0 0.626533,-0.04233 1.1176,-0.127 0.491067,-0.1016 0.804333,-0.169333 0.9398,-0.2032 1.134533,-0.220133 1.612674,-0.364067 2.019074,-0.4318 0,-0.3556 -0.01693,-0.821267 -0.0508,-1.397 -0.03387,-0.778933 -0.0508,-1.3716 -0.0508,-1.778 0,-0.6604 0.01693,-1.1684 0.0508,-1.524 0.0508,-0.372533 0.135467,-0.702733 0.254,-0.9906 0.135467,-0.338667 0.681793,-0.508 1.054326,-0.508 0.1524,0 0.254,0.0254 0.3048,0.0762 0.0508,0.0508 0.0762,0.143933 0.0762,0.2794 0,0.1016 -0.04233,0.397933 -0.127,0.889 -0.08467,0.491067 -0.127,1.143 -0.127,1.9558 0,0.626533 0.01693,1.329267 0.0508,2.1082 l 0.0254,0.6858 c 0.762,-0.118533 2.269067,-0.4318 4.5212,-0.939799 0.135467,-0.03387 0.245533,-0.1524 0.3302,-0.3556 0.1016,-0.2032 0.2032,-0.3048 0.3048,-0.3048 0.186267,0 0.372533,0.110067 0.5588,0.3302 0.2032,0.2032 0.3048,0.414867 0.3048,0.635 z"
         style="font-size:25.39999962px;line-height:1.25;writing-mode:lr-tb;fill:#ff6567;fill-opacity:1;stroke-width:0.26458332"
         id="path876"
         inkscape:connector-curvature="0"
         sodipodi:nodetypes="sssccccsccscccccccscsssccccsccsssssccccscss" />
      <path
         d="m 73.092268,61.685965 c 0,0.6604 -0.245533,1.4224 -0.7366,2.285999 -0.491067,0.8636 -1.185334,1.608667 -2.082801,2.2352 -0.897467,0.6096 -1.921933,0.9144 -3.0734,0.9144 -1.134533,0 -1.972733,-0.313267 -2.514599,-0.9398 -0.541867,-0.626533 -1.032045,-1.442008 -1.032045,-2.373341 0,-0.8128 0.180474,-1.820333 0.468341,-3.0226 0.3048,-1.202267 0.782944,-2.277533 1.324811,-3.2258 0.03387,-0.06773 0.187604,-0.386348 0.424671,-0.809681 0.254,-0.440267 0.56994,-0.752197 0.87474,-0.97233 0.3048,-0.237067 0.699615,-0.264248 1.038282,-0.264248 0.1524,0 0.287867,0.04233 0.4064,0.127 0.135467,0.06773 0.2032,0.160867 0.2032,0.2794 0,0.03387 -0.0508,0.118533 -0.1524,0.254 -0.08467,0.118533 -0.1524,0.211667 -0.2032,0.2794 -0.575733,0.694267 -0.840426,1.380067 -1.196026,2.0574 -0.474133,0.8636 -0.864937,1.737003 -1.13587,2.58367 -0.254,0.846667 -0.344459,1.6051 -0.344459,2.604167 0,1.337733 0.410851,1.860437 2.036451,1.860437 0.762,0 1.464734,-0.220133 2.1082,-0.6604 0.6604,-0.440267 0.966089,-0.754422 1.355556,-1.380956 0.389466,-0.643466 0.730363,-1.154585 0.730363,-1.679518 0,-0.592667 -0.231274,-1.109133 -0.620741,-1.5494 -0.389467,-0.440267 -0.849785,-0.72323 -1.527119,-1.214296 -0.440266,-0.321734 -0.743729,-0.639011 -0.946929,-0.842211 -0.2032,-0.2032 -0.103826,-0.500426 -0.103826,-0.635893 0,-0.2032 0.143933,-0.364067 0.4318,-0.4826 0.287867,-0.135467 0.626533,-0.2032 1.016,-0.2032 0.220133,0 0.364067,0.01693 0.4318,0.0508 0.06773,0.01693 0.1016,0.05927 0.1016,0.127 0,0.03387 -0.03387,0.09313 -0.1016,0.1778 -0.0508,0.06773 -0.0762,0.127 -0.0762,0.1778 0,0.0508 0.169333,0.220133 0.508,0.508 0.677333,0.558801 1.2446,1.126068 1.7018,1.701801 0.4572,0.575733 0.6858,1.253067 0.6858,2.032 z"
         style="font-size:25.39999962px;line-height:1.25;writing-mode:lr-tb;fill:#ff6567;fill-opacity:1;stroke-width:0.26458332"
         id="path878"
         inkscape:connector-curvature="0"
         sodipodi:nodetypes="sscsssccccscsccccssccsscsscscscscss" />
      <path
         d="m 83.855121,56.250365 c 0,0.1524 0.109558,0.523987 -0.110575,0.727187 -0.2032,0.186267 -0.536029,0.331076 -0.688429,0.331076 -0.118533,0 -0.301663,-0.03788 -0.420196,-0.139481 -0.1016,-0.1016 -0.220133,-0.219695 -0.3556,-0.405962 -0.118533,-0.169333 -0.253561,-0.339105 -0.456761,-0.457639 -0.186267,-0.118533 -0.406838,-0.151962 -0.610038,-0.151962 -0.491067,0 -0.789732,0.574419 -1.619466,1.878286 -0.829733,1.286933 -1.332475,2.886695 -2.128341,4.850962 0.01693,0.389466 -0.319405,0.673827 -0.285535,1.266494 0.0508,0.592666 0.08467,1.032933 0.1016,1.3208 l 0.0762,1.016 c 0,0.237066 -0.102477,0.491943 -0.204077,0.661276 -0.1016,0.186267 -0.546249,0.253562 -0.817182,0.253562 -0.287867,0 -0.758353,-0.432676 -0.84302,-1.194676 -0.08467,-0.778933 -0.135467,-1.905 -0.1524,-3.3782 -0.01693,-0.372533 -0.03387,-0.905933 -0.0508,-1.6002 0,-0.694267 -0.01693,-1.524 -0.0508,-2.4892 -0.0508,-1.456267 -0.0762,-2.497667 -0.0762,-3.1242 0,-0.389467 0.521287,-0.532524 0.99542,-0.532524 0.287867,0 0.4572,0.127 0.508,0.381 0.06773,0.237067 0.1016,0.702733 0.1016,1.397 l -1e-6,4.0386 c 0.508,-1.303867 1.058333,-2.429933 1.651,-3.3782 0.592667,-0.948267 1.168401,-1.667933 1.727201,-2.159 0.575733,-0.508 1.083733,-0.762 1.524,-0.761999 0.372533,0 0.728133,0.08467 1.0668,0.254 0.338667,0.169333 0.6096,0.389467 0.8128,0.6604 0.2032,0.254 0.3048,0.499533 0.3048,0.7366 z"
         style="font-size:25.39999962px;line-height:1.25;writing-mode:lr-tb;fill:#ff6567;fill-opacity:1;stroke-width:0.26458332"
         id="path880"
         inkscape:connector-curvature="0"
         sodipodi:nodetypes="scscccsccccccsccccsscscsccscs" />
      <path
         d="m 94.067509,55.716965 c 0,0.389467 0.162655,1.236133 -0.02362,2.54 -0.2032,1.490133 -0.313267,2.328333 -0.3302,2.5146 -0.220133,2.082799 -0.381,3.674532 -0.4826,4.775199 -0.08467,1.083733 -0.127,2.065867 -0.127,2.9464 0,0.728133 0.160423,1.194245 0.262023,1.617578 0.118533,0.423333 0.163984,0.790073 0.282517,1.02714 0.135467,0.254 -0.08913,0.479482 -0.08913,0.530282 0,0.1524 -0.135467,0.287867 -0.4064,0.4064 -0.270933,0.118533 -0.550333,0.1778 -0.8382,0.1778 -0.220133,0 -0.397933,-0.296333 -0.533399,-0.889 -0.118533,-0.592667 -0.1778,-1.515533 -0.1778,-2.7686 0,-0.948267 0.09313,-2.226733 0.2794,-3.8354 l 0.381,-3.5052 c -0.4572,0.880533 -1.024467,1.7272 -1.7018,2.54 -0.6604,0.795867 -1.3462,1.1938 -2.0574,1.1938 -0.6604,0 -1.253067,-0.575733 -1.778,-1.7272 -0.524933,-1.151467 -0.9398,-2.455333 -1.2446,-3.9116 -0.287866,-1.456267 -0.431799,-2.523067 -0.431799,-3.2004 0,-0.423333 0.127,-0.635 0.381,-0.635 0.372533,0 1.121171,0.127889 1.222771,0.822156 0.643466,4.707466 0.95628,6.732332 2.107746,6.732332 0.4572,0 0.745512,0.0049 1.084178,-0.350696 0.3556,-0.372533 0.405059,-0.830178 0.879193,-1.592178 0.220133,-0.3556 0.4572,-0.756652 0.7112,-1.349318 0.254,-0.592667 0.339111,-1.010652 0.474577,-1.400119 l 0.835535,-2.455776 c 0.03387,-0.389467 0.08467,-0.6604 0.1524,-0.8128 0.06773,-0.169333 0.2032,-0.254 0.4064,-0.254 0.169333,0 0.338667,0.1016 0.508,0.3048 0.169333,0.186267 0.254,0.372533 0.254,0.5588 z"
         style="font-size:25.39999962px;line-height:1.25;writing-mode:lr-tb;fill:#ff6567;fill-opacity:1;stroke-width:0.26458332"
         id="path882"
         inkscape:connector-curvature="0"
         sodipodi:nodetypes="ccccsccssscscccsscsscsccscccscsc" />
    </g>
    <path
       style="font-style:normal;font-variant:normal;font-weight:normal;font-stretch:normal;font-size:12.44685173px;line-height:1.25;font-family:'Ink Free';-inkscape-font-specification:'Ink Free, Normal';font-variant-ligatures:normal;font-variant-caps:normal;font-variant-numeric:normal;font-feature-settings:normal;text-align:start;letter-spacing:0px;word-spacing:0px;writing-mode:lr-tb;text-anchor:start;fill:#ff6567;fill-opacity:1;stroke:none;stroke-width:1.17608058"
       d="m 396.07422,178.57617 c 1.49128,-0.41743 2.97497,-0.86493 4.44922,-1.27734 0.96261,-0.26928 1.79777,-0.56498 2.74414,-0.83594 0.0831,-0.81565 0.29494,-2.01529 0.35742,-2.76953 -0.34375,-0.99415 -0.79688,-1.92458 -1.35938,-2.78906 -0.53124,-0.90771 -1.17187,-1.36133 -1.92187,-1.36133 -0.625,0 -1.28125,0.69105 -1.96875,2.07422 -0.65625,1.38316 -1.32813,3.28649 -2.01562,5.70703 -0.0975,0.35313 -0.18837,0.87974 -0.28516,1.25195 z"
       id="path872"
       transform="scale(0.26458333)"
       inkscape:connector-curvature="0" />
    <path
       style="font-style:normal;font-variant:normal;font-weight:normal;font-stretch:normal;font-size:12.44685173px;line-height:1.25;font-family:'Ink Free';-inkscape-font-specification:'Ink Free, Normal';font-variant-ligatures:normal;font-variant-caps:normal;font-variant-numeric:normal;font-feature-settings:normal;text-align:start;letter-spacing:0px;word-spacing:0px;writing-mode:lr-tb;text-anchor:start;fill:#314455;fill-opacity:1;stroke:none;stroke-width:1.17608058"
       d="m 396.33398,242.68945 c -0.055,-1.3585 -0.20898,-2.47147 -0.20898,-3.96679 0,-2.11798 0.0469,-4.36488 0.14062,-6.74219 0.0937,-2.42054 0.21876,-4.86241 0.375,-7.32617 0.1875,-2.46377 0.40626,-4.90564 0.65626,-7.32618 0.28124,-2.46376 0.60937,-4.84194 0.98437,-7.13281 1.3125,-8.16932 2.4375,-15.2575 3.375,-21.26562 0.79266,-4.91604 1.23711,-8.79512 1.61133,-12.4668 -0.94637,0.27096 -1.78153,0.56666 -2.74414,0.83594 -1.47425,0.41241 -2.95794,0.85991 -4.44922,1.27734 -0.55482,2.13352 -1.10456,4.41553 -1.63672,7.17578 -0.625,3.19857 -1.21875,6.65579 -1.78125,10.37305 -0.5625,3.71726 -1.07813,7.5876 -1.54687,11.60742 -0.46875,4.01983 -0.87501,8.01754 -1.21876,11.99414 -0.34374,3.93338 -0.60937,7.75735 -0.79687,11.47461 -0.1534,3.00578 -0.20257,5.69844 -0.23047,8.32813 0.04,0.0184 0.0851,0.0422 0.125,0.0605 2.68546,1.23263 4.94433,2.11227 7.3457,3.09961 z"
       id="path869"
       inkscape:connector-curvature="0"
       transform="scale(0.26458333)" />
    <path
       style="font-style:normal;font-variant:normal;font-weight:normal;font-stretch:normal;font-size:12.44685173px;line-height:1.25;font-family:'Ink Free';-inkscape-font-specification:'Ink Free, Normal';font-variant-ligatures:normal;font-variant-caps:normal;font-variant-numeric:normal;font-feature-settings:normal;text-align:start;letter-spacing:0px;word-spacing:0px;writing-mode:lr-tb;text-anchor:start;fill:#314455;fill-opacity:1;stroke:none;stroke-width:1.17608058"
       d="m 413.83789,267.38867 c 0.0326,-0.0298 0.067,-0.0422 0.0996,-0.0723 1.78125,-1.64251 3.48438,-3.50143 5.10938,-5.57618 1.65624,-2.11797 3.10937,-4.30118 4.35937,-6.54882 0.375,-0.69159 0.79688,-1.55638 1.26563,-2.59375 0.49999,-1.03738 0.96875,-2.07396 1.40624,-3.11133 0.46875,-1.0806 1.20629,-1.92332 1.48753,-2.87425 0.3125,-0.99415 0.2616,-1.23294 0.2616,-1.75163 -1e-5,-1.25349 -0.23275,-3.33098 -0.73274,-3.33098 -0.125,0 -1.57303,0.0905 -1.94802,0.60921 -0.375,0.47546 0.0559,1.93631 -0.41287,2.62789 -0.4375,0.64836 -0.73362,1.3912 -1.23362,2.12601 -0.46875,0.7348 -0.875,1.33899 -1.21875,1.81445 -1.09375,1.51284 -2.28125,3.06868 -3.5625,4.66797 -1.28125,1.55606 -2.64063,3.00576 -4.07813,4.3457 -0.45268,0.41743 -0.96471,0.67033 -1.43359,1.04297 0.32935,1.21132 0.70806,2.41719 0.82422,3.65235 0.1573,1.67268 0.056,3.34156 -0.19336,4.97265 z"
       id="path867"
       transform="scale(0.26458333)"
       inkscape:connector-curvature="0"
       sodipodi:nodetypes="ccccccccscccccccccc" />
    <path
       style="font-style:normal;font-variant:normal;font-weight:normal;font-stretch:normal;font-size:12.44685173px;line-height:1.25;font-family:'Ink Free';-inkscape-font-specification:'Ink Free, Normal';font-variant-ligatures:normal;font-variant-caps:normal;font-variant-numeric:normal;font-feature-settings:normal;text-align:start;letter-spacing:0px;word-spacing:0px;writing-mode:lr-tb;text-anchor:start;fill:#ff6567;fill-opacity:1;stroke:none;stroke-width:1.17608058"
       d="m 413.83789,267.38867 c 0.2494,-1.63109 0.35066,-3.29997 0.19336,-4.97265 -0.11616,-1.23516 -0.49487,-2.44103 -0.82422,-3.65235 -0.98767,0.78494 -1.96002,1.61108 -3.01953,2.19727 -1.5625,0.82125 -3.14063,1.23242 -4.73438,1.23242 -3.37499,0 -5.78125,-2.00947 -7.21874,-6.0293 -1.12826,-3.25984 -1.67736,-7.96104 -1.9004,-13.47461 -2.40137,-0.98734 -4.66024,-1.86698 -7.3457,-3.09961 -0.0399,-0.0183 -0.085,-0.0422 -0.125,-0.0605 -0.006,0.58464 -0.0508,1.2855 -0.0508,1.85156 0,5.01397 0.28125,9.4885 0.84375,13.42187 0.5625,3.89016 1.42188,7.17559 2.57813,9.85547 1.18749,2.63666 2.6875,4.64613 4.5,6.0293 1.84374,1.38317 4.03125,2.07422 6.5625,2.07422 1.65624,0 3.39062,-0.49609 5.20312,-1.49024 1.81,-0.97595 3.58812,-2.28201 5.33789,-3.88281 z"
       id="text836"
       transform="scale(0.26458333)"
       inkscape:connector-curvature="0" />
    <g
       aria-label="S"
       transform="scale(1.0241025,0.97646473)"
       style="font-style:normal;font-variant:normal;font-weight:normal;font-stretch:normal;font-size:20.09431648px;line-height:1.25;font-family:'Ink Free';-inkscape-font-specification:'Ink Free, Normal';font-variant-ligatures:normal;font-variant-caps:normal;font-variant-numeric:normal;font-feature-settings:normal;text-align:start;letter-spacing:0px;word-spacing:0px;writing-mode:lr-tb;text-anchor:start;fill:#ff6567;fill-opacity:1;stroke:none;stroke-width:0.50235796"
       id="text854">
      <path
         d="m 53.450442,67.805442 c 0,1.428929 -0.485836,2.843568 -1.457508,4.243919 -0.943093,1.371772 -2.286287,2.486337 -4.02958,3.343694 -1.714715,0.885936 -3.672348,1.328904 -5.872899,1.328904 -1.857608,0 -3.329405,-0.157182 -4.415391,-0.471546 -1.085986,-0.285786 -1.93174,-0.488487 -1.93174,-1.03148 0,-0.285786 0.0739,-0.757333 0.473999,-1.41464 0.428679,-0.685886 0.505031,-0.922985 0.73366,-0.922985 0.342943,0 -0.119401,0.608692 -0.119401,0.751585 0,0.08574 0.364678,0.270461 0.566322,0.368496 0.201645,0.09803 0.368211,0.169934 0.601803,0.222928 0.233592,0.053 0.44415,0.126462 0.790152,0.19123 0.346001,0.06477 0.630031,0.124945 1.287536,0.171671 0.657505,0.04673 1.598668,0.02469 2.656075,0.02469 1.686137,0 3.157934,-0.447728 4.415391,-1.105035 1.286037,-0.657307 2.271998,-1.486086 2.957884,-2.486337 0.685886,-1.00025 1.028829,-1.971922 1.028829,-2.915015 0,-1.228879 -0.60015,-2.286287 -1.800451,-3.172223 -1.171722,-0.885936 -3.036517,-1.916111 -5.665746,-2.716311 -2.543494,-0.828779 -4.444055,-1.552087 -5.844406,-2.09508 -1.371772,-0.571572 -2.486337,-1.107772 -3.343694,-1.907972 -0.857357,-0.828779 -1.393078,-1.754187 -1.393078,-2.925909 0,-1.571822 0.885936,-3.115065 2.657808,-4.62973 1.771872,-1.543243 3.958134,-2.786412 6.558785,-3.729505 2.600651,-0.971672 5.015541,-1.457508 7.24467,-1.457508 1.143143,0 1.757583,0.228629 1.843319,0.685886 0.08573,0.457257 0.128603,0.971672 0.128603,1.543244 0,0.428679 -0.157182,0.643018 -0.471546,0.643018 -0.142893,0 -0.314365,-0.04287 -0.514415,-0.128604 -0.171471,-0.114314 -0.328653,-0.20005 -0.471546,-0.257207 -0.171471,-0.05716 -0.371521,-0.114317 -0.60015,-0.171472 -0.228629,-0.05715 -0.557283,-0.08573 -0.985962,-0.08573 -1.486086,0 -3.272247,0.385811 -5.358484,1.157432 -2.086237,0.771622 -3.900977,1.729005 -5.44422,2.872148 -1.514665,1.143143 -2.271997,2.243419 -2.271997,3.300826 0,0.857357 0.342943,1.600401 1.028829,2.22913 0.714465,0.628729 1.657558,1.171722 2.829279,1.628979 1.171722,0.428679 2.82928,0.971672 4.972674,1.628979 3.143644,0.914515 5.458509,1.943344 6.944595,3.086487 1.514665,1.143143 2.271998,2.543494 2.271998,4.201052 z"
         style="font-size:42.86787415px;fill:#ff6567;fill-opacity:1;stroke-width:0.50235796"
         id="path871"
         inkscape:connector-curvature="0"
         sodipodi:nodetypes="cccscscsszzzzscssccccsccscsscccsscscccccc" />
    </g>
    <g
       id="g851"
       style="font-style:normal;font-variant:normal;font-weight:normal;font-stretch:normal;font-size:20.09431648px;line-height:1.25;font-family:'Ink Free';-inkscape-font-specification:'Ink Free, Normal';font-variant-ligatures:normal;font-variant-caps:normal;font-variant-numeric:normal;font-feature-settings:normal;text-align:start;letter-spacing:0px;word-spacing:0px;writing-mode:lr-tb;text-anchor:start;fill:#314455;fill-opacity:1;stroke:none;stroke-width:0.50235796"
       transform="scale(1.0241025,0.97646473)"
       aria-label="S" />
  </g>
</svg>
