<?xml version="1.0" encoding="UTF-8" standalone="no"?>
<!-- Created with Inkscape (http://www.inkscape.org/) -->

<svg
   xmlns:dc="http://purl.org/dc/elements/1.1/"
   xmlns:cc="http://creativecommons.org/ns#"
   xmlns:rdf="http://www.w3.org/1999/02/22-rdf-syntax-ns#"
   xmlns:svg="http://www.w3.org/2000/svg"
   xmlns="http://www.w3.org/2000/svg"
   xmlns:sodipodi="http://sodipodi.sourceforge.net/DTD/sodipodi-0.dtd"
   xmlns:inkscape="http://www.inkscape.org/namespaces/inkscape"
   width="140.65735mm"
   height="30.569296mm"
   viewBox="0 0 140.65736 30.569295"
   version="1.1"
   id="svg8"
   sodipodi:docname="storylink_ulti.svg"
   inkscape:version="0.92.5 (0.92.5+68)"
   inkscape:export-filename="/home/martin/Escritorio/ostorylink.png"
   inkscape:export-xdpi="26.056129"
   inkscape:export-ydpi="26.056129">
  <defs
     id="defs2">
    <inkscape:perspective
       sodipodi:type="inkscape:persp3d"
       inkscape:vp_x="0 : 25.813409 : 1"
       inkscape:vp_y="0 : 999.99994 : 0"
       inkscape:vp_z="152.18701 : 25.813409 : 1"
       inkscape:persp3d-origin="76.093501 : 17.208939 : 1"
       id="perspective911" />
  </defs>
  <sodipodi:namedview
     id="base"
     pagecolor="#ffffff"
     bordercolor="#666666"
     borderopacity="1.0"
     inkscape:pageopacity="0.0"
     inkscape:pageshadow="2"
     inkscape:zoom="1.4142136"
     inkscape:cx="248.82754"
     inkscape:cy="80.2938"
     inkscape:document-units="mm"
     inkscape:current-layer="layer1-5"
     showgrid="true"
     inkscape:snap-intersection-paths="true"
     inkscape:snap-smooth-nodes="true"
     inkscape:snap-midpoints="true"
     inkscape:snap-object-midpoints="true"
     inkscape:snap-center="true"
     inkscape:snap-others="true"
     inkscape:snap-grids="false"
     inkscape:snap-nodes="true"
     inkscape:window-width="1366"
     inkscape:window-height="715"
     inkscape:window-x="0"
     inkscape:window-y="0"
     inkscape:window-maximized="1"
     inkscape:snap-text-baseline="false"
     inkscape:snap-bbox="false"
     inkscape:snap-bbox-edge-midpoints="true"
     inkscape:snap-bbox-midpoints="true"
     inkscape:bbox-nodes="true"
     inkscape:bbox-paths="true"
     inkscape:object-nodes="true"
     inkscape:object-paths="true"
     inkscape:snap-page="false"
     inkscape:snap-to-guides="true"
     fit-margin-bottom="0"
     fit-margin-top="0"
     fit-margin-left="0"
     fit-margin-right="0"
     showguides="false"
     inkscape:snap-global="false">
    <inkscape:grid
       type="xygrid"
       id="grid815"
       originx="-10.306078"
       originy="-212.18468" />
  </sodipodi:namedview>
  <metadata
     id="metadata5">
    <rdf:RDF>
      <cc:Work
         rdf:about="">
        <dc:format>image/svg+xml</dc:format>
        <dc:type
           rdf:resource="http://purl.org/dc/dcmitype/StillImage" />
        <dc:title></dc:title>
      </cc:Work>
    </rdf:RDF>
  </metadata>
  <g
     inkscape:label="Capa 1"
     inkscape:groupmode="layer"
     id="layer1"
     transform="translate(-10.306074,-54.246017)">
    <path
       style="display:inline;opacity:1;fill:#314455;fill-opacity:1;fill-rule:nonzero;stroke:none;stroke-width:2.26328778;stroke-linecap:square;stroke-linejoin:round;stroke-miterlimit:4;stroke-dasharray:none;stroke-dashoffset:0;stroke-opacity:1;paint-order:normal"
       d="m 137.63395,62.59195 c -0.01,0.003 -0.0182,0.004 -0.0279,0.0072 -0.15434,0.0441 -0.30168,0.106736 -0.44132,0.187586 -0.1323,0.08084 -0.24608,0.176044 -0.34158,0.286287 -0.0955,0.110243 -0.14751,0.228008 -0.15451,0.35295 l -0.0879,1.080554 c -0.007,0.102893 -0.0224,0.279283 -0.0444,0.529167 -0.0147,0.249885 -0.0368,0.536517 -0.0661,0.859896 -0.0221,0.32338 -0.0476,0.668635 -0.077,1.036112 -0.0294,0.360127 -0.059,0.705384 -0.0884,1.036113 -0.022,0.33073 -0.0442,0.628385 -0.0661,0.892968 -0.0221,0.264583 -0.0401,0.463021 -0.0548,0.595313 -0.0155,0.103543 -0.0479,0.310161 -0.078,0.504879 -0.0427,0.07766 -0.10139,0.291176 -0.15709,0.387056 -0.12495,0.227836 -0.23909,0.321084 -0.41548,0.607715 -0.17639,0.279283 -0.37482,0.580442 -0.59531,0.903821 -0.21314,0.31603 -0.44466,0.628212 -0.69454,0.936893 -0.38953,0.492419 -0.81194,0.959459 -1.26762,1.400432 -0.44832,0.440973 -0.91134,0.830324 -1.38906,1.168404 -0.47772,0.330729 -0.96681,0.59531 -1.46658,0.79375 -0.49241,0.191084 -0.98099,0.286804 -1.46606,0.286804 -0.13229,0 -0.24598,-0.03709 -0.34158,-0.110588 -0.0955,-0.08084 -0.17668,-0.176044 -0.24288,-0.286287 -0.0587,-0.117595 -0.10644,-0.23886 -0.14314,-0.363802 -0.0294,-0.124941 -0.0439,-0.239204 -0.0439,-0.342098 0,-0.316029 0.018,-0.708885 0.0548,-1.179256 0.0441,-0.477721 0.0882,-0.966808 0.13229,-1.466577 0.0515,-0.507118 0.0955,-0.995691 0.13229,-1.466061 0.0441,-0.470371 0.0662,-0.859724 0.0662,-1.168404 0,-0.08085 -0.0291,-0.176561 -0.0879,-0.286804 -0.0588,-0.110244 -0.13246,-0.212968 -0.22066,-0.308508 -0.0808,-0.09554 -0.16908,-0.17673 -0.26458,-0.242879 -0.0955,-0.06615 -0.18379,-0.09922 -0.26459,-0.09922 -0.0588,0 -0.14698,0.01102 -0.26458,0.03307 -0.11759,0.02205 -0.24638,0.05162 -0.38602,0.08837 -0.13229,0.0294 -0.26459,0.06597 -0.39688,0.110071 -0.12495,0.0441 -0.22415,0.09221 -0.29766,0.143661 -0.19844,0.124942 -0.39286,0.253214 -0.58394,0.385506 -0.18374,0.132291 -0.38217,0.286632 -0.59531,0.463021 -0.20578,0.176389 -0.4303,0.38585 -0.67283,0.628385 -0.23519,0.242534 -0.50677,0.544211 -0.81545,0.904338 -0.25723,0.308681 -0.53284,0.66496 -0.82683,1.069185 -0.29397,0.404223 -0.58813,0.801097 -0.88211,1.190625 -0.29398,0.389524 -0.58062,0.745806 -0.8599,1.069185 -0.27194,0.32338 -0.52198,0.55489 -0.74982,0.694532 -0.007,-0.33808 0.0332,-0.734955 0.12144,-1.190625 0.0882,-0.463021 0.1839,-0.940569 0.2868,-1.432988 0.11024,-0.492419 0.20946,-0.98501 0.29766,-1.477429 0.0956,-0.492419 0.20722,-1.182127 0.20722,-1.593701 0,-0.235185 -0.10254,-0.795415 -0.12454,-0.986503 -0.0147,-0.191088 -0.0553,-0.355936 -0.12144,-0.495577 -0.0662,-0.139642 -0.16537,-0.246387 -0.29766,-0.319878 -0.12494,-0.0735 -0.2973,-0.110587 -0.51779,-0.110587 -0.10289,0 -0.21313,0.0441 -0.33073,0.132292 -0.11024,0.08819 -0.259,0.152961 -0.3545,0.285254 -0.0882,0.124941 -0.11994,0.306728 -0.18604,0.453719 -0.0588,0.14699 -0.18862,0.863742 -0.18862,0.981335 0,0.293981 0.0604,0.575498 0.0987,0.871265 0.0289,0.220457 0.0372,0.628783 0.0227,0.868681 -0.003,-0.0041 -2.6e-4,-0.110947 -0.0258,-0.195337 -0.0165,-0.08932 -0.0674,-0.230732 -0.12299,-0.275952 -0.0746,-0.04781 -0.12983,-0.03146 -0.25115,-0.01395 -0.12134,0.01752 -0.20291,0.108286 -0.24701,0.189136 -0.0441,0.08084 -0.0608,0.239317 -0.0755,0.268717 -0.0361,0.294211 -0.15669,0.455442 -0.36225,0.845427 -0.24989,0.286632 -0.54054,0.595312 -0.87126,0.926042 -0.33073,0.330728 -0.66146,0.653934 -0.99219,0.969966 -0.33073,0.308679 -0.6835,0.617361 -1.05833,0.926042 -0.36012,0.308679 -0.71992,0.587792 -1.08004,0.837675 -0.36013,0.249886 -0.72042,0.477891 -1.08055,0.683679 -0.72026,0.396875 -1.35214,0.595312 -1.89601,0.595312 -0.53651,0 -0.90785,-0.385852 -1.11363,-1.157552 -0.20579,-0.749655 -0.30851,-1.499306 -0.30851,-2.248958 0,-0.33808 0.022,-0.734953 0.0661,-1.190625 0.0441,-0.46302 0.11379,-0.984665 0.20929,-1.565279 0.0515,-0.30868 0.28198,-0.58469 0.32608,-0.90072 0.0515,-0.316031 0.0408,-0.635334 0.0408,-0.885217 0,-0.374827 -0.24547,-0.671794 -0.4439,-0.671794 -0.36748,0 -1.01274,0.04433 -1.35082,0.31626 -0.33073,0.257233 -0.41955,0.576479 -0.52245,0.921907 -0.0514,0.176389 0.0653,0.590834 0.0212,0.877466 -0.0441,0.286632 -0.0882,0.628385 -0.13229,1.02526 -0.0882,0.79375 -0.13229,1.378038 -0.13229,1.752865 0,0.896644 0.0882,1.767565 0.26458,2.61276 0.17639,0.852546 0.51062,1.58015 1.00304,2.182813 0.11101,0.134198 0.23365,0.25107 0.36484,0.355017 0.2298,0.131631 0.46666,0.258292 0.70797,0.381889 0.30006,0.101938 0.63194,0.156063 0.99993,0.156063 0.80845,0 1.72697,-0.381832 2.75591,-1.146184 0.52916,-0.382178 1.01773,-0.775551 1.46606,-1.179773 0.45567,-0.411575 0.89314,-0.838019 1.31206,-1.278991 0.35278,-0.382175 0.69103,-0.760506 1.01441,-1.135332 0.32338,-0.374827 0.60599,-0.727604 0.84853,-1.058333 0.21233,-0.281027 0.37924,-0.533093 0.51728,-0.766361 -0.0347,0.328067 -0.0735,0.679638 -0.12041,1.074869 -0.0441,0.374827 -0.0952,0.742649 -0.15399,1.102776 -0.0588,0.352776 -0.11387,0.690512 -0.16537,1.013891 -0.0515,0.323379 -0.0956,0.632061 -0.13229,0.926042 -0.0367,0.293981 -0.0553,0.566086 -0.0553,0.81597 0,0.213136 0.0296,0.382004 0.0884,0.506946 0.0662,0.124941 0.15434,0.220654 0.26459,0.286804 0.11759,0.06614 0.25338,0.110252 0.40772,0.132292 0.15434,0.02204 0.32321,0.03307 0.50695,0.03307 0.0588,-3e-6 0.15451,-0.05162 0.2868,-0.154512 0.13964,-0.102894 0.29399,-0.282786 0.46302,-0.540019 0.13229,-0.213138 0.26459,-0.411576 0.39688,-0.595313 0.13964,-0.18374 0.29398,-0.382177 0.46302,-0.595312 0.16904,-0.220488 0.36397,-0.466522 0.58446,-0.738456 0.22784,-0.279283 0.49592,-0.617534 0.8046,-1.014409 0.1176,-0.154342 0.26843,-0.35278 0.45217,-0.595312 0.18374,-0.249886 0.38218,-0.51447 0.59531,-0.79375 0.22049,-0.286634 0.44448,-0.573263 0.67231,-0.859896 0.23519,-0.286631 0.45918,-0.543693 0.67231,-0.771529 0.22049,-0.227835 0.38626,-0.314997 0.57,-0.461987 0.18374,-0.146993 0.31998,-0.211357 0.44493,-0.211357 0.11759,0 0.2292,0.06787 0.2806,0.222209 0.0588,0.15434 0.0813,0.352778 0.10335,0.595312 0.0221,0.242535 -0.0168,0.417891 -0.0238,0.726571 -0.007,0.30133 -0.0224,0.602488 -0.0445,0.903821 -0.0147,0.301331 0.0587,0.587961 0.0367,0.859895 -0.0142,0.271933 -0.0222,0.492419 -0.0222,0.661459 0,0.360127 0.0516,0.694874 0.15451,1.003556 0.10289,0.301331 0.25321,0.561896 0.45165,0.782381 0.19843,0.220486 0.44098,0.393371 0.72761,0.518315 0.28663,0.124945 0.61036,0.187585 0.97048,0.187585 0.49242,0 0.97347,-0.07717 1.44384,-0.23151 0.47772,-0.154339 0.93724,-0.360301 1.37821,-0.617534 0.44833,-0.264586 0.87826,-0.573265 1.28984,-0.926041 0.41157,-0.35278 0.80093,-0.724102 1.16841,-1.113627 0.37483,-0.389525 0.7206,-0.7864 1.03663,-1.190625 0.30257,-0.394049 0.81738,-1.779022 1.0728,-2.146122 -0.0728,0.523869 -0.38664,2.060019 -0.46664,2.59829 -0.0735,0.536515 -0.14716,1.065682 -0.22066,1.5875 -0.0661,0.514467 -0.12471,0.985012 -0.17621,1.411284 -0.0515,0.418923 -0.0956,0.775201 -0.13229,1.069185 -0.0294,0.286631 -0.0439,0.47404 -0.0439,0.56224 -0.92318,0.173303 -0.68978,0.51931 -0.54002,0.727087 0.14559,0.201989 0.7484,0.257348 1.01854,0.235128 0.43362,0 0.59455,-0.194596 0.92088,-0.519348 0.22546,-0.224367 0.46354,-0.593534 0.46354,-1.071253 0,-0.161692 0.0186,-0.338078 0.0553,-0.529166 0.0441,-0.19844 0.0511,-0.367304 0.0217,-0.506946 0.0588,-0.132291 0.11042,-0.253558 0.15452,-0.363802 0.0441,-0.110244 0.0993,-0.220485 0.16536,-0.330729 0.0735,-0.117594 0.16169,-0.23886 0.26459,-0.363802 0.11023,-0.124941 0.26107,-0.272277 0.45216,-0.441317 0.0514,-0.0441 0.11357,-0.09922 0.18707,-0.165365 0.0808,-0.0735 0.15456,-0.143139 0.22066,-0.209289 0.0735,-0.06615 0.13609,-0.124767 0.18759,-0.176217 l 0.11007,-0.110587 c 0.49977,0.279283 0.97381,0.565913 1.42213,0.859895 0.44832,0.286631 0.8893,0.56976 1.32292,0.849044 0.44098,0.279281 0.88195,0.547369 1.32292,0.804602 0.44097,0.257234 0.90399,0.485239 1.38906,0.683679 0.58796,0.242533 1.09186,0.652558 1.65778,0.7922 0.57326,0.139641 1.79368,0.287321 2.45515,0.287321 0.14401,0 0.73641,-0.19942 1.04903,-0.287838 0.61886,-0.310626 1.2049,-0.646221 1.7539,-1.010274 0.008,-0.03318 0.0145,-0.06619 0.0145,-0.09974 0,-0.09554 -0.0366,-0.154693 -0.11007,-0.176733 -0.0661,-0.02939 -0.16887,-0.04393 -0.30851,-0.04393 -0.13229,-0.0074 -0.30167,-0.0074 -0.50746,0 -0.19844,-1e-5 -0.42996,-0.02204 -0.69453,-0.06615 -0.66882,-0.102894 -2.41777,-0.547195 -3.12333,-0.782381 -0.6982,-0.242535 -1.44395,-0.310059 -2.16421,-0.640787 -0.7129,-0.33073 -1.43351,-0.698551 -2.16111,-1.102776 -0.72026,-0.411573 -1.43684,-0.834001 -2.14974,-1.267623 0.0882,-0.124943 0.16938,-0.231687 0.24288,-0.319877 0.0735,-0.09554 0.14665,-0.179714 0.22014,-0.253214 l 0.24288,-0.220659 c 0.0808,-0.0735 0.16502,-0.154162 0.25322,-0.242362 0.10289,-0.102893 0.23921,-0.235185 0.40824,-0.396875 0.17639,-0.169039 0.3673,-0.352951 0.57309,-0.551388 0.21313,-0.198438 0.43363,-0.404397 0.66146,-0.617533 0.22784,-0.220487 0.44482,-0.43345 0.65061,-0.639237 0.21314,-0.205787 0.40755,-0.396703 0.58394,-0.573092 0.18374,-0.183738 0.38936,-0.305408 0.50695,-0.437699 0.0956,-0.102894 0.23898,-0.176388 0.35657,-0.330729 0.12494,-0.161689 0.40652,-0.400436 0.51676,-0.569475 0.11024,-0.169039 0.38539,-0.462044 0.45889,-0.623734 0.0809,-0.169039 0.0481,-0.586757 0.0481,-0.70435 0,-0.257233 -0.32649,-0.386023 -0.79685,-0.386023 -0.30134,0 -0.99397,0.322346 -1.31,0.528133 -0.31603,0.198438 -0.63575,0.569073 -0.95912,0.892452 -0.31603,0.32338 -0.52618,0.741958 -0.84956,1.146183 -0.31603,0.396875 -0.62471,0.790247 -0.92604,1.179773 -0.0588,0.0735 -0.18356,0.216811 -0.37465,0.429948 -0.18374,0.205787 -0.40072,0.451825 -0.65061,0.738456 -0.24988,0.279282 -0.51797,0.576939 -0.8046,0.892969 -0.28663,0.31603 -0.55874,0.61719 -0.81597,0.903821 -0.25723,0.279284 -0.48524,0.529337 -0.68368,0.749825 -0.19109,0.213135 -0.32286,0.35996 -0.39636,0.4408 0.0588,-0.360127 0.12849,-0.852203 0.20929,-1.476912 0.0808,-0.624711 0.17605,-1.381886 0.28629,-2.27118 0.007,-0.05145 0.0334,-0.194763 0.0775,-0.429948 l 0.16537,-0.882116 c 0.0661,-0.360127 0.13934,-0.760505 0.22014,-1.201477 0.0808,-0.448322 0.16208,-0.903821 0.24288,-1.366842 0.0882,-0.47037 0.17241,-0.933391 0.25321,-1.389062 0.0809,-0.455671 0.15456,-0.874595 0.22066,-1.256771 0.0661,-0.382176 0.11781,-0.709403 0.15451,-0.981336 0.0368,-0.271933 0.0553,-0.459345 0.0553,-0.562239 0,-0.06615 -0.0145,-0.143321 -0.0439,-0.231511 -0.0245,-0.07358 -0.0646,-0.140811 -0.11472,-0.204121 -0.33108,-0.08162 -0.66213,-0.159195 -0.99322,-0.233061 z"
       id="path874"
       inkscape:connector-curvature="0"
       sodipodi:nodetypes="cccsccccccccccccccccscccscccscccscccccccccccccccscccscccscccccccccccccscscccssccscsccccsccccccccscsccsccccccccccccscccccscccsccccccccccccccsccsccccccccccccsccscccccccccccccccccccscssccccccscccsccccccscscccc" />
    <g
       aria-label="tory"
       style="font-style:normal;font-variant:normal;font-weight:normal;font-stretch:normal;font-size:14.11111069px;line-height:1.25;font-family:'Ink Free';-inkscape-font-specification:'Ink Free, Normal';font-variant-ligatures:normal;font-variant-caps:normal;font-variant-numeric:normal;font-feature-settings:normal;text-align:start;letter-spacing:0px;word-spacing:0px;writing-mode:lr-tb;text-anchor:start;fill:#314455;fill-opacity:1;stroke:none;stroke-width:0.26458332"
       id="text4566"
       transform="translate(-0.38069545,12.56295)">
      <path
         d="m 62.979497,56.428165 c 0,0.287867 -0.116407,0.865924 -0.368081,1.022135 -0.239452,0.148625 -0.680092,0.252101 -1.3208,0.3556 -1.561015,0.252164 -2.429933,0.423333 -2.6162,0.457199 l -1.431755,0.315941 c 0,0.880533 -0.0044,1.441665 0.01248,2.406865 0.03387,0.9652 0.0762,1.811867 0.126999,2.54 0.06773,0.982133 0.186267,1.735667 0.3556,2.2606 0.169333,0.524933 0.04322,0.784726 0.06016,0.852459 0,0.169333 -0.110067,0.321733 -0.3302,0.4572 -0.2032,0.1524 -0.397933,0.2286 -0.5842,0.2286 -0.1016,0 -0.515133,0.03921 -0.582867,-0.02852 -0.06773,-0.0508 -0.127,-0.143934 -0.1778,-0.2794 -0.1016,-0.237067 -0.2032,-0.677334 -0.3048,-1.3208 -0.08467,-0.643467 -0.1524,-1.354667 -0.2032,-2.1336 -0.0508,-0.694267 -0.09313,-1.4986 -0.126999,-2.413 -0.01693,-0.931334 -0.01248,-1.647932 -0.01248,-2.511532 -0.948266,0.1524 -1.593066,0.265585 -2.592133,0.485718 -0.897467,0.186267 -1.430867,0.2794 -1.6002,0.2794 -0.2032,0 -0.43669,-0.162623 -0.622957,-0.281153 -0.169333,-0.118533 -0.228162,-0.356915 -0.228162,-0.560115 0,-0.220133 0.0762,-0.364067 0.2286,-0.4318 0.1524,-0.06773 0.4064,-0.1016 0.762,-0.1016 0.254,0 0.626533,-0.04233 1.1176,-0.127 0.491067,-0.1016 0.804333,-0.169333 0.9398,-0.2032 1.134533,-0.220133 1.612674,-0.364067 2.019074,-0.4318 0,-0.3556 -0.01693,-0.821267 -0.0508,-1.397 -0.03387,-0.778933 -0.0508,-1.3716 -0.0508,-1.778 0,-0.6604 0.01693,-1.1684 0.0508,-1.524 0.0508,-0.372533 0.135467,-0.702733 0.254,-0.9906 0.135467,-0.338667 0.681793,-0.508 1.054326,-0.508 0.1524,0 0.254,0.0254 0.3048,0.0762 0.0508,0.0508 0.0762,0.143933 0.0762,0.2794 0,0.1016 -0.04233,0.397933 -0.127,0.889 -0.08467,0.491067 -0.127,1.143 -0.127,1.9558 0,0.626533 0.01693,1.329267 0.0508,2.1082 l 0.0254,0.6858 c 0.762,-0.118533 2.269067,-0.4318 4.5212,-0.939799 0.135467,-0.03387 0.245533,-0.1524 0.3302,-0.3556 0.1016,-0.2032 0.2032,-0.3048 0.3048,-0.3048 0.186267,0 0.372533,0.110067 0.5588,0.3302 0.2032,0.2032 0.3048,0.414867 0.3048,0.635 z"
         style="font-size:25.39999962px;line-height:1.25;writing-mode:lr-tb;fill:#314455;fill-opacity:1;stroke-width:0.26458332"
         id="path876"
         inkscape:connector-curvature="0"
         sodipodi:nodetypes="sssccccsccscccccccscsssccccsccsssssccccscss" />
      <path
         d="m 73.092268,61.685965 c 0,0.6604 -0.245533,1.4224 -0.7366,2.285999 -0.491067,0.8636 -1.185334,1.608667 -2.082801,2.2352 -0.897467,0.6096 -1.921933,0.9144 -3.0734,0.9144 -1.134533,0 -1.972733,-0.313267 -2.514599,-0.9398 -0.541867,-0.626533 -1.032045,-1.442008 -1.032045,-2.373341 0,-0.8128 0.180474,-1.820333 0.468341,-3.0226 0.3048,-1.202267 0.782944,-2.277533 1.324811,-3.2258 0.03387,-0.06773 0.187604,-0.386348 0.424671,-0.809681 0.254,-0.440267 0.56994,-0.752197 0.87474,-0.97233 0.3048,-0.237067 0.699615,-0.264248 1.038282,-0.264248 0.1524,0 0.287867,0.04233 0.4064,0.127 0.135467,0.06773 0.2032,0.160867 0.2032,0.2794 0,0.03387 -0.0508,0.118533 -0.1524,0.254 -0.08467,0.118533 -0.1524,0.211667 -0.2032,0.2794 -0.575733,0.694267 -0.840426,1.380067 -1.196026,2.0574 -0.474133,0.8636 -0.864937,1.737003 -1.13587,2.58367 -0.254,0.846667 -0.344459,1.6051 -0.344459,2.604167 0,1.337733 0.410851,1.860437 2.036451,1.860437 0.762,0 1.464734,-0.220133 2.1082,-0.6604 0.6604,-0.440267 0.966089,-0.754422 1.355556,-1.380956 0.389466,-0.643466 0.730363,-1.154585 0.730363,-1.679518 0,-0.592667 -0.231274,-1.109133 -0.620741,-1.5494 -0.389467,-0.440267 -0.849785,-0.72323 -1.527119,-1.214296 -0.440266,-0.321734 -0.743729,-0.639011 -0.946929,-0.842211 -0.2032,-0.2032 -0.103826,-0.500426 -0.103826,-0.635893 0,-0.2032 0.143933,-0.364067 0.4318,-0.4826 0.287867,-0.135467 0.626533,-0.2032 1.016,-0.2032 0.220133,0 0.364067,0.01693 0.4318,0.0508 0.06773,0.01693 0.1016,0.05927 0.1016,0.127 0,0.03387 -0.03387,0.09313 -0.1016,0.1778 -0.0508,0.06773 -0.0762,0.127 -0.0762,0.1778 0,0.0508 0.169333,0.220133 0.508,0.508 0.677333,0.558801 1.2446,1.126068 1.7018,1.701801 0.4572,0.575733 0.6858,1.253067 0.6858,2.032 z"
         style="font-size:25.39999962px;line-height:1.25;writing-mode:lr-tb;fill:#314455;fill-opacity:1;stroke-width:0.26458332"
         id="path878"
         inkscape:connector-curvature="0"
         sodipodi:nodetypes="sscsssccccscsccccssccsscsscscscscss" />
      <path
         d="m 83.855121,56.250365 c 0,0.1524 0.109558,0.523987 -0.110575,0.727187 -0.2032,0.186267 -0.536029,0.331076 -0.688429,0.331076 -0.118533,0 -0.301663,-0.03788 -0.420196,-0.139481 -0.1016,-0.1016 -0.220133,-0.219695 -0.3556,-0.405962 -0.118533,-0.169333 -0.253561,-0.339105 -0.456761,-0.457639 -0.186267,-0.118533 -0.406838,-0.151962 -0.610038,-0.151962 -0.491067,0 -0.789732,0.574419 -1.619466,1.878286 -0.829733,1.286933 -1.332475,2.886695 -2.128341,4.850962 0.01693,0.389466 -0.319405,0.673827 -0.285535,1.266494 0.0508,0.592666 0.08467,1.032933 0.1016,1.3208 l 0.0762,1.016 c 0,0.237066 -0.102477,0.491943 -0.204077,0.661276 -0.1016,0.186267 -0.546249,0.253562 -0.817182,0.253562 -0.287867,0 -0.758353,-0.432676 -0.84302,-1.194676 -0.08467,-0.778933 -0.135467,-1.905 -0.1524,-3.3782 -0.01693,-0.372533 -0.03387,-0.905933 -0.0508,-1.6002 0,-0.694267 -0.01693,-1.524 -0.0508,-2.4892 -0.0508,-1.456267 -0.0762,-2.497667 -0.0762,-3.1242 0,-0.389467 0.521287,-0.532524 0.99542,-0.532524 0.287867,0 0.4572,0.127 0.508,0.381 0.06773,0.237067 0.1016,0.702733 0.1016,1.397 l -1e-6,4.0386 c 0.508,-1.303867 1.058333,-2.429933 1.651,-3.3782 0.592667,-0.948267 1.168401,-1.667933 1.727201,-2.159 0.575733,-0.508 1.083733,-0.762 1.524,-0.761999 0.372533,0 0.728133,0.08467 1.0668,0.254 0.338667,0.169333 0.6096,0.389467 0.8128,0.6604 0.2032,0.254 0.3048,0.499533 0.3048,0.7366 z"
         style="font-size:25.39999962px;line-height:1.25;writing-mode:lr-tb;fill:#314455;fill-opacity:1;stroke-width:0.26458332"
         id="path880"
         inkscape:connector-curvature="0"
         sodipodi:nodetypes="scscccsccccccsccccsscscsccscs" />
      <path
         d="m 94.067509,55.716965 c 0,0.389467 0.162655,1.236133 -0.02362,2.54 -0.2032,1.490133 -0.313267,2.328333 -0.3302,2.5146 -0.220133,2.082799 -0.381,3.674532 -0.4826,4.775199 -0.08467,1.083733 -0.127,2.065867 -0.127,2.9464 0,0.728133 0.160423,1.194245 0.262023,1.617578 0.118533,0.423333 0.163984,0.790073 0.282517,1.02714 0.135467,0.254 -0.08913,0.479482 -0.08913,0.530282 0,0.1524 -0.135467,0.287867 -0.4064,0.4064 -0.270933,0.118533 -0.550333,0.1778 -0.8382,0.1778 -0.220133,0 -0.397933,-0.296333 -0.533399,-0.889 -0.118533,-0.592667 -0.1778,-1.515533 -0.1778,-2.7686 0,-0.948267 0.09313,-2.226733 0.2794,-3.8354 l 0.381,-3.5052 c -0.4572,0.880533 -1.024467,1.7272 -1.7018,2.54 -0.6604,0.795867 -1.3462,1.1938 -2.0574,1.1938 -0.6604,0 -1.253067,-0.575733 -1.778,-1.7272 -0.524933,-1.151467 -0.9398,-2.455333 -1.2446,-3.9116 -0.287866,-1.456267 -0.431799,-2.523067 -0.431799,-3.2004 0,-0.423333 0.127,-0.635 0.381,-0.635 0.372533,0 1.121171,0.127889 1.222771,0.822156 0.643466,4.707466 0.95628,6.732332 2.107746,6.732332 0.4572,0 0.745512,0.0049 1.084178,-0.350696 0.3556,-0.372533 0.405059,-0.830178 0.879193,-1.592178 0.220133,-0.3556 0.4572,-0.756652 0.7112,-1.349318 0.254,-0.592667 0.339111,-1.010652 0.474577,-1.400119 l 0.835535,-2.455776 c 0.03387,-0.389467 0.08467,-0.6604 0.1524,-0.8128 0.06773,-0.169333 0.2032,-0.254 0.4064,-0.254 0.169333,0 0.338667,0.1016 0.508,0.3048 0.169333,0.186267 0.254,0.372533 0.254,0.5588 z"
         style="font-size:25.39999962px;line-height:1.25;writing-mode:lr-tb;fill:#314455;fill-opacity:1;stroke-width:0.26458332"
         id="path882"
         inkscape:connector-curvature="0"
         sodipodi:nodetypes="ccccsccssscscccsscsscsccscccscsc" />
    </g>
    <path
       style="font-style:normal;font-variant:normal;font-weight:normal;font-stretch:normal;font-size:12.44685173px;line-height:1.25;font-family:'Ink Free';-inkscape-font-specification:'Ink Free, Normal';font-variant-ligatures:normal;font-variant-caps:normal;font-variant-numeric:normal;font-feature-settings:normal;text-align:start;letter-spacing:0px;word-spacing:0px;writing-mode:lr-tb;text-anchor:start;fill:#314455;fill-opacity:1;stroke:none;stroke-width:1.17608058"
       d="m 354.82572,102.35765 c 1.94971,-2.0518 3.70966,-4.007558 5.03756,-5.703353 1.65623,-2.117972 3.10937,-4.301189 4.35938,-6.548828 0.37493,-0.69159 0.79688,-1.55638 1.26562,-2.59375 0.49999,-1.037379 0.96877,-2.073958 1.40625,-3.111328 0.46874,-1.080598 1.20705,-1.922118 1.48828,-2.873047 0.31257,-0.994152 0.26172,-1.233266 0.26172,-1.751953 0,-1.253492 -0.2325,-3.332032 -0.73242,-3.332032 -0.1251,0 -1.57425,0.09065 -1.94922,0.609375 -0.37493,0.475457 0.0567,1.937329 -0.41211,2.628907 -0.43752,0.648362 -0.73438,1.390191 -1.23437,2.125 -0.46874,0.7348 -0.87501,1.338996 -1.21875,1.814453 -1.09376,1.512843 -2.28124,3.068677 -3.5625,4.667968 -1.28123,1.556058 -2.64062,3.005767 -4.07813,4.345704 -0.45267,0.41743 -0.9426,0.780811 -2.7985,2.035278 -3.05646,1.466652 -4.79525,2.437378 -6.389,2.437378 -3.375,0 -6.79967,-3.917013 -8.21875,-7.94336 -0.49357,-1.400403 -0.79763,-11.230169 0.22671,-23.727015 1.3554,-16.535839 4.37297,-37.80773 5.82798,-51.052281 -0.0378,-1.1743 0.20434,-2.056918 0.31055,-3.53711 0.0831,-0.815648 -0.12524,-2.679351 -0.0625,-3.4335935 -0.34394,-0.994148 -0.29074,-1.1031549 -0.9629,-1.8613281 -0.6977,-0.7869884 -1.48045,-1.0957032 -2.23046,-1.0957032 -0.62499,0 -1.28126,0.6910516 -1.96875,2.0742188 -0.65627,1.3831635 -1.32812,3.2864933 -2.01563,5.707031 l -1.92187,8.427735 c -0.625,3.198572 -1.21875,6.655787 -1.78125,10.373046 -1.2015,8.083711 -2.10445,16.004051 -2.76563,23.601563 -0.34375,3.933381 -0.60938,7.75735 -0.79687,11.474609 -0.15341,3.005783 -0.20266,5.698428 -0.23047,8.328125 -0.0861,5.120761 0.15014,10.667003 0.79297,15.273438 0.5625,3.890162 1.42187,7.175591 2.57812,9.855469 1.18749,2.636664 2.6875,4.646124 4.5,6.029294 1.84374,1.38317 4.0312,2.07422 6.5625,2.07422 1.65619,0 3.39058,-0.49609 5.20313,-1.49023"
       transform="matrix(0.26458333,0,0,0.26458333,10.306074,54.246017)"
       id="path869"
       inkscape:connector-curvature="0"
       sodipodi:nodetypes="ccccccsscccccccsssccccsccccccccccsc" />
    <g
       aria-label="S"
       transform="matrix(1.0241025,0,0,0.97646473,-2.9304803,9.8449133)"
       style="font-style:normal;font-variant:normal;font-weight:normal;font-stretch:normal;font-size:20.09431648px;line-height:1.25;font-family:'Ink Free';-inkscape-font-specification:'Ink Free, Normal';font-variant-ligatures:normal;font-variant-caps:normal;font-variant-numeric:normal;font-feature-settings:normal;text-align:start;letter-spacing:0px;word-spacing:0px;writing-mode:lr-tb;text-anchor:start;fill:#ff6567;fill-opacity:1;stroke:none;stroke-width:0.50235796"
       id="text854">
      <path
         d="m 53.450442,67.805442 c 0,1.428929 -0.485836,2.843568 -1.457508,4.243919 -0.943093,1.371772 -2.286287,2.486337 -4.02958,3.343694 -1.714715,0.885936 -3.672348,1.328904 -5.872899,1.328904 -1.857608,0 -3.329405,-0.157182 -4.415391,-0.471546 -1.085986,-0.285786 -1.93174,-0.488487 -1.93174,-1.03148 0,-0.285786 0.0739,-0.757333 0.473999,-1.41464 0.428679,-0.685886 0.505031,-0.922985 0.73366,-0.922985 0.342943,0 -0.119401,0.608692 -0.119401,0.751585 0,0.08574 0.364678,0.270461 0.566322,0.368496 0.201645,0.09803 0.368211,0.169934 0.601803,0.222928 0.233592,0.053 0.44415,0.126462 0.790152,0.19123 0.346001,0.06477 0.630031,0.124945 1.287536,0.171671 0.657505,0.04673 1.598668,0.02469 2.656075,0.02469 1.686137,0 3.157934,-0.447728 4.415391,-1.105035 1.286037,-0.657307 2.271998,-1.486086 2.957884,-2.486337 0.685886,-1.00025 1.028829,-1.971922 1.028829,-2.915015 0,-1.228879 -0.60015,-2.286287 -1.800451,-3.172223 -1.171722,-0.885936 -3.036517,-1.916111 -5.665746,-2.716311 -2.543494,-0.828779 -4.444055,-1.552087 -5.844406,-2.09508 -1.371772,-0.571572 -2.486337,-1.107772 -3.343694,-1.907972 -0.857357,-0.828779 -1.393078,-1.754187 -1.393078,-2.925909 0,-1.571822 0.885936,-3.115065 2.657808,-4.62973 1.771872,-1.543243 3.958134,-2.786412 6.558785,-3.729505 2.600651,-0.971672 5.015541,-1.457508 7.24467,-1.457508 1.143143,0 1.757583,0.228629 1.843319,0.685886 0.08573,0.457257 0.128603,0.971672 0.128603,1.543244 0,0.428679 -0.157182,0.643018 -0.471546,0.643018 -0.142893,0 -0.314365,-0.04287 -0.514415,-0.128604 -0.171471,-0.114314 -0.328653,-0.20005 -0.471546,-0.257207 -0.171471,-0.05716 -0.371521,-0.114317 -0.60015,-0.171472 -0.228629,-0.05715 -0.557283,-0.08573 -0.985962,-0.08573 -1.486086,0 -3.272247,0.385811 -5.358484,1.157432 -2.086237,0.771622 -3.900977,1.729005 -5.44422,2.872148 -1.514665,1.143143 -2.271997,2.243419 -2.271997,3.300826 0,0.857357 0.342943,1.600401 1.028829,2.22913 0.714465,0.628729 1.657558,1.171722 2.829279,1.628979 1.171722,0.428679 2.82928,0.971672 4.972674,1.628979 3.143644,0.914515 5.458509,1.943344 6.944595,3.086487 1.514665,1.143143 2.271998,2.543494 2.271998,4.201052 z"
         style="font-size:42.86787415px;fill:#ff6567;fill-opacity:1;stroke-width:0.50235796"
         id="path871"
         inkscape:connector-curvature="0"
         sodipodi:nodetypes="cccscscsszzzzscssccccsccscsscccsscscccccc" />
    </g>
    <g
       id="g851"
       style="font-style:normal;font-variant:normal;font-weight:normal;font-stretch:normal;font-size:20.09431648px;line-height:1.25;font-family:'Ink Free';-inkscape-font-specification:'Ink Free, Normal';font-variant-ligatures:normal;font-variant-caps:normal;font-variant-numeric:normal;font-feature-settings:normal;text-align:start;letter-spacing:0px;word-spacing:0px;writing-mode:lr-tb;text-anchor:start;fill:#314455;fill-opacity:1;stroke:none;stroke-width:0.50235796"
       transform="scale(1.0241025,0.97646473)"
       aria-label="S" />
    <g
       transform="matrix(0.61930457,0,0,0.61930457,-18.298915,17.607315)"
       id="layer1-5"
       inkscape:label="Capa 1">
      <ellipse
         style="opacity:1;fill:#314455;fill-opacity:1;fill-rule:nonzero;stroke:#fffff1;stroke-width:0.85445303;stroke-linecap:square;stroke-linejoin:round;stroke-miterlimit:4;stroke-dasharray:none;stroke-dashoffset:0;stroke-opacity:1;paint-order:normal"
         id="ellipse6317"
         cx="62.188889"
         cy="83.797691"
         rx="15.115037"
         ry="15.115036"
         inkscape:export-xdpi="9.8800001"
         inkscape:export-ydpi="9.8800001" />
      <path
         sodipodi:nodetypes="cccccc"
         inkscape:transform-center-y="0.57597135"
         inkscape:transform-center-x="0.34574424"
         inkscape:connector-curvature="0"
         id="path6370"
         d="m 49.812391,91.374454 h 5.65527 c 5.723986,0.432275 9.140281,-4.461848 10.473859,-7.778991 2.347827,-6.190582 8.712261,-7.554805 8.712261,-7.554805 L 69.173349,75.938836 C 58.116301,75.414626 60.396846,88.678229 49.812391,91.374454 Z"
         style="fill:#ff6b67;fill-opacity:1;stroke:none;stroke-width:0.07097194px;stroke-linecap:butt;stroke-linejoin:miter;stroke-opacity:1" />
    </g>
    <g
       inkscape:label="Capa 1"
       id="g847"
       transform="matrix(0.15326555,0,0,0.15326555,101.04736,53.105626)"
       style="stroke-width:4.04072952">
      <ellipse
         inkscape:export-ydpi="9.8800001"
         inkscape:export-xdpi="9.8800001"
         ry="15.115036"
         rx="15.115037"
         cy="81.208229"
         cx="57.009968"
         id="ellipse843"
         style="opacity:1;fill:#314455;fill-opacity:1;fill-rule:nonzero;stroke:#fffff1;stroke-width:1.7263068;stroke-linecap:square;stroke-linejoin:round;stroke-miterlimit:4;stroke-dasharray:none;stroke-dashoffset:0;stroke-opacity:1;paint-order:normal" />
    </g>
  </g>
</svg>
